<?xml version="1.0" encoding="UTF-8"?>
<svg width="210px" height="170px" viewBox="0 0 210 170" version="1.1" xmlns="http://www.w3.org/2000/svg" xmlns:xlink="http://www.w3.org/1999/xlink">
    <!-- Generator: sketchtool 51.2 (57519) - http://www.bohemiancoding.com/sketch -->
    <title>E0F5D131-A909-46E3-A753-C8F896BCAED5</title>
    <desc>Created with sketchtool.</desc>
    <defs>
        <linearGradient x1="-0.0207740214%" y1="49.998151%" x2="100.009964%" y2="49.998151%" id="linearGradient-1">
            <stop stop-color="#B9C5FE" offset="0.3378378%"></stop>
            <stop stop-color="#A599FB" offset="100%"></stop>
        </linearGradient>
        <linearGradient x1="-0.0256321839%" y1="49.9764376%" x2="100.025747%" y2="49.9764376%" id="linearGradient-2">
            <stop stop-color="#A67AFE" offset="0.3378379%"></stop>
            <stop stop-color="#6E58FB" offset="100%"></stop>
        </linearGradient>
        <linearGradient x1="0.0214953271%" y1="50.0046225%" x2="99.9910102%" y2="50.0046225%" id="linearGradient-3">
            <stop stop-color="#A67AFE" offset="0.3378379%"></stop>
            <stop stop-color="#6E58FB" offset="100%"></stop>
        </linearGradient>
        <linearGradient x1="0.00700680578%" y1="50.0229372%" x2="100.020716%" y2="50.0229372%" id="linearGradient-4">
            <stop stop-color="#A67AFE" offset="0.3378379%"></stop>
            <stop stop-color="#6E58FB" offset="100%"></stop>
        </linearGradient>
        <linearGradient x1="-0.0225675153%" y1="49.9933415%" x2="100.022341%" y2="49.9933415%" id="linearGradient-5">
            <stop stop-color="#E2E7FE" offset="0.3378378%"></stop>
            <stop stop-color="#BBB2FB" offset="100%"></stop>
        </linearGradient>
        <linearGradient x1="0.00354894715%" y1="49.9464606%" x2="100.017258%" y2="49.9464606%" id="linearGradient-6">
            <stop stop-color="#A67AFE" offset="0.3378379%"></stop>
            <stop stop-color="#6E58FB" offset="100%"></stop>
        </linearGradient>
        <linearGradient x1="-0.00483967322%" y1="50.0081273%" x2="100.018945%" y2="50.0081273%" id="linearGradient-7">
            <stop stop-color="#E2E7FE" offset="0.3378378%"></stop>
            <stop stop-color="#BBB2FB" offset="100%"></stop>
        </linearGradient>
        <linearGradient x1="0.104651163%" y1="49.992269%" x2="100.368605%" y2="49.992269%" id="linearGradient-8">
            <stop stop-color="#A67AFE" offset="0.3378379%"></stop>
            <stop stop-color="#6E58FB" offset="100%"></stop>
        </linearGradient>
        <linearGradient x1="-0.0236348818%" y1="50.0124031%" x2="100.015729%" y2="50.0124031%" id="linearGradient-9">
            <stop stop-color="#B9C5FE" offset="0.3378378%"></stop>
            <stop stop-color="#A599FB" offset="100%"></stop>
        </linearGradient>
        <linearGradient x1="0.0166666667%" y1="50.0124031%" x2="100.03123%" y2="50.0124031%" id="linearGradient-10">
            <stop stop-color="#A67AFE" offset="0.3378379%"></stop>
            <stop stop-color="#6E58FB" offset="100%"></stop>
        </linearGradient>
        <linearGradient x1="-0.0167074165%" y1="50.0110169%" x2="99.9971475%" y2="50.0110169%" id="linearGradient-11">
            <stop stop-color="#A67AFE" offset="0.3378379%"></stop>
            <stop stop-color="#6E58FB" offset="100%"></stop>
        </linearGradient>
        <linearGradient x1="-0.0331240188%" y1="49.9937222%" x2="100.01821%" y2="49.9937222%" id="linearGradient-12">
            <stop stop-color="#A67AFE" offset="0.3378379%"></stop>
            <stop stop-color="#6E58FB" offset="100%"></stop>
        </linearGradient>
        <linearGradient x1="0.0604361371%" y1="49.9937222%" x2="100.036137%" y2="49.9937222%" id="linearGradient-13">
            <stop stop-color="#A67AFE" offset="0.3378379%"></stop>
            <stop stop-color="#6E58FB" offset="100%"></stop>
        </linearGradient>
        <linearGradient x1="-0.0265306122%" y1="50.098913%" x2="99.999686%" y2="50.098913%" id="linearGradient-14">
            <stop stop-color="#A67AFE" offset="0.3378379%"></stop>
            <stop stop-color="#6E58FB" offset="100%"></stop>
        </linearGradient>
        <linearGradient x1="0.000693040716%" y1="49.9769808%" x2="99.9758591%" y2="49.9769808%" id="linearGradient-15">
            <stop stop-color="#A67AFE" offset="0.3378379%"></stop>
            <stop stop-color="#6E58FB" offset="100%"></stop>
        </linearGradient>
        <linearGradient x1="-0.0109411765%" y1="49.9719771%" x2="99.9905294%" y2="49.9719771%" id="linearGradient-16">
            <stop stop-color="#B9C5FE" offset="0.3378378%"></stop>
            <stop stop-color="#A599FB" offset="100%"></stop>
        </linearGradient>
        <linearGradient x1="-0.135465116%" y1="49.9822273%" x2="100.128779%" y2="49.9822273%" id="linearGradient-17">
            <stop stop-color="#A67AFE" offset="0.3378379%"></stop>
            <stop stop-color="#6E58FB" offset="100%"></stop>
        </linearGradient>
        <linearGradient x1="-0.02%" y1="50.0028287%" x2="99.8334375%" y2="50.0028287%" id="linearGradient-18">
            <stop stop-color="#B9C5FE" offset="0.3378378%"></stop>
            <stop stop-color="#A599FB" offset="100%"></stop>
        </linearGradient>
        <linearGradient x1="69.9902895%" y1="49.9039581%" x2="65.1065735%" y2="49.9039581%" id="linearGradient-19">
            <stop stop-color="#60CB92" offset="0%"></stop>
            <stop stop-color="#0D7C57" offset="99.32%"></stop>
        </linearGradient>
        <linearGradient x1="69.9902895%" y1="49.8562526%" x2="65.1065735%" y2="49.8562526%" id="linearGradient-20">
            <stop stop-color="#60CB92" offset="0%"></stop>
            <stop stop-color="#0D7C57" offset="99.32%"></stop>
        </linearGradient>
        <linearGradient x1="53.3292728%" y1="43.7096392%" x2="46.1501118%" y2="57.2297389%" id="linearGradient-21">
            <stop stop-color="#A67AFE" offset="0.3378379%"></stop>
            <stop stop-color="#6E58FB" offset="100%"></stop>
        </linearGradient>
        <linearGradient x1="51.1439684%" y1="25.6459125%" x2="48.0996354%" y2="89.3806012%" id="linearGradient-22">
            <stop stop-color="#2C0D68" stop-opacity="0" offset="0.7014743%"></stop>
            <stop stop-color="#300E6B" stop-opacity="0.9582" offset="100%"></stop>
        </linearGradient>
        <linearGradient x1="-0.0409822647%" y1="49.9961724%" x2="100.002783%" y2="49.9961724%" id="linearGradient-23">
            <stop stop-color="#8CA0FE" offset="0.3378379%"></stop>
            <stop stop-color="#8271FB" offset="100%"></stop>
        </linearGradient>
        <linearGradient x1="63.816917%" y1="55.97891%" x2="15.9186325%" y2="35.2233124%" id="linearGradient-24">
            <stop stop-color="#8289FE" offset="0%"></stop>
            <stop stop-color="#A599FB" offset="100%"></stop>
        </linearGradient>
        <linearGradient x1="0.0433615819%" y1="50.0648842%" x2="100.083051%" y2="50.0648842%" id="linearGradient-25">
            <stop stop-color="#8CA0FE" offset="0.3378379%"></stop>
            <stop stop-color="#8271FB" offset="100%"></stop>
        </linearGradient>
        <linearGradient x1="0.0615384615%" y1="50.0171677%" x2="100.142308%" y2="50.0171677%" id="linearGradient-26">
            <stop stop-color="#8CA0FE" offset="0.3378379%"></stop>
            <stop stop-color="#8271FB" offset="100%"></stop>
        </linearGradient>
        <linearGradient x1="-0.0664233577%" y1="50.0309901%" x2="99.829927%" y2="50.0309901%" id="linearGradient-27">
            <stop stop-color="#B9C5FE" offset="0.3378378%"></stop>
            <stop stop-color="#A599FB" offset="100%"></stop>
        </linearGradient>
        <linearGradient x1="0.0195773081%" y1="50.0189121%" x2="100.030478%" y2="50.0189121%" id="linearGradient-28">
            <stop stop-color="#8CA0FE" offset="0.3378379%"></stop>
            <stop stop-color="#8271FB" offset="100%"></stop>
        </linearGradient>
        <linearGradient x1="0.0645901639%" y1="49.966896%" x2="100.093443%" y2="49.966896%" id="linearGradient-29">
            <stop stop-color="#B9C5FE" offset="0.3378378%"></stop>
            <stop stop-color="#A599FB" offset="100%"></stop>
        </linearGradient>
        <linearGradient x1="-0.021134594%" y1="50.0304507%" x2="99.9896552%" y2="50.0304507%" id="linearGradient-30">
            <stop stop-color="#8CA0FE" offset="0.3378379%"></stop>
            <stop stop-color="#8271FB" offset="100%"></stop>
        </linearGradient>
        <linearGradient x1="-0.0783294226%" y1="49.9605475%" x2="99.9599237%" y2="49.9605475%" id="linearGradient-31">
            <stop stop-color="#B9C5FE" offset="0.3378378%"></stop>
            <stop stop-color="#A599FB" offset="100%"></stop>
        </linearGradient>
        <linearGradient x1="0.032487725%" y1="49.9866776%" x2="100.006628%" y2="49.9866776%" id="linearGradient-32">
            <stop stop-color="#8CA0FE" offset="0.3378379%"></stop>
            <stop stop-color="#8271FB" offset="100%"></stop>
        </linearGradient>
        <linearGradient x1="-0.00971816667%" y1="49.9799261%" x2="100.02666%" y2="49.9799261%" id="linearGradient-33">
            <stop stop-color="#B9C5FE" offset="0.3378378%"></stop>
            <stop stop-color="#A599FB" offset="100%"></stop>
        </linearGradient>
        <linearGradient x1="-0.0085106383%" y1="50.0332653%" x2="99.9656301%" y2="50.0332653%" id="linearGradient-34">
            <stop stop-color="#8CA0FE" offset="0.3378379%"></stop>
            <stop stop-color="#8271FB" offset="100%"></stop>
        </linearGradient>
        <linearGradient x1="0.00566037736%" y1="49.9743243%" x2="100.007257%" y2="49.9743243%" id="linearGradient-35">
            <stop stop-color="#B9C5FE" offset="0.3378378%"></stop>
            <stop stop-color="#A599FB" offset="100%"></stop>
        </linearGradient>
        <linearGradient x1="35.7057963%" y1="71.2041006%" x2="208.289407%" y2="-186.274176%" id="linearGradient-36">
            <stop stop-color="#B48CFF" offset="0.3378378%"></stop>
            <stop stop-color="#0B4BE2" offset="100%"></stop>
        </linearGradient>
        <linearGradient x1="11.5855029%" y1="106.871675%" x2="136.248006%" y2="-79.3040547%" id="linearGradient-37">
            <stop stop-color="#B48CFF" offset="0.3378378%"></stop>
            <stop stop-color="#0B4BE2" offset="100%"></stop>
        </linearGradient>
        <linearGradient x1="0.0816062176%" y1="50.0709222%" x2="100.060363%" y2="50.0709222%" id="linearGradient-38">
            <stop stop-color="#B9C5FE" offset="0.3378378%"></stop>
            <stop stop-color="#A599FB" offset="100%"></stop>
        </linearGradient>
        <linearGradient x1="14.6758576%" y1="29.9895766%" x2="62.3183676%" y2="56.975489%" id="linearGradient-39">
            <stop stop-color="#6FE0F7" offset="0%"></stop>
            <stop stop-color="#169FFA" offset="100%"></stop>
        </linearGradient>
        <linearGradient x1="0.00113519092%" y1="49.9896822%" x2="99.9931889%" y2="49.9896822%" id="linearGradient-40">
            <stop stop-color="#6FE0F7" offset="0%"></stop>
            <stop stop-color="#169FFA" offset="100%"></stop>
        </linearGradient>
        <linearGradient x1="57.2068468%" y1="111.123001%" x2="41.9657519%" y2="-18.1356524%" id="linearGradient-41">
            <stop stop-color="#6FE0F7" offset="0%"></stop>
            <stop stop-color="#169FFA" offset="100%"></stop>
        </linearGradient>
        <linearGradient x1="44.8853622%" y1="37.4848833%" x2="57.1710232%" y2="66.1121943%" id="linearGradient-42">
            <stop stop-color="#2440A3" offset="0.3378379%"></stop>
            <stop stop-color="#3F61FA" stop-opacity="0" offset="100%"></stop>
        </linearGradient>
        <linearGradient x1="0.00984528833%" y1="49.9996173%" x2="99.993038%" y2="49.9996173%" id="linearGradient-43">
            <stop stop-color="#3E84E6" offset="0%"></stop>
            <stop stop-color="#0055D4" offset="100%"></stop>
        </linearGradient>
        <linearGradient x1="46.1749758%" y1="41.8954943%" x2="55.7537822%" y2="62.2451881%" id="linearGradient-44">
            <stop stop-color="#DADFF5" offset="0%"></stop>
            <stop stop-color="#87A9E4" offset="100%"></stop>
        </linearGradient>
        <linearGradient x1="0.0680942184%" y1="50.0106475%" x2="100.015346%" y2="50.0106475%" id="linearGradient-45">
            <stop stop-color="#B48CFF" offset="0.3378378%"></stop>
            <stop stop-color="#0B4BE2" offset="100%"></stop>
        </linearGradient>
        <linearGradient x1="0.028609705%" y1="50.0376866%" x2="100.007801%" y2="50.0376866%" id="linearGradient-46">
            <stop stop-color="#B9C5FE" offset="0.3378378%"></stop>
            <stop stop-color="#A599FB" offset="100%"></stop>
        </linearGradient>
        <linearGradient x1="98.3452429%" y1="43.7760531%" x2="1.46559348%" y2="56.3181281%" id="linearGradient-47">
            <stop stop-color="#3F61FA" stop-opacity="0" offset="0%"></stop>
            <stop stop-color="#2440A3" offset="51.61%"></stop>
            <stop stop-color="#3F61FA" stop-opacity="0" offset="100%"></stop>
        </linearGradient>
    </defs>
    <g id="Page-1" stroke="none" stroke-width="1" fill="none" fill-rule="evenodd">
        <g id="Landing-page-5" transform="translate(-670.000000, -3116.000000)">
            <g id="banking-ability" transform="translate(670.000000, 3116.000000)">
                <g id="Group" transform="translate(139.000000, 23.000000)">
                    <polygon id="Shape" fill="url(#linearGradient-1)" fill-rule="nonzero" points="16.2783673 61.3884615 16.2783673 63.9551282 35.6828571 75.1666667 35.6969388 75.1807692 47.9338776 68.1012821 47.9057143 65.6333333 46.765102 65.125641 28.5153061 56.875641"></polygon>
                    <polygon id="Shape" fill="url(#linearGradient-2)" fill-rule="nonzero" points="35.6828571 65.125641 35.6828571 75.1666667 35.6969388 75.1807692 47.9338776 68.1012821 47.9057143 65.6333333 46.765102 65.125641"></polygon>
                    <polygon id="Shape" fill="url(#linearGradient-3)" fill-rule="nonzero" points="35.6969388 72.6846154 16.2642857 61.3884615 28.5153061 54.3794872 47.9057143 65.6333333"></polygon>
                    <path d="M3.78795918,50.4589744 C8.63204082,53.2653846 16.5318367,53.2512821 21.4040816,50.4307692 C26.2763265,47.6102564 26.6706122,41.8987179 21.8265306,39.0923077 C16.982449,36.2858974 8.43489796,36.1448718 3.54857143,38.9653846 C-1.3377551,41.7858974 -1.05612245,47.6666667 3.78795918,50.4589744 Z" id="Shape" fill="url(#linearGradient-4)" fill-rule="nonzero"></path>
                    <path d="M3.78795918,48.95 C8.63204082,51.7564103 16.5318367,51.7423077 21.4040816,48.9217949 C26.2763265,46.1012821 26.3044898,41.5461538 21.4604082,38.7397436 C16.6163265,35.9333333 8.71653061,35.9474359 3.84428571,38.7679487 C-1.02795918,41.5884615 -1.05612245,46.1435897 3.78795918,48.95 Z" id="Shape" fill="url(#linearGradient-5)" fill-rule="nonzero"></path>
                    <polyline id="Shape" stroke="#6F58FB" stroke-width="4" stroke-linecap="round" stroke-linejoin="round" points="12.7579592 36.5820513 11.4061224 5.37307692 24.7414286 45.1987179"></polyline>
                    <path d="M11.4061224,5.37307692 L0.830816327,46.2423077" id="Shape" stroke="#6F58FB" stroke-width="4" stroke-linecap="round" stroke-linejoin="round"></path>
                    <path d="M47.3846939,74.7717949 C52.2287755,77.5782051 60.1285714,77.5641026 65.0008163,74.7435897 C69.8730612,71.9230769 70.2673469,66.2115385 65.4232653,63.4051282 C60.5791837,60.5987179 52.0316327,60.4576923 47.1453061,63.2782051 C42.2589796,66.0987179 42.5406122,71.9653846 47.3846939,74.7717949 Z" id="Shape" fill="url(#linearGradient-6)" fill-rule="nonzero"></path>
                    <path d="M47.3846939,73.2487179 C52.2287755,76.0551282 60.1285714,76.0410256 65.0008163,73.2205128 C69.8730612,70.4 69.9012245,65.8448718 65.0571429,63.0384615 C60.2130612,60.2320513 52.3132653,60.2461538 47.4410204,63.0666667 C42.5546939,65.8871795 42.5406122,70.4564103 47.3846939,73.2487179 Z" id="Shape" fill="url(#linearGradient-7)" fill-rule="nonzero"></path>
                    <polyline id="Shape" stroke="#6F58FB" stroke-width="4" stroke-linecap="round" stroke-linejoin="round" points="56.3546939 60.8807692 55.0028571 29.6717949 68.3381633 69.4974359"></polyline>
                    <path d="M55.0028571,29.6717949 L44.427551,70.5551282" id="Shape" stroke="#6F58FB" stroke-width="4" stroke-linecap="round" stroke-linejoin="round"></path>
                    <path d="M32.1342857,10.8307692 L33.2467347,10.3230769 C33.2467347,10.3230769 33.2608163,10.3230769 33.2608163,10.3230769 C33.6128571,10.1397436 34.077551,10.1679487 34.5704082,10.4641026 L34.8942857,10.6474359 C36.0489796,11.3102564 36.9783673,13.1012821 36.9783673,14.6384615 L36.9783673,51.8128205 L32.4722449,49.2179487 L32.4722449,12.0294872 C32.4722449,11.8320513 32.4863265,11.6628205 32.5144898,11.4935897 L32.1342857,10.8307692 Z" id="Shape" fill="url(#linearGradient-8)" fill-rule="nonzero"></path>
                    <path d="M31.317551,49.7538462 L35.8236735,52.3487179 L35.8236735,15.174359 C35.8236735,13.6371795 34.8942857,11.8461538 33.7395918,11.1833333 L33.4157143,11 C32.2610204,10.3371795 31.3316327,11.0423077 31.3316327,12.5794872 L31.3316327,49.7538462 L31.317551,49.7538462 Z" id="Shape" fill="#494C52" fill-rule="nonzero"></path>
                    <polygon id="Shape" fill="url(#linearGradient-9)" fill-rule="nonzero" points="24.4457143 51.8410256 24.4457143 63.2076923 33.0214286 68.1717949 33.0495918 68.1858974 41.7238776 63.1794872 41.7238776 51.8128205 33.0214286 51.8269231"></polygon>
                    <polygon id="Shape" fill="url(#linearGradient-10)" fill-rule="nonzero" points="33.0214286 51.8269231 33.0214286 68.1717949 33.0495918 68.1858974 41.7238776 63.1794872 41.7238776 51.8128205"></polygon>
                    <polygon id="Shape" fill="url(#linearGradient-11)" fill-rule="nonzero" points="33.0636735 56.8192308 41.7238776 51.8128205 33.1059184 46.8346154 24.4457143 51.8410256"></polygon>
                    <polygon id="Shape" fill="url(#linearGradient-12)" fill-rule="nonzero" points="28.5997959 19.1371795 28.5997959 51.3474359 33.0495918 53.9282051 33.0636735 53.9423077 37.5697959 51.3333333 37.5697959 19.1230769 33.0495918 19.1230769"></polygon>
                    <polygon id="Shape" fill="url(#linearGradient-13)" fill-rule="nonzero" points="33.0495918 19.1230769 33.0495918 53.9282051 33.0636735 53.9423077 37.5697959 51.3333333 37.5697959 19.1230769"></polygon>
                    <polygon id="Shape" fill="url(#linearGradient-14)" fill-rule="nonzero" points="33.0636735 21.7179487 37.5697959 19.1230769 33.0918367 16.5282051 28.5997959 19.1371795"></polygon>
                    <path d="M9.39244898,1.21282051 L10.6738776,0.296153846 C10.9555102,0.0846153846 11.3638776,0.0564102564 11.8285714,0.282051282 L30.092449,9.19487179 L38.794898,14.2294872 L56.6081633,26.174359 C57.4812245,26.7666667 58.1571429,27.9935897 58.1571429,29.0089744 C58.1571429,29.4461538 58.0304082,29.7705128 57.8191837,29.9679487 L57.7910204,29.9820513 C57.7487755,30.024359 57.7065306,30.0525641 57.6502041,30.0807692 L56.3969388,30.9974359 L55.6787755,29.9538462 L55.9181633,29.6294872 L11.9693878,4.21666667 C11.1385714,3.73717949 10.4485714,2.65128205 10.3077551,1.66410256 L9.92755102,1.91794872 L9.39244898,1.21282051 Z" id="Shape" fill="url(#linearGradient-15)" fill-rule="nonzero"></path>
                    <path d="M10.6738776,5.1474359 L55.1859184,30.8846154 C56.1153061,31.4205128 56.8757143,30.9974359 56.8757143,29.925641 C56.8757143,28.9102564 56.1997959,27.6833333 55.3267347,27.0910256 L37.5134694,15.1461538 L28.8110204,10.1115385 L10.5471429,1.19871795 C9.67408163,0.775641026 8.99816327,1.22692308 8.99816327,2.22820513 C8.99816327,3.3 9.7444898,4.5974359 10.6738776,5.1474359 Z" id="Shape" fill="url(#linearGradient-16)" fill-rule="nonzero"></path>
                    <path d="M29.3883673,12.4384615 L30.5008163,11.9307692 C30.5008163,11.9307692 30.514898,11.9307692 30.514898,11.9307692 C30.8669388,11.7474359 31.3316327,11.775641 31.8244898,12.0717949 L32.1483673,12.2551282 C33.3030612,12.9179487 34.232449,14.7089744 34.232449,16.2461538 L34.232449,53.2653846 L33.0495918,53.9564103 L29.7263265,50.825641 L29.7263265,13.6371795 C29.7263265,13.4397436 29.7404082,13.2705128 29.7685714,13.1012821 L29.3883673,12.4384615 Z" id="Shape" fill="url(#linearGradient-17)" fill-rule="nonzero"></path>
                    <path d="M28.5012245,51.3051282 L33.0073469,53.9 L33.0073469,16.7397436 C33.0073469,15.2025641 32.0779592,13.4115385 30.9232653,12.7487179 L30.5993878,12.5653846 C29.4446939,11.9025641 28.5153061,12.6076923 28.5153061,14.1448718 L28.5153061,51.3051282 L28.5012245,51.3051282 Z" id="Shape" fill="url(#linearGradient-18)" fill-rule="nonzero"></path>
                    <ellipse id="Oval" fill="#8C6AFD" fill-rule="nonzero" transform="translate(30.585969, 15.297998) rotate(-30.311289) translate(-30.585969, -15.297998) " cx="30.5859694" cy="15.2979976" rx="1" ry="1.24103121"></ellipse>
                    <g transform="translate(3.802041, 33.846154)" fill-rule="nonzero">
                        <path d="M0.112653061,6.36025641 L0.985714286,6.2474359 L2.07,7.33333333 L5.99877551,5.06282051 C6.19591837,4.95 6.49163265,4.93589744 6.66061224,5.03461538 L16.3346939,10.6333333 C16.3628571,10.3653846 16.3910204,10.1820513 16.4191837,10.1820513 C16.5459184,10.1820513 18.897551,10.4076923 18.8693878,10.4076923 L19.4185714,10.2948718 L19.4185714,12.5089744 C19.4185714,12.5089744 19.4185714,12.5089744 19.4185714,12.5230769 L19.4185714,12.5371795 C19.4185714,12.6076923 19.3622449,12.6782051 19.2636735,12.7346154 L13.532449,16.0487179 C13.3353061,16.1615385 13.0395918,16.175641 12.8706122,16.0769231 L0.225306122,8.75769231 C0.140816327,8.71538462 0.0985714286,8.64487179 0.112653061,8.57435897 L0.112653061,6.36025641 Z" id="Shape" fill="url(#linearGradient-19)"></path>
                        <path d="M12.8846939,13.8346154 L0.239387755,6.51538462 C0.0704081633,6.41666667 0.0985714286,6.2474359 0.281632653,6.13461538 L6.01285714,2.82051282 C6.21,2.70769231 6.50571429,2.69358974 6.67469388,2.79230769 L19.32,10.1115385 C19.4889796,10.2102564 19.4608163,10.3794872 19.2777551,10.4923077 L13.5465306,13.8064103 C13.3353061,13.9192308 13.0395918,13.9333333 12.8846939,13.8346154 Z" id="Shape" fill="#2D9A6E"></path>
                        <path d="M12.8846939,13.8346154 L0.239387755,6.51538462 C0.0704081633,6.41666667 0.0985714286,6.2474359 0.281632653,6.13461538 L6.01285714,2.82051282 C6.21,2.70769231 6.50571429,2.69358974 6.67469388,2.79230769 L19.32,10.1115385 C19.4889796,10.2102564 19.4608163,10.3794872 19.2777551,10.4923077 L13.5465306,13.8064103 C13.3353061,13.9192308 13.0395918,13.9333333 12.8846939,13.8346154 Z" id="Shape" fill="#2D9A6E"></path>
                        <g transform="translate(4.224490, 5.076923)" id="Shape">
                            <polygon fill="#C1CFFB" points="0 5.99358974 2.78816327 7.58717949 2.87265306 5.47179487 2.88673469 5.45769231 9.37836735 1.70641026 6.57612245 0.0846153846 0.0704081633 3.85 0.0704081633 3.93461538"></polygon>
                            <polygon fill="#96B0FB" points="0 5.99358974 2.78816327 7.58717949 2.87265306 5.47179487 2.88673469 5.45769231 0.0704081633 3.93461538"></polygon>
                            <polygon fill="#83A2FB" points="0.323877551 6.19102564 0.521020408 6.30384615 0.605510204 4.23076923 7.13938776 0.408974359 6.92816327 0.296153846 0.394285714 4.11794872 0.394285714 4.2025641"></polygon>
                            <polygon fill="#83A2FB" points="2.1122449 7.22051282 2.30938776 7.33333333 2.39387755 5.26025641 8.9277551 1.43846154 8.70244898 1.32564103 2.18265306 5.1474359 2.18265306 5.23205128"></polygon>
                        </g>
                        <path d="M18.2920408,10.6192308 L13.6873469,13.2846154 C13.3916327,13.1153846 12.9128571,13.1012821 12.6171429,13.2564103 L1.22510204,6.67051282 C1.49265306,6.48717949 1.47857143,6.21923077 1.19693878,6.05 L5.80163265,3.38461538 C6.11142857,3.55384615 6.60428571,3.55384615 6.91408163,3.38461538 L18.2920408,9.97051282 C17.9822449,10.1538462 17.9822449,10.4358974 18.2920408,10.6192308 Z" id="Shape" fill="#60CA83"></path>
                        <ellipse id="Oval" fill="#3BAC3F" transform="translate(9.764891, 8.323943) rotate(-7.596915) translate(-9.764891, -8.323943) " cx="9.76489127" cy="8.32394256" rx="3.42175851" ry="1.93200711"></ellipse>
                        <ellipse id="Oval" fill="#3BAC3F" transform="translate(13.886383, 10.698828) rotate(-89.689343) translate(-13.886383, -10.698828) " cx="13.8863829" cy="10.6988282" rx="1" ry="1"></ellipse>
                        <ellipse id="Oval" fill="#3BAC3F" transform="translate(5.614168, 5.915393) rotate(-89.689343) translate(-5.614168, -5.915393) " cx="5.61416783" cy="5.91539259" rx="1" ry="1"></ellipse>
                        <path d="M0.112653061,3.73717949 L0.985714286,3.62435897 L2.07,4.71025641 L5.99877551,2.43974359 C6.19591837,2.32692308 6.49163265,2.31282051 6.66061224,2.41153846 L16.3346939,8.01025641 C16.3628571,7.74230769 16.3910204,7.55897436 16.4191837,7.55897436 C16.5459184,7.55897436 18.897551,7.78461538 18.8693878,7.78461538 L19.4185714,7.67179487 L19.4185714,9.88589744 C19.4185714,9.88589744 19.4185714,9.88589744 19.4185714,9.9 L19.4185714,9.91410256 C19.4185714,9.98461538 19.3622449,10.0551282 19.2636735,10.1115385 L13.532449,13.425641 C13.3353061,13.5384615 13.0395918,13.5525641 12.8706122,13.4538462 L0.225306122,6.13461538 C0.140816327,6.09230769 0.0985714286,6.02179487 0.112653061,5.95128205 L0.112653061,3.73717949 Z" id="Shape" fill="url(#linearGradient-20)"></path>
                        <path d="M12.8846939,11.2115385 L0.239387755,3.89230769 C0.0704081633,3.79358974 0.0985714286,3.62435897 0.281632653,3.51153846 L6.01285714,0.197435897 C6.21,0.0846153846 6.50571429,0.0705128205 6.67469388,0.169230769 L19.32,7.48846154 C19.4889796,7.58717949 19.4608163,7.75641026 19.2777551,7.86923077 L13.5465306,11.1833333 C13.3353061,11.2961538 13.0395918,11.3102564 12.8846939,11.2115385 Z" id="Shape" fill="#2D9A6E"></path>
                        <path d="M12.8846939,11.2115385 L0.239387755,3.89230769 C0.0704081633,3.79358974 0.0985714286,3.62435897 0.281632653,3.51153846 L6.01285714,0.197435897 C6.21,0.0846153846 6.50571429,0.0705128205 6.67469388,0.169230769 L19.32,7.48846154 C19.4889796,7.58717949 19.4608163,7.75641026 19.2777551,7.86923077 L13.5465306,11.1833333 C13.3353061,11.2961538 13.0395918,11.3102564 12.8846939,11.2115385 Z" id="Shape" fill="#2D9A6E"></path>
                        <path d="M18.2920408,7.98205128 L13.6873469,10.6474359 C13.3916327,10.4782051 12.9128571,10.4641026 12.6171429,10.6192308 L1.22510204,4.03333333 C1.49265306,3.85 1.47857143,3.58205128 1.19693878,3.41282051 L5.80163265,0.747435897 C6.11142857,0.916666667 6.60428571,0.916666667 6.91408163,0.747435897 L18.2920408,7.33333333 C17.9822449,7.51666667 17.9822449,7.81282051 18.2920408,7.98205128 Z" id="Shape" fill="#60CA83"></path>
                        <ellipse id="Oval" fill="#3BAC3F" transform="translate(9.765691, 5.700863) rotate(-7.596915) translate(-9.765691, -5.700863) " cx="9.7656911" cy="5.70086282" rx="3.42175851" ry="1.93200711"></ellipse>
                        <ellipse id="Oval" fill="#3BAC3F" transform="translate(13.891678, 8.070442) rotate(-89.689343) translate(-13.891678, -8.070442) " cx="13.8916776" cy="8.07044167" rx="1" ry="1"></ellipse>
                        <ellipse id="Oval" fill="#3BAC3F" transform="translate(5.605367, 3.286930) rotate(-89.689343) translate(-5.605367, -3.286930) " cx="5.60536681" cy="3.28692962" rx="1" ry="1"></ellipse>
                        <g transform="translate(4.506122, 2.679487)" id="Shape">
                            <polygon fill="#C1CFFB" points="0 5.93717949 2.78816327 7.51666667 2.87265306 5.41538462 2.88673469 5.40128205 9.37836735 1.65 6.57612245 0.0282051282 0.0704081633 3.79358974 0.0704081633 3.86410256"></polygon>
                            <polygon fill="#96B0FB" points="0 5.93717949 2.78816327 7.51666667 2.87265306 5.41538462 2.88673469 5.40128205 0.0704081633 3.86410256"></polygon>
                            <polygon fill="#83A2FB" points="0.323877551 6.12051282 0.521020408 6.23333333 0.605510204 4.16025641 7.13938776 0.352564103 6.92816327 0.225641026 0.394285714 4.0474359 0.394285714 4.13205128"></polygon>
                            <polygon fill="#83A2FB" points="2.1122449 7.15 2.30938776 7.26282051 2.39387755 5.18974359 8.9277551 1.38205128 8.70244898 1.25512821 2.18265306 5.07692308 2.18265306 5.16153846"></polygon>
                        </g>
                    </g>
                    <g transform="translate(48.159184, 59.653846)" fill-rule="nonzero">
                        <path d="M0.0985714286,3.35641026 L0.0985714286,4.65384615 C0.0844897959,5.5 0.633673469,6.33205128 1.74612245,6.96666667 C3.94285714,8.23589744 7.51959184,8.23589744 9.7444898,6.9525641 C10.8569388,6.30384615 11.4202041,5.47179487 11.4061224,4.62564103 L11.4061224,3.32820513 L11.1385714,3.32820513 C10.8710204,2.84871795 10.4204082,2.3974359 9.75857143,2.03076923 C7.56183673,0.761538462 3.98510204,0.761538462 1.76020408,2.04487179 C1.09836735,2.42564103 0.647755102,2.87692308 0.380204082,3.34230769 L0.0985714286,3.34230769 L0.0985714286,3.35641026 Z" id="Shape" fill="#E5C22B"></path>
                        <ellipse id="Oval" fill="#FBDB45" transform="translate(5.748506, 3.344368) rotate(-0.310657) translate(-5.748506, -3.344368) " cx="5.7485056" cy="3.34436779" rx="5.6468177" ry="3.27184296"></ellipse>
                        <path d="M1.91510204,5.35897436 C0.971632653,4.80897436 0.450612245,4.10384615 0.450612245,3.35641026 C0.450612245,2.60897436 0.985714286,1.88974359 1.94326531,1.32564103 C2.97122449,0.733333333 4.33714286,0.408974359 5.78755102,0.408974359 C7.23795918,0.408974359 8.57571429,0.733333333 9.58959184,1.31153846 C10.5330612,1.86153846 11.0540816,2.56666667 11.0540816,3.31410256 C11.0540816,4.06153846 10.5189796,4.78076923 9.56142857,5.34487179 C8.53346939,5.93717949 7.16755102,6.26153846 5.71714286,6.26153846 C4.26673469,6.26153846 2.91489796,5.93717949 1.91510204,5.35897436 Z M2.0277551,1.49487179 C1.12653061,2.01666667 0.619591837,2.67948718 0.619591837,3.37051282 C0.619591837,4.0474359 1.11244898,4.69615385 1.99959184,5.21794872 C2.98530612,5.78205128 4.29489796,6.09230769 5.71714286,6.09230769 C7.13938776,6.09230769 8.47714286,5.76794872 9.47693878,5.20384615 C10.3781633,4.68205128 10.885102,4.01923077 10.885102,3.32820513 C10.885102,2.65128205 10.3922449,2.0025641 9.50510204,1.48076923 C8.51938776,0.916666667 7.20979592,0.606410256 5.78755102,0.606410256 C4.35122449,0.592307692 3.02755102,0.916666667 2.0277551,1.49487179 Z" id="Shape" fill="#FFBC17"></path>
                        <path d="M3.43591837,3.96282051 C3.4922449,3.93461538 3.54857143,3.89230769 3.60489796,3.86410256 C3.63306122,3.85 3.63306122,3.83589744 3.60489796,3.80769231 C3.47816327,3.70897436 3.33734694,3.62435897 3.21061224,3.51153846 C3.05571429,3.38461538 2.95714286,3.24358974 2.92897959,3.08846154 C2.91489796,2.9474359 2.97122449,2.82051282 3.09795918,2.70769231 C3.23877551,2.56666667 3.42183673,2.45384615 3.66122449,2.36923077 C3.90061224,2.28461538 4.15408163,2.28461538 4.40755102,2.32692308 C4.50612245,2.34102564 4.60469388,2.38333333 4.71734694,2.41153846 C4.73142857,2.41153846 4.73142857,2.41153846 4.7455102,2.41153846 C4.73142857,2.3974359 4.73142857,2.38333333 4.73142857,2.36923077 C4.64693878,2.18589744 4.71734694,2.03076923 4.92857143,1.88974359 C5.05530612,1.80512821 5.19612245,1.73461538 5.36510204,1.69230769 C5.6044898,1.63589744 5.84387755,1.63589744 6.09734694,1.69230769 C6.35081633,1.74871795 6.57612245,1.83333333 6.78734694,1.93205128 C6.8577551,1.97435897 6.8577551,1.97435897 6.92816327,1.93205128 C7.12530612,1.81923077 7.32244898,1.70641026 7.51959184,1.59358974 C7.53367347,1.57948718 7.5477551,1.57948718 7.56183673,1.56538462 C7.70265306,1.65 7.84346939,1.73461538 7.98428571,1.81923077 C7.75897959,1.94615385 7.53367347,2.07307692 7.30836735,2.21410256 C7.30836735,2.21410256 7.30836735,2.21410256 7.29428571,2.22820513 C7.32244898,2.24230769 7.35061224,2.25641026 7.37877551,2.27051282 C7.44918367,2.31282051 7.51959184,2.35512821 7.59,2.3974359 C7.61816327,2.41153846 7.6322449,2.41153846 7.66040816,2.3974359 C7.87163265,2.27051282 8.09693878,2.14358974 8.3222449,2.01666667 C8.46306122,2.10128205 8.60387755,2.18589744 8.74469388,2.27051282 C8.50530612,2.41153846 8.28,2.53846154 8.04061224,2.67948718 C8.3222449,2.84871795 8.60387755,3.00384615 8.89959184,3.17307692 C8.74469388,3.25769231 8.58979592,3.34230769 8.44897959,3.44102564 C8.40673469,3.41282051 8.3644898,3.38461538 8.3222449,3.37051282 C8.25183673,3.32820513 8.18142857,3.28589744 8.11102041,3.25769231 C7.97020408,3.18717949 7.80122449,3.18717949 7.6744898,3.27179487 C7.05489796,3.62435897 6.44938776,3.97692308 5.82979592,4.34358974 C5.70306122,4.41410256 5.70306122,4.48461538 5.82979592,4.55512821 C5.91428571,4.61153846 5.99877551,4.65384615 6.09734694,4.71025641 C6.11142857,4.72435897 6.1255102,4.72435897 6.11142857,4.73846154 C5.98469388,4.85128205 5.84387755,4.95 5.71714286,5.06282051 C5.71714286,5.06282051 5.71714286,5.06282051 5.70306122,5.06282051 C5.42142857,4.89358974 5.13979592,4.73846154 4.85816327,4.56923077 C4.61877551,4.71025641 4.37938776,4.85128205 4.14,4.97820513 C3.99918367,4.89358974 3.85836735,4.80897436 3.71755102,4.72435897 C3.94285714,4.5974359 4.16816327,4.47051282 4.37938776,4.34358974 C4.39346939,4.32948718 4.42163265,4.32948718 4.39346939,4.31538462 C4.29489796,4.25897436 4.1822449,4.18846154 4.06959184,4.13205128 C3.83020408,4.27307692 3.60489796,4.4 3.3655102,4.54102564 C3.22469388,4.45641026 3.08387755,4.37179487 2.94306122,4.28717949 C3.09795918,4.16025641 3.26693878,4.06153846 3.43591837,3.96282051 Z M4.95673469,3.96282051 C5.23836735,3.79358974 5.52,3.63846154 5.81571429,3.46923077 C5.85795918,3.44102564 5.85795918,3.44102564 5.81571429,3.41282051 C5.64673469,3.31410256 5.4777551,3.21538462 5.29469388,3.13076923 C5.12571429,3.04615385 4.94265306,2.97564103 4.71734694,2.9474359 C4.42163265,2.90512821 4.11183673,3.00384615 4.04142857,3.18717949 C3.99918367,3.27179487 4.04142857,3.35641026 4.11183673,3.44102564 C4.21040816,3.56794872 4.36530612,3.68076923 4.53428571,3.77948718 C4.66102041,3.85 4.7877551,3.92051282 4.9144898,4.00512821 C4.92857143,3.97692308 4.94265306,3.96282051 4.95673469,3.96282051 Z M7.11122449,2.72179487 C7.13938776,2.70769231 7.15346939,2.69358974 7.11122449,2.67948718 C6.95632653,2.59487179 6.80142857,2.49615385 6.63244898,2.42564103 C6.49163265,2.35512821 6.32265306,2.29871795 6.1255102,2.28461538 C5.88612245,2.27051282 5.61857143,2.38333333 5.57632653,2.52435897 C5.54816327,2.60897436 5.59040816,2.70769231 5.67489796,2.77820513 C5.82979592,2.93333333 6.04102041,3.06025641 6.26632653,3.17307692 C6.2944898,3.18717949 6.30857143,3.18717949 6.33673469,3.17307692 C6.46346939,3.1025641 6.60428571,3.01794872 6.73102041,2.9474359 C6.84367347,2.86282051 6.97040816,2.79230769 7.11122449,2.72179487 Z" id="Shape" fill="#FFBC17"></path>
                    </g>
                    <g transform="translate(54.355102, 65.153846)" fill-rule="nonzero">
                        <path d="M0.140816327,3.41282051 L0.140816327,4.71025641 C0.126734694,5.55641026 0.675918367,6.38846154 1.78836735,7.02307692 C3.98510204,8.29230769 7.56183673,8.29230769 9.78673469,7.00897436 C10.8991837,6.36025641 11.462449,5.52820513 11.4483673,4.68205128 L11.4483673,3.38461538 L11.1808163,3.38461538 C10.9132653,2.90512821 10.4626531,2.45384615 9.80081633,2.08717949 C7.60408163,0.817948718 4.02734694,0.817948718 1.80244898,2.10128205 C1.14061224,2.48205128 0.69,2.93333333 0.42244898,3.39871795 L0.140816327,3.39871795 L0.140816327,3.41282051 Z" id="Shape" fill="#E5C22B"></path>
                        <ellipse id="Oval" fill="#FBDB45" transform="translate(5.790825, 3.400849) rotate(-0.310657) translate(-5.790825, -3.400849) " cx="5.79082487" cy="3.40084911" rx="5.6468177" ry="3.27184296"></ellipse>
                        <path d="M1.95734694,5.41538462 C1.01387755,4.86538462 0.492857143,4.16025641 0.492857143,3.41282051 C0.492857143,2.66538462 1.02795918,1.94615385 1.9855102,1.38205128 C3.01346939,0.78974359 4.37938776,0.465384615 5.82979592,0.465384615 C7.28020408,0.465384615 8.61795918,0.78974359 9.63183673,1.36794872 C10.5753061,1.91794872 11.0963265,2.62307692 11.0963265,3.37051282 C11.0963265,4.11794872 10.5612245,4.83717949 9.60367347,5.40128205 C8.57571429,5.99358974 7.20979592,6.31794872 5.75938776,6.31794872 C4.30897959,6.33205128 2.95714286,6.00769231 1.95734694,5.41538462 Z M2.07,1.55128205 C1.16877551,2.07307692 0.661836735,2.73589744 0.661836735,3.42692308 C0.661836735,4.10384615 1.15469388,4.7525641 2.04183673,5.27435897 C3.02755102,5.83846154 4.33714286,6.14871795 5.75938776,6.14871795 C7.18163265,6.14871795 8.51938776,5.82435897 9.51918367,5.26025641 C10.4204082,4.73846154 10.9273469,4.07564103 10.9273469,3.38461538 C10.9273469,2.70769231 10.4344898,2.05897436 9.54734694,1.53717949 C8.56163265,0.973076923 7.25204082,0.662820513 5.82979592,0.662820513 C4.39346939,0.662820513 3.06979592,0.973076923 2.07,1.55128205 Z" id="Shape" fill="#FFBC17"></path>
                        <path d="M3.47816327,4.03333333 C3.5344898,4.00512821 3.59081633,3.96282051 3.64714286,3.93461538 C3.67530612,3.92051282 3.67530612,3.90641026 3.64714286,3.87820513 C3.52040816,3.77948718 3.37959184,3.69487179 3.25285714,3.58205128 C3.09795918,3.45512821 2.99938776,3.31410256 2.97122449,3.15897436 C2.95714286,3.01794872 3.01346939,2.89102564 3.14020408,2.77820513 C3.28102041,2.63717949 3.46408163,2.52435897 3.70346939,2.43974359 C3.94285714,2.35512821 4.19632653,2.35512821 4.44979592,2.3974359 C4.54836735,2.41153846 4.64693878,2.45384615 4.75959184,2.48205128 C4.77367347,2.48205128 4.77367347,2.48205128 4.7877551,2.48205128 C4.77367347,2.46794872 4.77367347,2.45384615 4.77367347,2.43974359 C4.68918367,2.25641026 4.75959184,2.10128205 4.97081633,1.96025641 C5.09755102,1.87564103 5.23836735,1.80512821 5.40734694,1.76282051 C5.64673469,1.70641026 5.88612245,1.70641026 6.13959184,1.76282051 C6.39306122,1.81923077 6.61836735,1.90384615 6.82959184,2.0025641 C6.9,2.04487179 6.9,2.04487179 6.97040816,2.0025641 C7.16755102,1.88974359 7.36469388,1.77692308 7.56183673,1.66410256 C7.57591837,1.65 7.59,1.65 7.60408163,1.63589744 C7.74489796,1.72051282 7.88571429,1.80512821 8.02653061,1.88974359 C7.80122449,2.01666667 7.57591837,2.14358974 7.35061224,2.28461538 C7.35061224,2.28461538 7.35061224,2.28461538 7.33653061,2.29871795 C7.36469388,2.31282051 7.39285714,2.32692308 7.42102041,2.34102564 C7.49142857,2.38333333 7.56183673,2.42564103 7.6322449,2.46794872 C7.66040816,2.48205128 7.6744898,2.48205128 7.70265306,2.46794872 C7.91387755,2.34102564 8.13918367,2.21410256 8.3644898,2.08717949 C8.50530612,2.17179487 8.64612245,2.25641026 8.78693878,2.34102564 C8.54755102,2.48205128 8.3222449,2.60897436 8.08285714,2.75 C8.3644898,2.91923077 8.64612245,3.07435897 8.94183673,3.24358974 C8.78693878,3.32820513 8.63204082,3.41282051 8.49122449,3.51153846 C8.44897959,3.48333333 8.40673469,3.45512821 8.3644898,3.44102564 C8.29408163,3.39871795 8.22367347,3.35641026 8.15326531,3.32820513 C8.01244898,3.25769231 7.84346939,3.25769231 7.71673469,3.34230769 C7.09714286,3.69487179 6.49163265,4.0474359 5.87204082,4.41410256 C5.74530612,4.48461538 5.74530612,4.55512821 5.87204082,4.62564103 C5.95653061,4.68205128 6.04102041,4.72435897 6.13959184,4.78076923 C6.15367347,4.79487179 6.1677551,4.79487179 6.15367347,4.80897436 C6.02693878,4.92179487 5.88612245,5.02051282 5.75938776,5.13333333 C5.75938776,5.13333333 5.75938776,5.13333333 5.74530612,5.13333333 C5.46367347,4.96410256 5.18204082,4.80897436 4.90040816,4.63974359 C4.66102041,4.78076923 4.42163265,4.92179487 4.1822449,5.04871795 C4.04142857,4.96410256 3.90061224,4.87948718 3.75979592,4.79487179 C3.98510204,4.66794872 4.21040816,4.54102564 4.42163265,4.41410256 C4.43571429,4.4 4.46387755,4.4 4.43571429,4.38589744 C4.33714286,4.32948718 4.2244898,4.25897436 4.11183673,4.2025641 C3.87244898,4.34358974 3.64714286,4.47051282 3.4077551,4.61153846 C3.26693878,4.52692308 3.12612245,4.44230769 2.98530612,4.35769231 C3.14020408,4.21666667 3.30918367,4.11794872 3.47816327,4.03333333 Z M4.99897959,4.01923077 C5.28061224,3.85 5.5622449,3.69487179 5.85795918,3.52564103 C5.90020408,3.4974359 5.90020408,3.4974359 5.85795918,3.46923077 C5.68897959,3.37051282 5.52,3.27179487 5.33693878,3.18717949 C5.16795918,3.1025641 4.98489796,3.03205128 4.75959184,3.00384615 C4.46387755,2.96153846 4.15408163,3.06025641 4.08367347,3.24358974 C4.04142857,3.32820513 4.08367347,3.41282051 4.15408163,3.4974359 C4.25265306,3.62435897 4.40755102,3.73717949 4.57653061,3.83589744 C4.70326531,3.90641026 4.83,3.97692308 4.95673469,4.06153846 C4.97081633,4.03333333 4.98489796,4.03333333 4.99897959,4.01923077 Z M7.15346939,2.77820513 C7.18163265,2.76410256 7.19571429,2.75 7.15346939,2.73589744 C6.99857143,2.65128205 6.84367347,2.5525641 6.67469388,2.48205128 C6.53387755,2.41153846 6.36489796,2.35512821 6.1677551,2.34102564 C5.92836735,2.32692308 5.66081633,2.43974359 5.61857143,2.58076923 C5.59040816,2.66538462 5.63265306,2.76410256 5.71714286,2.83461538 C5.87204082,2.98974359 6.08326531,3.11666667 6.30857143,3.22948718 C6.33673469,3.24358974 6.35081633,3.24358974 6.37897959,3.22948718 C6.50571429,3.15897436 6.64653061,3.07435897 6.77326531,3.00384615 C6.88591837,2.93333333 7.01265306,2.84871795 7.15346939,2.77820513 Z" id="Shape" fill="#FFBC17"></path>
                    </g>
                    <g transform="translate(47.032653, 61.628205)" fill-rule="nonzero">
                        <path d="M1.02795918,6.69871795 L1.4222449,8.12307692 C1.66163265,9.03974359 2.43612245,9.81538462 3.70346939,10.2102564 C6.19591837,11.0141026 9.64591837,10.0551282 11.3920408,8.08076923 C12.265102,7.07948718 12.5467347,6.02179487 12.3073469,5.10512821 L11.9130612,3.69487179 L11.6595918,3.76538462 C11.2653061,3.31410256 10.6879592,2.9474359 9.94163265,2.70769231 C7.44918367,1.90384615 3.99918367,2.86282051 2.25306122,4.83717949 C1.73204082,5.42948718 1.4222449,6.03589744 1.30959184,6.62820513 L1.02795918,6.69871795 Z" id="Shape" fill="#E5C22B"></path>
                        <ellipse id="Oval" fill="#FBDB45" transform="translate(6.478003, 5.170879) rotate(-15.794297) translate(-6.478003, -5.170879) " cx="6.47800304" cy="5.17087859" rx="5.64705692" ry="3.69508264"></ellipse>
                        <path d="M3.3655102,8.40512821 C2.28122449,8.0525641 1.57714286,7.41794872 1.35183673,6.61410256 C1.12653061,5.79615385 1.4222449,4.86538462 2.18265306,4.00512821 C2.98530612,3.08846154 4.21040816,2.36923077 5.61857143,1.98846154 C7.01265306,1.60769231 8.40673469,1.59358974 9.54734694,1.96025641 C10.6316327,2.31282051 11.3357143,2.9474359 11.5610204,3.75128205 C11.7863265,4.56923077 11.4906122,5.5 10.7302041,6.36025641 C9.92755102,7.27692308 8.70244898,7.99615385 7.29428571,8.37692308 C5.91428571,8.75769231 4.50612245,8.77179487 3.3655102,8.40512821 Z M2.32346939,4.16025641 C1.60530612,4.97820513 1.32367347,5.82435897 1.53489796,6.57179487 C1.73204082,7.30512821 2.40795918,7.88333333 3.42183673,8.20769231 C4.53428571,8.56025641 5.90020408,8.56025641 7.25204082,8.17948718 C8.61795918,7.79871795 9.81489796,7.10769231 10.6034694,6.20512821 C11.3216327,5.38717949 11.6032653,4.54102564 11.3920408,3.79358974 C11.194898,3.06025641 10.5189796,2.48205128 9.50510204,2.15769231 C8.39265306,1.80512821 7.02673469,1.80512821 5.67489796,2.18589744 C4.29489796,2.56666667 3.11204082,3.25769231 2.32346939,4.16025641 Z" id="Shape" fill="#FFBC17"></path>
                        <path d="M4.42163265,6.47307692 C4.46387755,6.41666667 4.50612245,6.37435897 4.56244898,6.31794872 C4.59061224,6.28974359 4.59061224,6.27564103 4.54836735,6.26153846 C4.39346939,6.19102564 4.2244898,6.12051282 4.08367347,6.05 C3.90061224,5.95128205 3.75979592,5.82435897 3.68938776,5.65512821 C3.63306122,5.51410256 3.66122449,5.34487179 3.74571429,5.18974359 C3.84428571,5.00641026 3.98510204,4.82307692 4.1822449,4.66794872 C4.39346939,4.51282051 4.63285714,4.44230769 4.88632653,4.42820513 C4.99897959,4.42820513 5.09755102,4.42820513 5.19612245,4.42820513 C5.21020408,4.42820513 5.21020408,4.42820513 5.22428571,4.42820513 C5.21020408,4.41410256 5.19612245,4.4 5.19612245,4.38589744 C5.06938776,4.21666667 5.08346939,4.01923077 5.23836735,3.80769231 C5.33693878,3.68076923 5.44959184,3.56794872 5.6044898,3.48333333 C5.81571429,3.35641026 6.05510204,3.3 6.30857143,3.28589744 C6.57612245,3.27179487 6.8155102,3.31410256 7.04081633,3.37051282 C7.12530612,3.38461538 7.12530612,3.38461538 7.18163265,3.32820513 C7.33653061,3.14487179 7.49142857,2.97564103 7.64632653,2.79230769 C7.66040816,2.77820513 7.6744898,2.76410256 7.6744898,2.75 C7.84346939,2.80641026 7.99836735,2.84871795 8.15326531,2.90512821 C7.97020408,3.1025641 7.80122449,3.3 7.61816327,3.51153846 C7.61816327,3.51153846 7.61816327,3.51153846 7.61816327,3.52564103 C7.64632653,3.53974359 7.6744898,3.53974359 7.70265306,3.55384615 C7.78714286,3.58205128 7.87163265,3.61025641 7.95612245,3.63846154 C7.98428571,3.6525641 7.99836735,3.63846154 8.02653061,3.62435897 C8.1955102,3.42692308 8.3644898,3.22948718 8.54755102,3.03205128 C8.70244898,3.08846154 8.87142857,3.13076923 9.02632653,3.18717949 C8.84326531,3.39871795 8.66020408,3.61025641 8.47714286,3.82179487 C8.80102041,3.92051282 9.12489796,4.03333333 9.44877551,4.13205128 C9.32204082,4.27307692 9.20938776,4.4 9.08265306,4.54102564 C9.04040816,4.52692308 8.98408163,4.51282051 8.94183673,4.49871795 C8.85734694,4.47051282 8.78693878,4.44230769 8.70244898,4.42820513 C8.54755102,4.38589744 8.37857143,4.44230769 8.28,4.55512821 C7.78714286,5.10512821 7.30836735,5.65512821 6.8155102,6.20512821 C6.71693878,6.31794872 6.74510204,6.38846154 6.87183673,6.43076923 C6.97040816,6.45897436 7.06897959,6.50128205 7.16755102,6.52948718 C7.18163265,6.52948718 7.20979592,6.54358974 7.19571429,6.55769231 C7.09714286,6.71282051 6.99857143,6.85384615 6.91408163,7.00897436 C6.91408163,7.00897436 6.91408163,7.00897436 6.9,7.02307692 C6.57612245,6.92435897 6.26632653,6.81153846 5.92836735,6.71282051 C5.73122449,6.92435897 5.54816327,7.13589744 5.36510204,7.3474359 C5.21020408,7.29102564 5.04122449,7.24871795 4.88632653,7.19230769 C5.05530612,6.99487179 5.23836735,6.7974359 5.40734694,6.6 C5.42142857,6.58589744 5.4355102,6.57179487 5.40734694,6.55769231 C5.29469388,6.51538462 5.16795918,6.48717949 5.04122449,6.44487179 C4.85816327,6.65641026 4.67510204,6.86794872 4.49204082,7.07948718 C4.32306122,7.02307692 4.16816327,6.98076923 4.01326531,6.92435897 C4.15408163,6.76923077 4.28081633,6.62820513 4.42163265,6.47307692 Z M5.88612245,6.06410256 C6.11142857,5.81025641 6.33673469,5.55641026 6.56204082,5.3025641 C6.59020408,5.27435897 6.59020408,5.26025641 6.54795918,5.24615385 C6.35081633,5.18974359 6.1677551,5.11923077 5.97061224,5.07692308 C5.78755102,5.02051282 5.57632653,5.00641026 5.36510204,5.02051282 C5.05530612,5.04871795 4.80183673,5.24615385 4.7877551,5.45769231 C4.77367347,5.57051282 4.84408163,5.64102564 4.92857143,5.71153846 C5.06938776,5.82435897 5.23836735,5.89487179 5.4355102,5.96538462 C5.57632653,6.00769231 5.71714286,6.06410256 5.87204082,6.10641026 C5.85795918,6.09230769 5.87204082,6.07820513 5.88612245,6.06410256 Z M7.57591837,4.14615385 C7.59,4.11794872 7.60408163,4.10384615 7.56183673,4.10384615 C7.37877551,4.0474359 7.20979592,3.99102564 7.02673469,3.94871795 C6.8577551,3.90641026 6.68877551,3.89230769 6.49163265,3.93461538 C6.2522449,3.99102564 6.02693878,4.17435897 6.04102041,4.34358974 C6.04102041,4.44230769 6.11142857,4.52692308 6.21,4.5974359 C6.40714286,4.72435897 6.64653061,4.80897436 6.9,4.87948718 C6.92816327,4.89358974 6.9422449,4.87948718 6.95632653,4.85128205 C7.05489796,4.73846154 7.16755102,4.61153846 7.26612245,4.49871795 C7.37877551,4.37179487 7.47734694,4.25897436 7.57591837,4.14615385 Z" id="Shape" fill="#FFBC17"></path>
                    </g>
                </g>
                <g id="Group" fill-rule="nonzero">
                    <path d="M92.8053812,27.310828 C92.8053812,26.8343949 92.7358744,26.4140127 92.6107623,26.0496815 C92.4161435,25.5031847 92.1103139,25.0828025 91.6932735,24.844586 L49.9058296,0.36433121 C49.2107623,-0.0420382166 48.2654709,0.0140127389 47.2089686,0.630573248 L3.82286996,25.8815287 C1.72376682,27.1006369 0.0278026906,30.0573248 0.0417040359,32.4955414 L0.111210762,57.3261146 L0.180717489,82.7452229 C0.180717489,83.9503185 0.611659193,84.8050955 1.29282511,85.1974522 L43.0941704,109.677707 C43.0802691,109.663694 43.0524664,109.649682 43.038565,109.635669 C43.2053812,109.747771 43.4,109.817834 43.5946188,109.873885 C44.2201794,110.028025 44.970852,109.887898 45.7910314,109.411465 L45.8605381,109.369427 L89.17713,84.1605096 C91.2762332,82.9414013 92.9721973,79.9847134 92.958296,77.5605096 L92.8053812,27.310828 Z" id="Shape" fill="url(#linearGradient-21)"></path>
                    <path d="M45.8466368,59.4980892 L45.8466368,109.369427 L45.77713,109.411465 C44.9569507,109.887898 44.1923767,110.028025 43.5807175,109.873885 C43.3860987,109.831847 43.1914798,109.747771 43.0246637,109.635669 C43.038565,109.649682 43.0663677,109.663694 43.0802691,109.677707 L1.27892377,85.1834395 C0.597757848,84.7770701 0.180717489,83.9363057 0.166816143,82.7312102 L0.097309417,57.3121019 L45.8466368,59.4980892 Z" id="Shape" fill="url(#linearGradient-22)" opacity="0.7"></path>
                    <path d="M92.9443946,77.5605096 C92.9443946,79.9847134 91.2623318,82.9414013 89.1632287,84.1605096 L45.7910314,109.411465 C44.970852,109.887898 44.206278,110.028025 43.5946188,109.873885 C42.7049327,109.579618 42.1349776,108.66879 42.1349776,107.267516 L41.9959641,57.1019108 C41.9959641,54.677707 43.6780269,51.7210191 45.77713,50.5019108 L89.093722,25.2929936 C90.706278,24.3541401 92.0964126,24.7184713 92.638565,26.0496815 C92.7636771,26.4140127 92.8331839,26.8343949 92.8331839,27.310828 L92.9443946,77.5605096 Z" id="Shape" fill="url(#linearGradient-23)"></path>
                    <path d="M49.2107623,53.2624204 C47.4174888,54.2993631 45.9717489,56.8356688 45.9856502,58.9095541 L46.1107623,101.802548 C46.1107623,103.876433 47.5704036,104.717197 49.3636771,103.666242 L86.396861,82.1146497 C88.1901345,81.077707 89.6358744,78.5414013 89.6219731,76.4675159 L89.496861,33.5745223 C89.496861,31.5006369 88.0372197,30.6598726 86.2439462,31.710828 L49.2107623,53.2624204 Z" id="Shape" stroke="#6256E3" stroke-width="9" fill="url(#linearGradient-24)"></path>
                    <g transform="translate(49.071749, 42.318471)" id="Shape">
                        <path d="M15.2497758,28.6 C15.2497758,31.7388535 17.4600897,33.0140127 20.170852,31.4305732 C22.8816143,29.8471338 25.0919283,26.0216561 25.0919283,22.8687898 C25.0919283,19.7159236 22.8816143,18.4547771 20.170852,20.0382166 C17.4600897,21.6356688 15.2497758,25.4611465 15.2497758,28.6 Z" fill="url(#linearGradient-25)"></path>
                        <path d="M11.0932735,31.0242038 C11.0932735,25.2369427 15.1663677,18.1464968 20.170852,15.2318471 C25.1753363,12.3171975 29.2484305,14.6573248 29.2484305,20.444586 C29.2484305,26.2318471 25.1753363,33.322293 20.170852,36.2369427 C15.1663677,39.1515924 11.0932735,36.811465 11.0932735,31.0242038 Z M12.4695067,30.2254777 C12.4695067,35.143949 15.9309417,37.133758 20.1847534,34.6535032 C24.438565,32.1732484 27.9,26.1617834 27.9,21.2433121 C27.9,16.3248408 24.438565,14.3350318 20.1847534,16.8152866 C15.9309417,19.2955414 12.4695067,25.3070064 12.4695067,30.2254777 Z" stroke="#6256E3" fill="#6256E3"></path>
                        <polygon fill="url(#linearGradient-26)" points="19.1699552 3.05477707 21.338565 1.79363057 21.338565 21.5095541 19.1699552 22.7707006"></polygon>
                        <path d="M18.2802691,1.84968153 C19.9484305,0.756687898 20.1847534,-0.266242038 22.0892377,0.686624204 L21.5470852,12.0929936 L18.9892377,13.5783439 L18.2802691,1.84968153 Z" fill="url(#linearGradient-27)"></path>
                        <polygon fill="url(#linearGradient-28)" points="8.35470852 52.5617834 6.67264574 51.9452229 17.5017937 30.4076433 19.1699552 31.0382166"></polygon>
                        <path d="M8.54932735,53.5146497 C7.28430493,53.8369427 6.65874439,53.5286624 5.72735426,52.477707 L12.2331839,40.5248408 L14.2071749,41.2535032 L8.54932735,53.5146497 Z" fill="url(#linearGradient-29)"></path>
                        <polygon fill="url(#linearGradient-30)" points="30.9860987 38.2828025 32.6681614 35.7184713 21.8390135 26.7783439 20.170852 29.3566879"></polygon>
                        <path d="M30.7914798,39.4738854 C33.0156951,39.2636943 34.2390135,37.2318471 33.6134529,35.143949 L27.1076233,30.7719745 L25.1336323,33.7987261 L30.7914798,39.4738854 Z" fill="url(#linearGradient-31)"></path>
                        <polygon fill="url(#linearGradient-32)" points="39.57713 8.77197452 38.9793722 6.71210191 22.5896861 21.677707 23.1874439 23.7515924"></polygon>
                        <path d="M40.341704,8.96815287 C40.9255605,7.98726115 40.3556054,6.1656051 39.3408072,5.49299363 L30.27713,14.433121 L30.9860987,16.8713376 L40.341704,8.96815287 Z" fill="url(#linearGradient-33)"></path>
                        <polygon fill="url(#linearGradient-34)" points="1.37623318 31.0101911 1.97399103 28.2496815 18.3636771 24.143949 17.7659193 26.9044586"></polygon>
                        <polygon fill="url(#linearGradient-35)" points="1.09820628 32.0611465 1.54304933 27.4649682 10.6762332 25.8394904 9.96726457 29.0904459"></polygon>
                        <path d="M18.2524664,1.82165605 C18.4053812,2.38216561 19.3923767,2.57834395 20.4349776,2.28407643 C21.4775785,1.97579618 22.2004484,1.28917197 22.0475336,0.72866242 C21.8946188,0.168152866 20.9076233,-0.0280254777 19.8650224,0.266242038 C18.8224215,0.560509554 18.0856502,1.2611465 18.2524664,1.82165605 Z" fill="url(#linearGradient-36)"></path>
                        <path d="M0.834080717,32.0611465 C1.50134529,32.2012739 2.23811659,31.2764331 2.50224215,30.0152866 C2.76636771,28.7541401 2.43273543,27.6050955 1.7793722,27.4649682 C1.11210762,27.3248408 0.375336323,28.2496815 0.111210762,29.510828 C-0.152914798,30.7859873 0.166816143,31.9210191 0.834080717,32.0611465 Z" fill="url(#linearGradient-37)"></path>
                        <path d="M19.5174888,28.1796178 C19.5174888,29.889172 20.7130045,30.5898089 22.2004484,29.7210191 C23.6878924,28.8522293 24.8834081,26.7643312 24.8834081,25.0547771 C24.8834081,23.3452229 23.6878924,22.644586 22.2004484,23.5133758 C20.7269058,24.3821656 19.5174888,26.4700637 19.5174888,28.1796178 Z" fill="url(#linearGradient-38)"></path>
                    </g>
                </g>
                <g id="Group" transform="translate(67.000000, 81.000000)" fill-rule="nonzero">
                    <polygon id="Shape" fill="#3C88FA" points="92.862 43.1670732 93.926 41.0213415 97.972 44.3731707 95.69 45.6493902"></polygon>
                    <polygon id="Shape" fill="url(#linearGradient-39)" points="97.972 34.4018293 95.676 35.7341463 95.676 45.6493902 97.972 44.3310976 97.972 45.3969512 57.288 68.929878 57.274 68.9158537 0.028 35.8182927 0.028 23.5890244 40.712 12.2853659 96.978 32.8170732 97.972 33.1817073"></polygon>
                    <polygon id="Shape" fill="url(#linearGradient-40)" points="97.972 34.4018293 95.676 35.7341463 95.676 45.6493902 97.972 44.3310976 97.972 45.3969512 57.288 68.929878 57.274 68.9158537 57.274 56.7006098 57.288 56.7006098 97.972 33.1817073"></polygon>
                    <polygon id="Shape" fill="url(#linearGradient-41)" points="97.972 33.1817073 57.288 56.7006098 0.028 23.5890244 40.712 0.056097561"></polygon>
                    <path d="M51.744,39.9134146 L40.628,45.2987805 C40.628,45.2987805 52.92,55.5646341 60.9,53.404878 C68.894,51.2310976 96.866,33.8128049 96.866,33.8128049 L82.082,25.7487805 L51.744,39.9134146 Z" id="Shape" fill="url(#linearGradient-42)" opacity="0.5"></path>
                    <ellipse id="Oval" fill="#ECECEC" opacity="0.9" transform="translate(43.165373, 55.114660) rotate(-30.311289) translate(-43.165373, -55.114660) " cx="43.1653726" cy="55.1146602" rx="2.54801144" ry="4.41770276"></ellipse>
                    <path d="M45.416,56.420122 C45.416,56.995122 45.248,57.4439024 44.968,57.7103659 C44.856,57.822561 44.73,57.9067073 44.576,57.9487805 C44.184,58.0890244 43.694,58.0189024 43.148,57.7103659 C41.902,56.995122 40.894,55.2420732 40.894,53.8115854 C40.894,52.8018293 41.398,52.2128049 42.14,52.2128049 C42.252,52.2128049 42.364,52.2268293 42.49,52.254878 C42.7,52.2969512 42.924,52.395122 43.162,52.5213415 C44.408,53.2365854 45.416,54.9896341 45.416,56.420122 Z" id="Shape" fill="#8C8C8C" opacity="0.9"></path>
                    <path d="M45.416,56.420122 C45.416,56.995122 45.248,57.4439024 44.968,57.7103659 C44.856,57.822561 44.73,57.9067073 44.576,57.9487805 C44.268,57.9487805 43.918,57.8506098 43.554,57.6402439 C42.308,56.925 41.3,55.1719512 41.3,53.7414634 C41.3,52.9280488 41.622,52.395122 42.14,52.2128049 C42.252,52.2128049 42.364,52.2268293 42.49,52.254878 C42.7,52.2969512 42.924,52.395122 43.162,52.5213415 C44.408,53.2365854 45.416,54.9896341 45.416,56.420122 Z" id="Shape" fill="#313236" opacity="0.9"></path>
                    <path d="M45.416,56.420122 C45.416,56.995122 45.248,57.4439024 44.968,57.7103659 C44.758,57.6682927 44.534,57.570122 44.296,57.4439024 C43.05,56.7286585 42.042,54.9756098 42.042,53.545122 C42.042,52.970122 42.21,52.5213415 42.49,52.254878 C42.7,52.2969512 42.924,52.395122 43.162,52.5213415 C44.408,53.2365854 45.416,54.9896341 45.416,56.420122 Z" id="Shape" fill="#232428" opacity="0.9"></path>
                    <polygon id="Shape" fill="#651CED" points="4.214 28.3853659 23.338 39.4506098 23.338 47.2621951 4.214 36.1969512"></polygon>
                    <polygon id="Shape" fill="#FFFFFF" points="5.782 29.2829268 22.708 39.0719512 22.708 46.8835366 5.782 37.0945122"></polygon>
                    <polygon id="Shape" fill="#651CED" points="6.678 29.8018293 7.952 30.545122 7.952 38.3567073 6.678 37.6134146"></polygon>
                    <polygon id="Shape" fill="url(#linearGradient-43)" points="95.914 35.6219512 95.914 45.5652439 97.972 44.3310976 97.972 44.3731707 58.156 67.3731707 58.156 57.4439024 96.362 35.327439 97.972 34.3878049 97.972 34.4018293"></polygon>
                    <polygon id="Shape" fill="#FFFFFF" points="95.914 35.6219512 95.914 43.4615854 58.156 65.227439 58.156 57.4439024"></polygon>
                </g>
                <g id="Group" transform="translate(69.000000, 82.000000)">
                    <g fill-rule="nonzero" id="Shape">
                        <path d="M87.3089552,23.3891239 C75.2467164,30.4767372 51.7746269,44.1238671 50.9556716,44.6102719 C50.7474627,44.7075529 50.5253731,44.8048338 50.3171642,44.9021148 C46.2501493,46.6392749 42.2108955,46.0277946 37.921791,44.0543807 L0.111044776,22.207855 L38.4631343,0.0416918429 L76.9956716,22.305136 L92.9167164,12.9383686 C92.9167164,13.007855 92.9167164,13.0634441 92.9167164,13.1329305 C92.9583582,18.1637462 91.6119403,20.8459215 87.3089552,23.3891239 Z" fill="#FFFFFF"></path>
                        <path d="M69.0143284,22.9444109 C68.9726866,23.0138973 68.9032836,23.0833837 68.82,23.1250755 L39.4208955,40.1353474 C39.1432836,40.2882175 38.7129851,40.2882175 38.4353731,40.1214502 L22.8058209,31.0882175 C22.6531343,31.0048338 22.5559701,30.865861 22.5559701,30.7268882 C22.5559701,30.5879154 22.6392537,30.4489426 22.7919403,30.3655589 L52.1910448,13.3691843 C52.4686567,13.2163142 52.8989552,13.2163142 53.1765672,13.3691843 L68.8061194,22.4024169 C68.958806,22.4996979 69.0559701,22.6247734 69.0559701,22.7637462 C69.0698507,22.8332326 69.0559701,22.8888218 69.0143284,22.9444109 Z M22.8474627,30.6851964 C22.8335821,30.6990937 22.8335821,30.7129909 22.8335821,30.7268882 C22.8335821,30.7685801 22.8752239,30.8102719 22.9446269,30.8519637 L38.5741791,39.8851964 C38.7685075,39.9963746 39.0877612,39.9963746 39.2820896,39.8851964 L68.681194,22.8888218 C68.750597,22.8471299 68.7922388,22.8054381 68.7922388,22.7637462 C68.7922388,22.7220544 68.750597,22.6803625 68.681194,22.6386707 L53.0516418,13.6054381 C52.8573134,13.4942598 52.5380597,13.4942598 52.3437313,13.6054381 L22.9446269,30.6018127 C22.8891045,30.6296073 22.8613433,30.6574018 22.8474627,30.6851964 Z" fill="#B8C1D8"></path>
                        <path d="M53.1210448,13.4942598 L55.5085075,14.8700906 L25.2626866,32.3528701 L22.8752239,30.9770393 C22.6392537,30.8380665 22.6392537,30.6296073 22.8613433,30.4906344 L52.2604478,13.4942598 C52.5102985,13.355287 52.8850746,13.355287 53.1210448,13.4942598 Z" fill="#8D98B8" opacity="0.5"></path>
                        <polygon fill="#B8C1D8" points="58.0208955 16.5377644 27.9555224 33.9232628 27.8167164 33.6731118 57.8820896 16.3015106"></polygon>
                        <path d="M28.8161194,29.0036254 L25.9428358,30.6712991 C25.8456716,30.7268882 25.6513433,30.7268882 25.5402985,30.6574018 C25.4153731,30.5879154 25.4014925,30.4767372 25.4986567,30.421148 L28.3719403,28.7534743 C28.4691045,28.6978852 28.6634328,28.6978852 28.7744776,28.7673716 C28.899403,28.8507553 28.9132836,28.9480363 28.8161194,29.0036254 Z" fill="#8D98B8"></path>
                        <path d="M33.5910448,26.2519637 L31.5783582,27.4193353 C31.481194,27.4749245 31.3146269,27.4610272 31.2035821,27.4054381 L31.1619403,27.3776435 C31.0508955,27.3081571 31.0370149,27.2108761 31.1341791,27.155287 L33.1468657,25.9879154 C33.2440299,25.9323263 33.410597,25.9462236 33.5216418,26.0018127 L33.5632836,26.0296073 C33.6604478,26.0990937 33.6743284,26.1963746 33.5910448,26.2519637 Z" fill="#8D98B8"></path>
                        <path d="M40.2953731,22.3746224 L36.9362687,24.3202417 C36.8391045,24.3758308 36.6447761,24.3758308 36.5337313,24.3063444 C36.408806,24.236858 36.3949254,24.1256798 36.4920896,24.0700906 L39.851194,22.1244713 C39.9483582,22.0688822 40.1426866,22.0688822 40.2537313,22.1383686 C40.3925373,22.207855 40.4064179,22.3190332 40.2953731,22.3746224 Z" fill="#8D98B8"></path>
                        <path d="M44.2513433,20.0676737 L43.0159701,20.776435 C42.9465672,20.8181269 42.8216418,20.8042296 42.7383582,20.7625378 L42.5995522,20.6791541 C42.5162687,20.6374622 42.5023881,20.5540785 42.571791,20.5123867 L43.8071642,19.8036254 C43.8765672,19.7619335 44.0014925,19.7758308 44.0847761,19.8175227 L44.2235821,19.9009063 C44.3068657,19.9564955 44.3207463,20.0259819 44.2513433,20.0676737 Z" fill="#8D98B8"></path>
                        <path d="M48.290597,17.7329305 L47.0552239,18.4416918 C46.9858209,18.4833837 46.8608955,18.4694864 46.7776119,18.4277946 L46.638806,18.3444109 C46.5555224,18.302719 46.5416418,18.2193353 46.6110448,18.1776435 L47.8464179,17.4688822 C47.9158209,17.4271903 48.0407463,17.4410876 48.1240299,17.4827795 L48.2628358,17.5661631 C48.3461194,17.6217523 48.36,17.6912387 48.290597,17.7329305 Z" fill="#8D98B8"></path>
                        <polygon fill="#B8C1D8" points="60.7414925 18.1081571 30.69 35.4936556 30.5373134 35.2574018 60.6026866 17.8719033"></polygon>
                        <polygon fill="#B8C1D8" points="63.4759701 19.6924471 33.410597 37.0640483 33.2579104 36.8277946 63.3232836 19.4561934"></polygon>
                        <polygon fill="#B8C1D8" points="66.3353731 21.3462236 36.27 38.7178248 36.131194 38.481571 66.1965672 21.1099698"></polygon>
                        <path d="M87.3089552,23.3891239 C75.2467164,30.4767372 51.7746269,44.1238671 50.9556716,44.6102719 C50.7474627,44.7075529 50.5253731,44.8048338 50.3171642,44.9021148 C53.7456716,42.8870091 54.4952239,39.4265861 55.3141791,34.8682779 L92.9167164,13.1329305 C92.9583582,18.1637462 91.6119403,20.8459215 87.3089552,23.3891239 Z" fill="url(#linearGradient-44)"></path>
                    </g>
                    <text id="1040" fill="#7784A6" transform="translate(19.950096, 20.746410) rotate(-45.000256) translate(-19.950096, -20.746410) " font-family="Helvetica" font-size="54.3847" font-weight="normal">
                        <tspan x="11.6048088" y="69.1604081">1</tspan>
                        <tspan x="11.6048088" y="135.160408">0</tspan>
                        <tspan x="11.6048088" y="201.160408">4</tspan>
                        <tspan x="11.6048088" y="267.160408">0</tspan>
                    </text>
                </g>
                <g id="Group" transform="translate(13.000000, 141.000000)">
                    <polygon id="Shape" fill="#CCBCFB" fill-rule="nonzero" points="0.112280702 15.1616505 23.9859649 28.9859223 47.8877193 15.1475728 47.8877193 13.9087379 24.0140351 0.900970874 0.112280702 13.9228155"></polygon>
                    <polygon id="Shape" fill="#FFFFFF" fill-rule="nonzero" points="0.112280702 13.9228155 23.9859649 27.7470874 47.8877193 13.9087379 24.0140351 0.0844660194"></polygon>
                    <polygon id="Shape" fill="#FF4B5E" fill-rule="nonzero" points="30.6385965 3.91359223 24.0140351 0.0844660194 0.112280702 13.9228155 6.73684211 17.7519417"></polygon>
                    <g transform="translate(8.280702, 4.786408)" fill="#FFFFFF" fill-rule="nonzero" id="Oval">
                        <ellipse transform="translate(12.450268, 1.031967) rotate(-0.894104) translate(-12.450268, -1.031967) " cx="12.4502682" cy="1.03196702" rx="1.65617639" ry="1"></ellipse>
                        <ellipse transform="translate(1.671064, 7.268630) rotate(-0.894104) translate(-1.671064, -7.268630) " cx="1.67106421" cy="7.26863049" rx="1.55792864" ry="1"></ellipse>
                    </g>
                    <text id="17" fill="#483C8D" transform="translate(27.733909, 14.623285) rotate(-45.000256) translate(-27.733909, -14.623285) " font-family="Helvetica" font-size="110.3824" font-weight="normal">
                        <tspan x="19.1562646" y="112.332227">1</tspan>
                        <tspan x="19.1562646" y="244.332227">7</tspan>
                    </text>
                </g>
                <g id="Group" transform="translate(66.000000, 144.000000)" fill-rule="nonzero">
                    <path d="M39.7037327,14.0951604 C39.6897644,13.8310499 39.5361139,13.5947405 39.2148445,13.4001328 L25.4421651,5.57412164 L19.1145548,0.403116029 C18.3882066,-0.0139005527 17.1310655,0.0417016581 16.2929714,0.51432045 L1.26315087,9.14656368 C0.802199122,9.41067418 0.578707367,9.758188 0.578707367,10.0779007 L0.564739133,10.0779007 L0.564739133,11.6069615 L0.578707367,13.052619 C0.578707367,13.3167295 0.732357949,13.5530389 1.05362735,13.7476466 L21.1678853,25.2990059 C21.8942335,25.7160225 23.1513746,25.6604203 23.9894687,25.1878015 L39.0192892,16.5555583 C39.4802409,16.2914478 39.7037327,15.9578345 39.7037327,15.6381218 L39.7037327,14.0951604 Z" id="Shape" fill="url(#linearGradient-45)"></path>
                    <path d="M39.0192892,15.0960002 L23.9894687,23.7282435 C23.1513746,24.2147628 21.8942335,24.2564645 21.1678853,23.8394479 L7.91203057,16.221945 L1.06759558,10.8424311 C0.341247378,10.4254145 0.43902502,9.70258579 1.2771191,9.21606645 L16.3069396,0.583823214 C17.1450337,0.097303869 18.4021748,0.0556022108 19.128523,0.472618792 L25.4421651,5.54632053 L39.2148445,13.4696356 C39.9411927,13.8866522 39.8573833,14.6233814 39.0192892,15.0960002 Z" id="Shape" fill="url(#linearGradient-46)"></path>
                    <path d="M22.1875664,5.74092827 L8.38695055,13.6781439 C8.09361762,13.8449505 7.66060235,13.8588511 7.40917412,13.7198455 L3.60981429,10.7312267 C3.35838607,10.5922212 3.38632254,10.3281107 3.67965546,10.161304 L17.4802713,2.22408843 C17.7736042,2.0572818 18.2066195,2.04338125 18.4580477,2.18238678 L22.2574076,5.17100561 C22.5088358,5.32391169 22.4669311,5.57412164 22.1875664,5.74092827 Z" id="Shape" fill="#2E204F"></path>
                    <path d="M15.3012267,15.9856356 L13.708848,16.9030721 C13.415515,17.0698787 12.9545633,17.0976798 12.7031351,16.9447738 L10.9571057,15.943934 C10.7056775,15.7910279 10.733614,15.5408179 11.0269469,15.3601107 L12.6193257,14.4426743 C12.9126586,14.2758676 13.3736103,14.2480665 13.6250386,14.4009726 L15.3710679,15.4018124 C15.6364643,15.568619 15.5945596,15.818829 15.3012267,15.9856356 Z" id="Shape" fill="#FFFFFF"></path>
                    <path d="M19.3380465,13.6781439 L17.7456678,14.5955803 C17.4523349,14.762387 16.9913831,14.7901881 16.7399549,14.637282 L14.9939255,13.6364422 C14.7424973,13.4835361 14.7704338,13.2333262 15.0637667,13.052619 L16.6561455,12.1351825 C16.9494784,11.9683759 17.4104301,11.9405748 17.6618584,12.0934809 L19.4078877,13.0943207 C19.6593159,13.2472267 19.6313795,13.4974367 19.3380465,13.6781439 Z" id="Shape" fill="#FFFFFF"></path>
                    <path d="M23.3748664,11.3567516 L21.7824876,12.274188 C21.4891547,12.4409947 21.0282029,12.4687958 20.7767747,12.3158897 L19.0307454,11.3150499 C18.7793171,11.1621438 18.8072536,10.9119339 19.1005865,10.7312267 L20.6929653,9.81379021 C20.9862982,9.64698358 21.44725,9.61918247 21.6986782,9.77208855 L23.4447075,10.7729283 C23.6961357,10.9258344 23.6681993,11.1899449 23.3748664,11.3567516 Z" id="Shape" fill="#FFFFFF"></path>
                    <path d="M27.3977179,9.03535926 L25.8053392,9.95279574 C25.5120063,10.1196024 25.0510545,10.1474035 24.7996263,9.9944974 L23.053597,8.9936576 C22.8021687,8.84075152 22.8301052,8.59054157 23.1234381,8.40983439 L24.7158169,7.49239791 C25.0091498,7.32559128 25.4701016,7.29779017 25.7215298,7.45069625 L27.4675591,8.45153605 C27.7329556,8.60444213 27.7050191,8.86855263 27.3977179,9.03535926 Z" id="Shape" fill="#FFFFFF"></path>
                    <path d="M19.5336018,18.4321329 L17.9412231,19.3495694 C17.6478901,19.516376 17.1869384,19.5441771 16.9355102,19.391271 L15.1894808,18.3904312 C14.9380526,18.2375252 14.9659891,17.9873152 15.259322,17.806608 L16.8517008,16.8891715 C17.1450337,16.7223649 17.6059854,16.6945638 17.8574137,16.8474699 L19.603443,17.8483097 C19.8688394,18.0012158 19.840903,18.2514257 19.5336018,18.4321329 Z" id="Shape" fill="#FFFFFF"></path>
                    <path d="M23.5704216,16.1107406 L21.9780429,17.0281771 C21.68471,17.1949837 21.2237582,17.2227848 20.97233,17.0698787 L19.2263007,16.0690389 C18.9748724,15.9161329 19.0028089,15.6659229 19.2961418,15.4852157 L20.8885206,14.5677792 C21.1818535,14.4009726 21.6428053,14.3731715 21.8942335,14.5260776 L23.6402628,15.5269174 C23.9056593,15.6798235 23.8637546,15.943934 23.5704216,16.1107406 Z" id="Shape" fill="#FFFFFF"></path>
                    <path d="M27.6072415,13.7893483 L26.0148627,14.7067848 C25.7215298,14.8735914 25.260578,14.9013925 25.0091498,14.7484864 L23.2631205,13.7476466 C23.0116922,13.5947405 23.0396287,13.3445306 23.3329616,13.1638234 L24.9253404,12.2463869 C25.2186733,12.0795803 25.6796251,12.0517792 25.9310533,12.2046853 L27.6770826,13.2055251 C27.9424791,13.3584312 27.9005744,13.6225417 27.6072415,13.7893483 Z" id="Shape" fill="#FFFFFF"></path>
                    <path d="M31.6440613,11.467956 L30.0516825,12.3853925 C29.7583496,12.5521991 29.2973979,12.5800002 29.0459696,12.4270941 L27.2999403,11.4262543 C27.0485121,11.2733482 27.0764485,11.0231383 27.3697815,10.8424311 L28.9621602,9.92499463 C29.2554931,9.758188 29.7164449,9.7303869 29.9678731,9.88329298 L31.7139024,10.8841328 C31.9653307,11.0370389 31.9373942,11.3011494 31.6440613,11.467956 Z" id="Shape" fill="#FFFFFF"></path>
                    <path d="M23.9196275,20.9481329 L22.3272488,21.8655694 C22.0339158,22.032376 21.5729641,22.0601771 21.3215359,21.9072711 L19.5755065,20.9064313 C19.3240783,20.7535252 19.3520148,20.5033152 19.6453477,20.3226081 L21.2377264,19.4051716 C21.5310594,19.2383649 21.9920111,19.2105638 22.2434393,19.3634699 L23.9894687,20.3643097 C24.2548651,20.5172158 24.2129604,20.7674257 23.9196275,20.9481329 Z" id="Shape" fill="#FFFFFF"></path>
                    <path d="M27.9564473,18.6267406 L26.3640686,19.5441771 C26.0707356,19.7109837 25.6097839,19.7387848 25.3583557,19.5858788 L23.6123263,18.585039 C23.3608981,18.4321329 23.3888346,18.1819229 23.6821675,18.0012158 L25.2745463,17.0837793 C25.5678792,16.9169726 26.0288309,16.8891715 26.2802592,17.0420776 L28.0262885,18.0429174 C28.291685,18.1958235 28.2497803,18.459934 27.9564473,18.6267406 Z" id="Shape" fill="#FFFFFF"></path>
                    <path d="M31.9932671,16.3053483 L30.4008884,17.2227848 C30.1075555,17.3895914 29.6466037,17.4173925 29.3951755,17.2644865 L27.6491462,16.2636467 C27.3977179,16.1107406 27.4256544,15.8605306 27.7189873,15.6798235 L29.3113661,14.762387 C29.604699,14.5955803 30.0656508,14.5677792 30.317079,14.7206853 L32.0631083,15.7215251 C32.3145365,15.8744312 32.2866001,16.1385417 31.9932671,16.3053483 Z" id="Shape" fill="#FFFFFF"></path>
                    <path d="M36.0161187,13.9978566 L34.42374,14.9152931 C34.130407,15.0820997 33.6694553,15.1099008 33.4180271,14.9569947 L31.6719977,13.9561549 C31.4205695,13.8032488 31.448506,13.5530389 31.7418389,13.3723317 L33.3342177,12.4548952 C33.6275506,12.2880886 34.0885023,12.2602875 34.3399306,12.4131936 L36.0859599,13.4140334 C36.3513564,13.5669394 36.3234199,13.8171494 36.0161187,13.9978566 Z" id="Shape" fill="#FF4B5E"></path>
                </g>
                <g id="Group" transform="translate(104.000000, 85.000000)">
                    <polygon id="Shape" fill="url(#linearGradient-47)" fill-rule="nonzero" opacity="0.5" points="2.71818182 29.9861751 22.9581818 18.4009217 20.3375758 17.1705069 0.0975757576 28.7557604"></polygon>
                    <g transform="translate(1.254545, 0.000000)" id="Shape">
                        <g fill-rule="nonzero">
                            <path d="M18.8321212,8.98617512 C18.8460606,13.7142857 15.4866667,19.4930876 11.3327273,21.8709677 C8.61454545,23.4331797 6.23090909,23.1428571 4.89272727,21.4423963 C4.19575758,20.5437788 3.79151515,19.2442396 3.77757576,17.6129032 C3.76363636,12.8847926 7.1230303,7.10599078 11.2769697,4.7281106 C13.6745455,3.359447 15.8072727,3.41474654 17.1872727,4.60368664 C18.2187879,5.47465438 18.8321212,6.98156682 18.8321212,8.98617512 Z" fill="#EDA700"></path>
                            <path d="M18.3163636,8.43317972 C18.330303,13.1751152 14.9709091,18.9400922 10.8169697,21.3179724 C8.41939394,22.6866359 6.28666667,22.6313364 4.90666667,21.4423963 C4.20969697,20.5437788 3.80545455,19.2442396 3.79151515,17.6129032 C3.77757576,12.8847926 7.1369697,7.10599078 11.2909091,4.7281106 C13.6884848,3.359447 15.8212121,3.41474654 17.2012121,4.60368664 C17.8981818,5.50230415 18.3163636,6.78801843 18.3163636,8.43317972 Z" fill="#FFB80D"></path>
                            <path d="M16.6436364,4.20276498 L15.110303,3.31797235 C13.7442424,2.52995392 11.8484848,2.640553 9.75757576,3.84331797 L11.2909091,4.7281106 C13.3818182,3.52534562 15.2775758,3.41474654 16.6436364,4.20276498 Z" fill="#FFCC57"></path>
                            <path d="M18.1630303,1.60368664 C18.1630303,1.58986175 18.1630303,1.58986175 18.1630303,1.60368664 C18.1072727,1.57603687 18.0793939,1.5483871 18.0375758,1.53456221 C17.9957576,1.52073733 17.9678788,1.49308756 17.9260606,1.47926267 C17.9260606,1.47926267 17.9260606,1.47926267 17.9121212,1.47926267 C17.8842424,1.46543779 17.8424242,1.4516129 17.8145455,1.42396313 C17.8006061,1.42396313 17.8006061,1.41013825 17.7866667,1.41013825 C17.7448485,1.39631336 17.7030303,1.36866359 17.6751515,1.35483871 C17.6333333,1.34101382 17.5915152,1.31336406 17.549697,1.29953917 C17.5078788,1.28571429 17.4660606,1.2718894 17.4242424,1.25806452 C17.3406061,1.23041475 17.2430303,1.20276498 17.1593939,1.17511521 C17.1315152,1.16129032 17.1036364,1.16129032 17.0757576,1.14746544 C17.0618182,1.14746544 17.0478788,1.13364055 17.02,1.13364055 C16.9781818,1.11981567 16.950303,1.11981567 16.9084848,1.10599078 C16.9084848,1.10599078 16.9084848,1.10599078 16.8945455,1.10599078 C16.8527273,1.0921659 16.8109091,1.0921659 16.7690909,1.07834101 C16.6575758,1.05069124 16.56,1.03686636 16.4484848,1.02304147 C16.4066667,1.00921659 16.3509091,1.00921659 16.3090909,1.00921659 C16.2672727,1.00921659 16.2115152,0.995391705 16.169697,0.995391705 C16.1418182,0.995391705 16.1139394,0.995391705 16.0721212,0.98156682 C16.0581818,0.98156682 16.0442424,0.98156682 16.030303,0.98156682 C16.0024242,0.98156682 15.9606061,0.98156682 15.9327273,0.98156682 C15.9048485,0.98156682 15.8630303,0.98156682 15.8212121,0.98156682 C15.7375758,0.98156682 15.64,0.98156682 15.5424242,0.98156682 C14.9987879,0.98156682 14.4133333,1.06451613 13.8139394,1.23041475 C13.1309091,1.41013825 12.42,1.68663594 11.6812121,2.07373272 C11.5418182,2.14285714 11.4024242,2.22580645 11.2769697,2.29493088 L9.74363636,1.41013825 C9.85515152,1.34101382 9.96666667,1.28571429 10.0781818,1.21658986 C10.8030303,0.829493088 11.5139394,0.539170507 12.1969697,0.359447005 C12.7684848,0.207373272 13.3260606,0.110599078 13.8418182,0.0967741935 C14.8733333,0.0552995392 15.8072727,0.276497696 16.6157576,0.746543779 L18.1630303,1.60368664 Z" fill="#FFB80D"></path>
                            <path d="M4.46060606,21.4976959 L5.99393939,22.3824885 C4.64181818,21.6082949 3.80545455,19.9493088 3.80545455,17.5990783 C3.79151515,12.8709677 7.15090909,7.0921659 11.3048485,4.71428571 L9.77151515,3.82949309 C5.61757576,6.20737327 2.25818182,11.9723502 2.27212121,16.7142857 C2.27212121,19.0645161 3.10848485,20.7235023 4.46060606,21.4976959 Z" fill="#FFCC57"></path>
                            <path d="M16.4484848,1.00921659 C13.9951515,0.622119816 11.2769697,1.86635945 8.85151515,4.00921659 C4.47454545,7.88018433 1.01757576,14.6682028 1.71454545,20.1152074 C1.71454545,20.1152074 1.74242424,20.3364055 1.74242424,20.3502304 C2.43939394,25.5483871 6.83030303,27.0829493 11.6951515,24.0967742 C16.8666667,20.9170507 20.9927273,13.7004608 20.9787879,7.74193548 C20.9787879,3.15207373 18.5951515,1.31336406 16.4484848,1.00921659 Z M11.3466667,21.8571429 C7.19272727,24.235023 3.81939394,22.3271889 3.80545455,17.5852535 C3.79151515,12.7327189 7.34606061,6.69124424 11.7927273,4.43778802 C15.7236364,2.47465438 18.8460606,4.41013825 18.86,8.95852535 C18.8460606,13.7557604 15.4448485,19.5207373 11.3466667,21.8571429 Z" fill="#FFCC57"></path>
                            <path d="M11.2769697,2.26728111 C10.4406061,2.75115207 9.63212121,3.33179724 8.86545455,3.99539171 C8.72606061,4.10599078 8.60060606,4.23041475 8.46121212,4.35483871 C7.83393939,4.93548387 7.23454545,5.55760369 6.6769697,6.23502304 C6.35636364,6.62211982 6.03575758,7.02304147 5.7430303,7.43778802 C5.70121212,7.50691244 5.64545455,7.56221198 5.60363636,7.63133641 C5.54787879,7.70046083 5.50606061,7.76958525 5.45030303,7.85253456 C3.12242424,11.1981567 1.63090909,15.2488479 1.64484848,18.8294931 C1.65878788,21.8571429 2.73212121,23.9861751 4.46060606,24.9815668 L2.92727273,24.0967742 C1.18484848,23.1013825 0.111515152,20.9723502 0.111515152,17.9447005 C0.0975757576,14.3364055 1.6169697,10.2580645 3.97272727,6.89861751 C4.02848485,6.8156682 4.08424242,6.74654378 4.14,6.66359447 C4.18181818,6.59447005 4.22363636,6.53917051 4.27939394,6.47004608 C4.61393939,6.02764977 4.94848485,5.58525346 5.31090909,5.17050691 C5.81272727,4.58986175 6.34242424,4.03686636 6.88606061,3.52534562 C7.02545455,3.40092166 7.16484848,3.26267281 7.31818182,3.13824885 C8.09878788,2.46082949 8.92121212,1.86635945 9.77151515,1.38248848 L11.2769697,2.26728111 Z" fill="#FFB80D"></path>
                            <path d="M4.46060606,24.9815668 L2.92727273,24.0967742 C1.18484848,23.1013825 0.111515152,20.9723502 0.111515152,17.9447005 C0.111515152,17.8064516 0.111515152,17.6682028 0.111515152,17.516129 L1.65878788,18.0276498 C1.64484848,18.2903226 1.63090909,18.5668203 1.63090909,18.8294931 C1.65878788,21.8571429 2.73212121,23.9861751 4.46060606,24.9815668 Z" fill="#EDA700"></path>
                        </g>
                        <g transform="translate(7.666667, 6.497696)" fill-rule="nonzero">
                            <path d="M4.57212121,12.2764977 L3.47090909,11.640553 C3.47090909,11.1013825 3.47090909,10.5483871 3.47090909,9.99539171 L4.57212121,10.6313364 C4.57212121,11.1843318 4.57212121,11.7373272 4.57212121,12.2764977 Z" fill="#EDA700"></path>
                            <path d="M5.06,6.05529954 L6.16121212,6.69124424 C6.30060606,6.77419355 6.38424242,6.94009217 6.38424242,7.20276498 C6.38424242,7.60368664 6.2030303,7.99078341 5.88242424,8.35023041 L4.78121212,7.71428571 C5.08787879,7.35483871 5.2830303,6.98156682 5.2830303,6.56682028 C5.2830303,6.30414747 5.19939394,6.13824885 5.06,6.05529954 Z" fill="#EDA700"></path>
                            <path d="M6.6630303,4.39631336 L7.76424242,5.03225806 C7.5969697,4.93548387 7.36,4.9078341 7.08121212,4.97695853 C7.02545455,4.99078341 6.95575758,5.00460829 6.87212121,5.01843318 L5.77090909,4.38248848 C5.85454545,4.36866359 5.91030303,4.35483871 5.98,4.34101382 C6.25878788,4.28571429 6.49575758,4.29953917 6.6630303,4.39631336 Z" fill="#EDA700"></path>
                            <path d="M2.95515152,13.202765 L1.85393939,12.5668203 C1.85393939,12 1.85393939,11.4608295 1.85393939,10.8801843 L2.95515152,11.516129 C2.95515152,12.0967742 2.95515152,12.6359447 2.95515152,13.202765 Z" fill="#EDA700"></path>
                            <path d="M3.87515152,9.77419355 L2.77393939,9.13824885 C2.91333333,9.06912442 3.03878788,8.98617512 3.17818182,8.91705069 C3.68,8.62672811 4.18181818,8.30875576 4.65575758,7.83870968 C4.69757576,7.79723502 4.73939394,7.74193548 4.79515152,7.70046083 L5.89636364,8.33640553 C5.85454545,8.39170507 5.81272727,8.43317972 5.7569697,8.47465438 C5.26909091,8.94470046 4.78121212,9.26267281 4.27939394,9.55299539 C4.14,9.6359447 4.00060606,9.70506912 3.87515152,9.77419355 Z" fill="#EDA700"></path>
                            <path d="M1.1430303,12.5529954 L0.0418181818,11.9170507 C0.0975757576,11.4608295 0.153333333,11.0322581 0.209090909,10.6036866 L1.31030303,11.2396313 C1.25454545,11.6682028 1.19878788,12.0967742 1.1430303,12.5529954 Z" fill="#EDA700"></path>
                            <path d="M4.64181818,3.15207373 L5.7430303,3.78801843 C5.88242424,3.87096774 5.95212121,4.03686636 5.95212121,4.28571429 C5.95212121,4.65898618 5.78484848,5.00460829 5.50606061,5.33640553 C5.12969697,5.76497696 4.72545455,6 4.32121212,6.24884793 C4.26545455,6.29032258 4.20969697,6.31797235 4.15393939,6.34562212 C4.05636364,6.40092166 3.95878788,6.4562212 3.86121212,6.51152074 L2.76,5.87557604 C2.85757576,5.8202765 2.95515152,5.76497696 3.05272727,5.70967742 C3.10848485,5.68202765 3.16424242,5.640553 3.22,5.61290323 C3.62424242,5.3640553 4.02848485,5.11520737 4.40484848,4.70046083 C4.69757576,4.38248848 4.85090909,4.02304147 4.85090909,3.64976959 C4.85090909,3.38709677 4.78121212,3.22119816 4.64181818,3.15207373 Z" fill="#EDA700"></path>
                            <path d="M6.11939394,1.4516129 L7.22060606,2.0875576 C7.08121212,2.00460829 6.91393939,1.97695853 6.71878788,1.99078341 C6.53757576,2.00460829 6.34242424,2.04608295 6.14727273,2.11520737 C5.91030303,2.1843318 5.68727273,2.28110599 5.43636364,2.37788018 L4.33515152,1.74193548 C4.58606061,1.64516129 4.8230303,1.5483871 5.04606061,1.47926267 C5.24121212,1.42396313 5.43636364,1.36866359 5.61757576,1.35483871 C5.82666667,1.34101382 5.99393939,1.36866359 6.11939394,1.4516129 Z" fill="#EDA700"></path>
                            <path d="M3.80545455,3.26267281 L2.70424242,2.62672811 C2.95515152,2.48847926 3.17818182,2.35023041 3.42909091,2.21198157 L4.53030303,2.84792627 C4.29333333,2.98617512 4.05636364,3.12442396 3.80545455,3.26267281 Z" fill="#EDA700"></path>
                            <path d="M1.05939394,4.86635945 L2.16060606,5.50230415 C2.24424242,5.5437788 2.28606061,5.66820276 2.28606061,5.83410138 C2.28606061,7.29953917 2.3,8.75115207 2.3,10.2165899 C2.3,10.5207373 2.20242424,10.7142857 1.92363636,10.8801843 C1.84,10.9354839 1.77030303,10.9769585 1.68666667,11.0184332 C1.56121212,11.0875576 1.43575758,11.156682 1.29636364,11.2396313 L0.195151515,10.6036866 C0.320606061,10.5345622 0.46,10.4654378 0.585454545,10.3824885 C0.669090909,10.3410138 0.738787879,10.2857143 0.822424242,10.2442396 C1.08727273,10.078341 1.19878788,9.88479263 1.19878788,9.58064516 C1.19878788,8.11520737 1.18484848,6.66359447 1.18484848,5.19815668 C1.19878788,5.03225806 1.1430303,4.92165899 1.05939394,4.86635945 Z" fill="#EDA700"></path>
                            <path d="M4.53030303,1.24423963 L3.42909091,0.608294931 C3.73575758,0.428571429 4.01454545,0.262672811 4.32121212,0.0967741935 L5.42242424,0.732718894 C5.11575758,0.898617512 4.8230303,1.06451613 4.53030303,1.24423963 Z" fill="#EDA700"></path>
                            <path d="M4.53030303,2.84792627 L3.42909091,2.21198157 C3.42909091,1.67281106 3.42909091,1.14746544 3.42909091,0.608294931 L4.53030303,1.24423963 C4.53030303,1.78341014 4.53030303,2.30875576 4.53030303,2.84792627 Z" fill="#EDA700"></path>
                            <path d="M2.92727273,3.82949309 L1.82606061,3.19354839 C1.82606061,2.62672811 1.82606061,2.07373272 1.82606061,1.52073733 L2.92727273,2.15668203 C2.91333333,2.70967742 2.92727273,3.26267281 2.92727273,3.82949309 Z" fill="#EDA700"></path>
                            <path d="M2.91333333,2.15668203 L1.81212121,1.52073733 C2.11878788,1.34101382 2.39757576,1.18894009 2.69030303,1.00921659 L3.79151515,1.64516129 C3.49878788,1.82488479 3.22,1.97695853 2.91333333,2.15668203 Z" fill="#EDA700"></path>
                            <path d="M1.12909091,5.94470046 L0.0278787879,5.30875576 C0.0278787879,4.94930876 0.0278787879,4.58986175 0.0278787879,4.21658986 L1.12909091,4.85253456 C1.12909091,5.22580645 1.12909091,5.58525346 1.12909091,5.94470046 Z" fill="#EDA700"></path>
                            <path d="M8.14060606,5.83410138 C8.22424242,6.88479263 7.90363636,7.99078341 6.94181818,8.93087558 C6.64909091,9.20737327 6.35636364,9.44239631 6.04969697,9.67741935 C5.85454545,9.82949309 5.65939394,9.95391705 5.45030303,10.0921659 C5.45030303,10.6589862 5.45030303,11.2119816 5.45030303,11.764977 C5.14363636,11.9308756 4.86484848,12.0967742 4.55818182,12.2764977 C4.55818182,11.7373272 4.55818182,11.1843318 4.55818182,10.6313364 C4.30727273,10.7695853 4.08424242,10.9078341 3.83333333,11.0460829 C3.83333333,11.5852535 3.83333333,12.1382488 3.83333333,12.6912442 C3.52666667,12.8709677 3.24787879,13.0230415 2.94121212,13.202765 C2.94121212,12.6359447 2.94121212,12.0967742 2.94121212,11.516129 C2.32787879,11.8617512 1.74242424,12.2073733 1.12909091,12.5529954 C1.18484848,12.0967742 1.24060606,11.6682028 1.29636364,11.2396313 C1.42181818,11.1705069 1.56121212,11.1013825 1.68666667,11.0184332 C1.77030303,10.9769585 1.84,10.921659 1.92363636,10.8801843 C2.18848485,10.7142857 2.3,10.5207373 2.3,10.2165899 C2.3,8.75115207 2.28606061,7.29953917 2.28606061,5.83410138 C2.28606061,5.50230415 2.10484848,5.39170507 1.82606061,5.5437788 C1.74242424,5.58525346 1.65878788,5.640553 1.56121212,5.68202765 C1.42181818,5.76497696 1.28242424,5.84792627 1.12909091,5.93087558 C1.12909091,5.57142857 1.12909091,5.21198157 1.12909091,4.83870968 C1.71454545,4.50691244 2.31393939,4.16129032 2.92727273,3.8156682 C2.92727273,3.24884793 2.92727273,2.69585253 2.92727273,2.14285714 C3.23393939,1.96313364 3.51272727,1.81105991 3.80545455,1.63133641 C3.80545455,2.17050691 3.80545455,2.69585253 3.80545455,3.24884793 C4.05636364,3.11059908 4.27939394,2.97235023 4.53030303,2.83410138 C4.53030303,2.29493088 4.53030303,1.76958525 4.53030303,1.23041475 C4.8369697,1.05069124 5.11575758,0.884792627 5.42242424,0.718894009 C5.42242424,1.2718894 5.42242424,1.81105991 5.42242424,2.3640553 C5.67333333,2.26728111 5.91030303,2.17050691 6.13333333,2.10138249 C6.32848485,2.04608295 6.52363636,1.99078341 6.70484848,1.97695853 C7.29030303,1.93548387 7.5830303,2.28110599 7.61090909,2.97235023 C7.63878788,3.62211982 7.44363636,4.25806452 6.92787879,4.9078341 C6.91393939,4.93548387 6.9,4.96313364 6.85818182,5.00460829 C6.94181818,4.99078341 6.99757576,4.97695853 7.06727273,4.96313364 C7.70848485,4.83870968 8.08484848,5.10138249 8.14060606,5.83410138 Z M5.88242424,8.33640553 C6.18909091,7.97695853 6.38424242,7.60368664 6.38424242,7.18894009 C6.38424242,6.77419355 6.18909091,6.59447005 5.86848485,6.62211982 C5.43636364,6.64976959 4.99030303,6.87096774 4.54424242,7.11981567 C4.32121212,7.24423963 4.09818182,7.38248848 3.87515152,7.50691244 C3.87515152,8.26728111 3.87515152,9 3.87515152,9.76036866 C4.01454545,9.69124424 4.14,9.60829493 4.27939394,9.53917051 C4.78121212,9.24884793 5.2830303,8.93087558 5.7569697,8.46082949 C5.79878788,8.43317972 5.84060606,8.39170507 5.88242424,8.33640553 Z M3.84727273,4.46543779 C3.84727273,5.15668203 3.84727273,5.8202765 3.84727273,6.51152074 C3.94484848,6.4562212 4.04242424,6.40092166 4.14,6.34562212 C4.19575758,6.31797235 4.25151515,6.2764977 4.30727273,6.24884793 C4.71151515,6 5.11575758,5.75115207 5.49212121,5.33640553 C5.78484848,5.01843318 5.93818182,4.65898618 5.93818182,4.28571429 C5.93818182,3.89861751 5.78484848,3.71889401 5.47818182,3.73271889 C5.12969697,3.74654378 4.76727273,3.9124424 4.40484848,4.13364055 C4.22363636,4.23041475 4.04242424,4.34101382 3.84727273,4.46543779 Z" fill="#FFCC57"></path>
                            <path d="M1.12909091,4.85253456 L0.0278787879,4.21658986 C0.613333333,3.88479263 1.21272727,3.53917051 1.82606061,3.19354839 L2.92727273,3.82949309 C2.31393939,4.17511521 1.71454545,4.52073733 1.12909091,4.85253456 Z" fill="#EDA700"></path>
                        </g>
                        <g transform="translate(1.533333, 0.829493)" stroke="#FFE3A3" stroke-linecap="round" stroke-width="0.8992">
                            <path d="M1.70060606,10.9631336 C1.63090909,11.1152074 1.56121212,11.281106 1.49151515,11.4331797" stroke-linejoin="round"></path>
                            <path d="M2.74606061,8.88940092 C2.43939394,9.42857143 2.14666667,9.98156682 1.88181818,10.5483871" stroke-linejoin="round"></path>
                            <path d="M3.38688007,7.86635945 C3.3544857,7.91474654 3.32209134,7.96313364 3.28969697,8.01152074"></path>
                            <path d="M6.9,3.56682028 C5.65939394,4.7281106 4.50242424,6.12442396 3.49878788,7.65898618"></path>
                            <path d="M13.9951515,0.110599078 C13.9254545,0.110599078 13.8418182,0.110599078 13.7721212,0.110599078"></path>
                            <path d="M7.57321383,2.98617512 C7.52462228,3.01843318 7.47603073,3.06682028 7.44363636,3.09907834"></path>
                            <path d="M13.0612121,0.179723502 C11.2909091,0.442396313 9.46484848,1.41013825 7.75030303,2.8202765"></path>
                            <path d="M0.947878788,21.9953917 C1.07333333,22.2580645 1.22666667,22.4930876 1.38,22.7142857"></path>
                            <path d="M1.50545455,11.4331797 C0.404242424,14.0599078 -0.125454545,16.8248848 0.181212121,19.2995392 C0.181212121,19.2995392 0.209090909,19.5207373 0.209090909,19.5345622 C0.236969697,19.7834101 0.278787879,20.0322581 0.334545455,20.2672811"></path>
                        </g>
                        <path d="M5.19939394,5.29493088 L6.23090909,5.95852535 C6.46787879,6.11059908 6.52363636,6.42857143 6.34242424,6.64976959 L5.88242424,7.24423963 C5.79878788,7.35483871 5.64545455,7.38248848 5.52,7.29953917 L4.25151515,6.47004608 L5.19939394,5.29493088 Z" fill="#FFFFFF" fill-rule="nonzero" opacity="0.4"></path>
                        <path d="M8.86545455,3.99539171 C8.79575758,4.06451613 8.72606061,4.11981567 8.65636364,4.18894009 C8.54484848,4.28571429 8.37757576,4.31336406 8.25212121,4.24423963 L6.88606061,3.53917051 C7.02545455,3.41474654 7.16484848,3.2764977 7.31818182,3.15207373 L8.86545455,3.99539171 Z" fill="#FFFFFF" fill-rule="nonzero" opacity="0.4"></path>
                        <path d="M15.5563636,0.953917051 C15.0824242,0.953917051 14.5945455,1.02304147 14.0927273,1.13364055 C13.9115152,1.17511521 13.730303,1.14746544 13.5769697,1.06451613 L12.2248485,0.34562212 C12.7963636,0.193548387 13.3539394,0.0967741935 13.869697,0.0829493088 L15.5563636,0.953917051 Z" fill="#FFFFFF" fill-rule="nonzero" opacity="0.4"></path>
                        <path d="M5.50606061,7.76958525 C5.49212121,7.79723502 5.46424242,7.82488479 5.45030303,7.85253456 L3.97272727,6.89861751 C4.02848485,6.8156682 4.08424242,6.74654378 4.14,6.66359447 L5.46424242,7.53456221 C5.53393939,7.58986175 5.56181818,7.70046083 5.50606061,7.76958525 Z" fill="#FFFFFF" fill-rule="nonzero" opacity="0.4"></path>
                    </g>
                    <path d="M9.95272727,10.5345622 C8.53090909,11.1152074 7.88969697,11.8617512 7.48545455,13.0368664 C7.38787879,13.2995392 7.02545455,13.3271889 6.91393939,13.078341 C6.35636364,11.8064516 5.58969697,11.1428571 4.3769697,10.7004608 C4.11212121,10.6036866 4.11212121,10.2442396 4.3769697,10.1336406 C5.64545455,9.59447005 6.18909091,8.83410138 6.70484848,7.5483871 C6.80242424,7.28571429 7.16484848,7.2718894 7.27636364,7.52073733 C7.83393939,8.8202765 8.75393939,9.49769585 9.96666667,9.96774194 C10.2036364,10.0645161 10.2036364,10.437788 9.95272727,10.5345622 Z" id="Shape" fill="#FFFFFF" fill-rule="nonzero"></path>
                    <path d="M9.95272727,4.83870968 C9.39515152,5.07373272 9.14424242,5.3640553 8.9769697,5.8202765 C8.93515152,5.93087558 8.79575758,5.93087558 8.75393939,5.83410138 C8.53090909,5.33640553 8.23818182,5.07373272 7.76424242,4.89400922 C7.66666667,4.85253456 7.66666667,4.71428571 7.76424242,4.67281106 C8.26606061,4.46543779 8.47515152,4.16129032 8.67030303,3.66359447 C8.71212121,3.56682028 8.85151515,3.55299539 8.89333333,3.64976959 C9.11636364,4.16129032 9.47878788,4.42396313 9.95272727,4.60368664 C10.050303,4.65898618 10.050303,4.79723502 9.95272727,4.83870968 Z" id="Shape" fill="#FFFFFF" fill-rule="nonzero"></path>
                </g>
            </g>
        </g>
    </g>
</svg>