<?xml version="1.0" encoding="UTF-8"?>
<svg width="176px" height="224px" viewBox="0 0 176 224" version="1.1" xmlns="http://www.w3.org/2000/svg" xmlns:xlink="http://www.w3.org/1999/xlink">
    <!-- Generator: sketchtool 51.2 (57519) - http://www.bohemiancoding.com/sketch -->
    <title>309281B3-527E-447B-9241-A70AD79A4FF8</title>
    <desc>Created with sketchtool.</desc>
    <defs>
        <polygon id="path-1" points="0.00133780116 0.630017631 163.187316 0.630017631 163.187316 210.001778 0.00133780116 210.001778"></polygon>
        <polygon id="path-3" points="0.20509885 0.965541226 31.6169417 0.965541226 31.6169417 32.2636485 0.20509885 32.2636485"></polygon>
    </defs>
    <g id="Page-1" stroke="none" stroke-width="1" fill="none" fill-rule="evenodd">
        <g id="Landing-page-5" transform="translate(-1288.000000, -5357.000000)">
            <g id="ICO" transform="translate(-1473.000000, 4745.000000)">
                <g id="e-coin2" transform="translate(2761.000000, 611.000000)">
                    <g id="Group-16">
                        <g id="Group-83">
                            <path d="M157.822047,83.1445969 C157.938375,123.325425 129.635363,172.26065 94.6158639,192.451372 C71.6827511,205.669784 51.5579664,203.285847 40.3669552,188.780438 C34.4600659,181.137059 31.0383707,170.120738 31.0007697,156.247682 C30.8856165,116.07272 59.1827535,67.1363222 94.2010774,46.9467731 C114.386964,35.3098309 132.39904,35.7650314 144.060064,45.9366504 C152.634278,53.4028768 157.772695,66.1215067 157.822047,83.1445969" id="Fill-1" fill="#EDA700"></path>
                            <path d="M153.407684,78.4392552 C153.522837,118.625949 125.221,167.561174 90.2015012,187.74603 C70.0332402,199.377107 52.0282145,198.926599 40.3671902,188.779617 C34.4603009,181.137411 31.0374307,170.12109 31.0010047,156.246861 C30.8858515,116.073072 59.1829885,67.1366742 94.2013124,46.9459519 C114.387199,35.3090097 132.399275,35.7653833 144.060299,45.9370023 C149.955438,53.5792083 153.371258,64.5826241 153.407684,78.4392552" id="Fill-3" fill="#FFB80D"></path>
                            <path d="M139.325622,42.5357866 L126.449614,35.0648673 C114.919019,28.3752974 98.9514995,29.3173747 81.3271844,39.4772617 L94.2020174,46.9481809 C111.826333,36.7882939 127.795027,35.8450434 139.325622,42.5357866" id="Fill-5" fill="#FFCC57"></path>
                            <path d="M152.159212,20.4868373 C152.122786,20.4692394 152.09106,20.4504682 152.055809,20.4328702 C151.732675,20.2439855 151.397791,20.06214 151.068781,19.8849872 C150.758573,19.7148736 150.448364,19.550626 150.131105,19.3992836 C150.10643,19.3805124 150.077054,19.3629145 150.045328,19.3500093 C149.759795,19.2045329 149.474262,19.0649224 149.187554,18.9370439 C149.120577,18.8995016 149.052425,18.8701717 148.986624,18.8455345 C148.66349,18.6871529 148.33448,18.5416765 148.006646,18.407932 C147.658837,18.2495504 147.312202,18.104074 146.958517,17.9703295 C146.604832,17.830719 146.252323,17.6899354 145.892763,17.5632301 C145.150142,17.2957412 144.400471,17.0458502 143.640225,16.8205963 C143.384068,16.7419921 143.133786,16.6692539 142.879979,16.6023817 C142.738975,16.5589734 142.597971,16.5167383 142.458142,16.4862351 C142.142058,16.395899 141.825974,16.3161216 141.50284,16.2433833 C141.48404,16.2375174 141.466414,16.2316514 141.441739,16.2316514 C141.100979,16.146008 140.754345,16.0674038 140.406535,15.9934924 C139.524085,15.7999148 138.62166,15.6356672 137.71571,15.5077887 C137.331474,15.4467825 136.948414,15.3928154 136.565353,15.3494071 C136.169367,15.3013061 135.773381,15.253205 135.37152,15.2156627 C135.108313,15.1910255 134.847455,15.1675616 134.579548,15.1487904 C134.476145,15.1370585 134.378617,15.1311925 134.274039,15.1253265 C133.988506,15.1006894 133.695923,15.0819182 133.404515,15.0701862 C133.111932,15.0514151 132.819349,15.0396831 132.520891,15.0338171 C131.760644,15.003314 130.986298,14.997448 130.213126,15.00918 C125.572922,15.0514151 120.689487,15.7260034 115.60512,17.0704873 C109.83336,18.5897776 103.811317,20.9737141 97.6047946,24.2504537 C96.4544376,24.8523038 95.3029055,25.490523 94.1407982,26.1592454 L81.2683152,18.6941921 C82.2236168,18.1404431 83.1800934,17.6113312 84.1295198,17.1009904 C90.2925662,13.7925746 96.289933,11.3675761 102.032318,9.78610642 C106.854652,8.46156687 111.506606,7.72597228 115.940004,7.56172469 C124.671672,7.23909548 132.563192,9.12442325 139.279679,13.0217841 L152.159212,20.4868373 Z" id="Fill-7" fill="#FFB80D"></path>
                            <path d="M36.621656,189.391087 L49.4964891,196.862007 C38.1139475,190.256907 31.0555262,176.212564 30.9991246,156.248269 C30.8851465,116.069787 59.1811084,67.1357356 94.2017824,46.9473597 L81.3269493,39.4776137 C46.3051003,59.6648164 18.0091384,108.598868 18.1242916,148.778523 C18.1806931,168.741645 25.2379394,182.787161 36.621656,189.391087" id="Fill-9" fill="#FFCC57"></path>
                            <g id="Group-13" transform="translate(12.750327, 14.286021)">
                                <mask id="mask-2" fill="white">
                                    <use xlink:href="#path-1"></use>
                                </mask>
                                <g id="Clip-12"></g>
                                <path d="M81.8655371,178.16582 C46.8460382,198.350677 18.360896,182.148824 18.2504429,141.960957 C18.1329396,100.758274 48.0739473,49.4895605 85.5433894,30.4473981 C118.661686,13.7821331 144.961267,30.2526474 145.07172,68.8531789 C145.185698,109.407084 116.49845,158.263704 81.8655371,178.16582 M124.965736,1.2218848 C104.320412,-2.05016196 81.393174,8.49218732 60.8853286,26.7166313 C23.9752021,59.5145299 -5.13388247,117.131413 0.763606549,163.446889 C0.767131647,163.493817 0.991562889,165.368586 1.01153844,165.410821 C6.87142642,209.500742 43.9460575,222.510325 84.9100468,197.164574 C128.54606,170.208024 163.327028,108.929592 163.187199,58.414071 C163.075571,19.3618586 143.08004,3.77124213 124.965736,1.2218848" id="Fill-11" fill="#FFCC57" mask="url(#mask-2)"></path>
                            </g>
                            <path d="M94.1407982,26.1597146 C87.1023525,30.2142839 80.2812878,35.1698685 73.7716067,40.8540085 C72.6388752,41.8453601 71.5131939,42.8543096 70.3992629,43.9008014 C65.1198411,48.7824746 60.0648505,54.1451586 55.3036181,59.8656678 C52.5822424,63.1424073 49.9513442,66.5294274 47.4297241,70.0243816 C47.0337381,70.5781306 46.6389271,71.1318797 46.2488163,71.6844555 C45.8105291,72.2980376 45.3839922,72.9127929 44.9586304,73.532241 C25.3872861,101.918918 12.7944608,136.263091 12.8802382,166.692304 C12.9530902,192.360684 22.0255176,210.417361 36.6581995,218.905442 L23.7857165,211.439215 C9.15303456,202.945268 0.0735570458,184.888592 0.00188005229,159.226078 C-0.0838973333,128.57865 12.6851828,93.9728543 32.4927087,65.4712036 C32.9568466,64.7966152 33.4315598,64.1267197 33.905098,63.4650365 C34.2834585,62.9300586 34.6676942,62.3950807 35.05663,61.8659688 C37.827357,58.0659834 40.7191125,54.3880104 43.7283712,50.8555139 C47.9537887,45.8881973 52.4001123,41.2071408 57.026216,36.8839095 C58.2200492,35.7717186 59.4197576,34.6771257 60.6370914,33.6130359 C67.2266747,27.8432525 74.1382169,22.8031977 81.2683152,18.6934882 L94.1407982,26.1597146 Z" id="Fill-14" fill="#FFB80D"></path>
                            <path d="M36.658317,218.904973 L23.785834,211.438746 C9.15315207,202.945972 0.073674549,184.889295 0.00199755556,159.226782 C-0.00505264052,158.034814 0.0125728497,156.831113 0.0501738954,155.627413 L13.0624858,159.937739 C12.9355823,162.205529 12.8744806,164.461587 12.8803557,166.693008 C12.9532078,192.361388 22.0256351,210.418065 36.658317,218.904973" id="Fill-16" fill="#EDA700"></path>
                            <path d="M26.3286047,106.979152 C25.7422634,108.308384 25.1735476,109.64231 24.6201072,110.978581" id="Stroke-52" stroke="#FFE3A3" stroke-width="0.899" stroke-linecap="round" stroke-linejoin="round"></path>
                            <path d="M35.1447574,89.4362184 C32.5420601,94.0351511 30.1203177,98.7373251 27.901856,103.505198" id="Stroke-54" stroke="#FFE3A3" stroke-width="0.899" stroke-linecap="round" stroke-linejoin="round"></path>
                            <path d="M40.3360518,80.76899 C40.1033953,81.1362007 39.8719139,81.5045846 39.6416075,81.8729685" id="Stroke-56" stroke="#FFE3A3" stroke-width="0.899" stroke-linecap="round"></path>
                            <path d="M70.1352331,44.2498276 C59.6633418,54.1351865 49.9082205,65.9786113 41.5184872,78.9213219" id="Stroke-58" stroke="#FFE3A3" stroke-width="0.899" stroke-linecap="round"></path>
                            <path d="M129.932294,14.9175533 C129.307176,14.9187265 128.680884,14.9328048 128.051066,14.957442" id="Stroke-60" stroke="#FFE3A3" stroke-width="0.899" stroke-linecap="round"></path>
                            <path d="M75.5824496,39.3416401 C75.2593156,39.6196878 74.9350066,39.9000819 74.6130476,40.1816492" id="Stroke-62" stroke="#FFE3A3" stroke-width="0.899" stroke-linecap="round"></path>
                            <path d="M121.99389,15.5357108 C107.089776,17.768305 91.6521965,25.9255445 77.2404207,37.939083" id="Stroke-64" stroke="#FFE3A3" stroke-width="0.899" stroke-linecap="round"></path>
                            <path d="M19.9049361,200.651081 C21.0035916,202.837921 22.2197505,204.879284 23.5463624,206.770478" id="Stroke-66" stroke="#FFE3A3" stroke-width="0.899" stroke-linecap="round"></path>
                            <path d="M24.6199897,110.978816 C15.387758,133.301237 10.8333313,156.681883 13.5135808,177.732558 C13.518281,177.779486 13.7415372,179.654255 13.7626878,179.69649 C14.0458706,181.82819 14.4019055,183.887151 14.8284424,185.8722" id="Stroke-68" stroke="#FFE3A3" stroke-width="0.899" stroke-linecap="round"></path>
                            <path d="M42.9121935,51.8280943 L51.6309359,57.4829044 C53.6085159,58.7663821 54.0656037,61.4612158 52.6238386,63.3242529 L48.7039295,68.3807324 C47.9848095,69.3075581 46.672298,69.5245996 45.6934958,68.8793412 L35.055925,61.8659688 L42.9121935,51.8280943 Z" id="Fill-70" fill="#FFFFFF"></path>
                            <path d="M73.7717242,40.8540085 C73.1642323,41.38664 72.5579155,41.9239643 71.9539487,42.4683277 C71.0092224,43.3224152 69.6309091,43.4972216 68.5028777,42.9059303 L57.0263335,36.8839095 C58.2201667,35.7717186 59.4198751,34.6771257 60.6372089,33.6130359 L73.7717242,40.8540085 Z" id="Fill-72" fill="#FBCD62"></path>
                            <path d="M130.213361,15.0092973 C126.264077,15.0456664 122.137362,15.5395824 117.860243,16.5145092 C116.377352,16.8535632 114.816908,16.6470805 113.476196,15.9279106 L102.032553,9.78622374 C106.854887,8.46168419 111.506841,7.7260896 115.94024,7.56184201 L130.213361,15.0092973 Z" id="Fill-74" fill="#FBCD62"></path>
                            <path d="M45.4148956,72.871731 C45.2621413,73.0911188 45.1093871,73.3116799 44.9578079,73.532241 L32.4930612,65.4712036 C32.9560241,64.7966152 33.4319123,64.1267197 33.9054505,63.4650365 L45.0318349,70.8737763 C45.6957284,71.3160716 45.8696332,72.2159138 45.4148956,72.871731" id="Fill-76" fill="#FFFFFF"></path>
                            <path d="M78.2985376,84.682189 C61.5155459,91.6650583 54.0235375,100.462863 49.1260013,114.400445 C48.0144204,117.564558 43.6397737,117.863723 42.3307873,114.838048 C35.7976056,99.7472132 26.716953,91.7870708 12.4544064,86.5440528 C9.40754664,85.4248228 9.36524546,81.099245 12.4003549,79.795823 C27.4513485,73.3361997 33.8470513,64.374147 39.8350179,49.1448752 C41.0370763,46.0863503 45.30362,45.9127172 46.5820555,48.8797327 C53.2397907,64.3401242 64.0759421,72.3730049 78.3619894,77.9409984 C81.3724231,79.1141955 81.3348221,83.4186557 78.2985376,84.682189" id="Fill-78" fill="#FFFFFF"></path>
                            <g id="Group-82" transform="translate(49.351373, 0.207656)">
                                <mask id="mask-4" fill="white">
                                    <use xlink:href="#path-3"></use>
                                </mask>
                                <g id="Clip-81"></g>
                                <path d="M30.5915058,17.8777642 C23.1088977,20.9902562 19.7682798,24.9134273 17.5850691,31.1278525 C17.0892053,32.5380354 15.1398261,32.6717799 14.5558348,31.3226032 C11.6417538,24.5943177 7.5937662,21.0453965 1.23448933,18.7083878 C-0.125023477,18.2086058 -0.142648967,16.2798698 1.20981365,15.6991372 C7.92042528,12.8189383 10.7722296,8.82302891 13.4419038,2.0337372 C13.9777187,0.669308954 15.8800967,0.591877945 16.4499875,1.91524429 C19.4181201,8.80777734 24.2510295,12.3895481 30.6197066,14.8720332 C31.9627689,15.3952791 31.9451435,17.3146296 30.5915058,17.8777642" id="Fill-80" fill="#FFFFFF" mask="url(#mask-4)"></path>
                            </g>
                        </g>
                    </g>
                    <g id="Group-43" transform="translate(68.000000, 74.000000)" fill-rule="nonzero">
                        <polygon id="Rectangle-10-Copy-4" fill="#EDA700" points="1 23.2798756 16 22 8.5 97 1 92.5476956"></polygon>
                        <polygon id="Rectangle-10-Copy-5" fill="#EDA700" transform="translate(24.500000, 15.000000) rotate(63.000000) translate(-24.500000, -15.000000) " points="21.0847392 -6.25029073 27.1234632 -9 28 34.9928957 21 39"></polygon>
                        <polygon id="Rectangle-10-Copy-6" fill="#EDA700" transform="translate(24.000000, 41.500000) rotate(63.000000) translate(-24.000000, -41.500000) " points="21 18.7174312 25.8020509 17 27 61.3145132 21.7031895 66"></polygon>
                        <polygon id="Rectangle-10-Copy-7" fill="#EDA700" transform="translate(24.500000, 71.500000) rotate(63.000000) translate(-24.500000, -71.500000) " points="21 48.9587255 26.0007354 47 28 88.5235204 21.741011 96"></polygon>
                        <polygon id="Rectangle-10" fill="#FFD167" points="7 26.5890437 22 19 22 88.7102801 7 97"></polygon>
                        <polygon id="Rectangle-10-Copy" fill="#FFD167" transform="translate(30.500000, 47.500000) rotate(60.000000) translate(-30.500000, -47.500000) " points="24.9264456 26 37 32.7782224 35.842894 69 24 64.1964862"></polygon>
                        <polygon id="Rectangle-10-Copy-2" fill="#FFD167" transform="translate(29.500000, 21.000000) rotate(60.000000) translate(-29.500000, -21.000000) " points="25.1637785 -1 36 5.59195745 34.3589891 43 23 42.6858465"></polygon>
                        <polygon id="Rectangle-10-Copy-3" fill="#FFD167" transform="translate(28.500000, 79.500000) rotate(60.000000) translate(-28.500000, -79.500000) " points="22.3806928 54 35 60.8661121 33.9445607 105 22 92.5854193"></polygon>
                    </g>
                </g>
            </g>
        </g>
    </g>
</svg>