<?xml version="1.0" encoding="UTF-8"?>
<svg width="94px" height="120px" viewBox="0 0 94 120" version="1.1" xmlns="http://www.w3.org/2000/svg" xmlns:xlink="http://www.w3.org/1999/xlink">
    <!-- Generator: sketchtool 51.2 (57519) - http://www.bohemiancoding.com/sketch -->
    <title>BA6CB6A9-02EC-4DC2-8109-AEF309F12051</title>
    <desc>Created with sketchtool.</desc>
    <defs>
        <polygon id="path-1" points="0.000710470673 0.334522636 86.6644505 0.334522636 86.6644505 111.505369 0.000710470673 111.505369"></polygon>
        <polygon id="path-3" points="0.108922553 0.512676757 16.7909182 0.512676757 16.7909182 17.1311408 0.108922553 17.1311408"></polygon>
    </defs>
    <g id="Page-1" stroke="none" stroke-width="1" fill="none" fill-rule="evenodd">
        <g id="Landing-page-5" transform="translate(-1174.000000, -5263.000000)">
            <g id="ICO" transform="translate(-1473.000000, 4745.000000)">
                <g id="e-coin1" transform="translate(2694.000000, 578.000000) scale(1, -1) translate(-2694.000000, -578.000000) translate(2647.000000, 518.000000)">
                    <g id="Group-16-Copy">
                        <g id="Group-83">
                            <path d="M83.8150983,44.1475736 C83.8768771,65.4825265 68.8458989,91.4658317 50.2479729,102.186569 C38.0688057,109.205195 27.3810669,107.939388 21.437818,100.237401 C18.300826,96.1789695 16.4836545,90.3295955 16.4636856,82.9633712 C16.4025308,61.6315329 31.4303889,35.6476047 50.0276908,24.9274901 C60.7478791,18.7485828 70.3136143,18.9902821 76.5064747,24.3911418 C81.0600118,28.3555098 83.7888891,35.1087646 83.8150983,44.1475736" id="Fill-1" fill="#EDA700"></path>
                            <path d="M81.4707475,41.6491621 C81.5319023,62.9872297 66.5015481,88.9705349 47.9036221,99.6881578 C37.1927943,105.86395 27.6308032,105.624743 21.4379428,100.236965 C18.3009508,96.1791563 16.4831553,90.3297824 16.4638104,82.9629351 C16.4026556,61.6317198 31.4305137,35.6477916 50.0278156,24.9270541 C60.7480039,18.7481467 70.3137391,18.990469 76.5065995,24.3913287 C79.6373513,28.4491372 81.4514026,34.2916588 81.4707475,41.6491621" id="Fill-3" fill="#FFB80D"></path>
                            <path d="M73.9921384,22.5853734 L67.1540324,18.6185136 C61.0304393,15.0665296 52.5505139,15.5667476 43.1907081,20.9613779 L50.02819,24.9282377 C59.3879958,19.5336074 67.8685453,19.0327664 73.9921384,22.5853734" id="Fill-5" fill="#FFCC57"></path>
                            <path d="M80.807717,10.8779667 C80.7883721,10.8686227 80.7715233,10.8586557 80.7528025,10.8493116 C80.5811946,10.7490189 80.4033464,10.6524637 80.2286184,10.5584003 C80.0638749,10.4680745 79.8991313,10.3808634 79.7306436,10.3005046 C79.717539,10.2905376 79.7019382,10.2811935 79.6850895,10.2743412 C79.5334505,10.1970971 79.3818115,10.1229676 79.2295485,10.0550676 C79.1939789,10.0351336 79.1577852,10.0195602 79.1228396,10.0064785 C78.9512318,9.92238209 78.7765037,9.84513796 78.6023997,9.7741232 C78.4176873,9.69002677 78.2335988,9.61278264 78.0457662,9.54176787 C77.8579336,9.46763843 77.670725,9.39288604 77.4797722,9.3256089 C77.0853861,9.18357937 76.6872558,9.05089389 76.2835093,8.93129008 C76.147471,8.88955334 76.0145529,8.85093127 75.8797627,8.81542389 C75.8048793,8.79237524 75.7299958,8.76994952 75.6557364,8.75375317 C75.4878727,8.70578706 75.320009,8.66342738 75.1484011,8.62480531 C75.1384167,8.62169063 75.1290563,8.61857595 75.1159516,8.61857595 C74.9349833,8.57310158 74.7508949,8.53136484 74.5661824,8.49211983 C74.0975369,8.38933531 73.6182829,8.3021242 73.1371568,8.23422412 C72.9330994,8.20183142 72.7296661,8.17317634 72.5262327,8.15012768 C72.3159351,8.12458729 72.1056374,8.09904689 71.8922196,8.07911292 C71.7524372,8.06603125 71.6139028,8.05357252 71.4716243,8.04360554 C71.4167098,8.03737617 71.3649154,8.03426149 71.3093769,8.03114681 C71.1577379,8.01806514 71.0023548,8.00809816 70.8475957,8.00186879 C70.6922125,7.99190181 70.5368294,7.98567244 70.3783261,7.98255776 C69.9745796,7.96636141 69.5633447,7.96324673 69.1527338,7.96947609 C66.6884447,7.99190181 64.0949816,8.35009031 61.3948096,9.06397556 C58.3295808,9.87067836 55.131434,11.1364854 51.8353146,12.8763471 C51.2243906,13.1959135 50.6128425,13.534791 49.9956782,13.8898648 L43.1594442,9.92611971 C43.6667795,9.63209367 44.1747389,9.3511493 44.678954,9.08017191 C47.9519843,7.32349092 51.1370266,6.03588113 54.1866546,5.1961627 C56.7476682,4.49286737 59.2181976,4.10228617 61.5726578,4.01507506 C66.2098147,3.84376751 70.4007911,4.8448265 73.9677389,6.91422163 L80.807717,10.8779667 Z" id="Fill-7" fill="#FFB80D"></path>
                            <path d="M19.4487891,100.561639 L26.286271,104.528499 C20.2413055,101.021367 16.4927653,93.5641934 16.462812,82.9636826 C16.4022812,61.6299756 31.4295152,35.6472933 50.0280652,24.9278016 L43.1905833,20.9615648 C24.5914092,31.6804335 9.56417518,57.6631158 9.62532999,78.9974458 C9.65528336,89.5973336 13.4031995,97.0551297 19.4487891,100.561639" id="Fill-9" fill="#FFCC57"></path>
                            <g id="Group-13" transform="translate(6.771360, 7.585498)">
                                <mask id="mask-2" fill="white">
                                    <use xlink:href="#path-1"></use>
                                </mask>
                                <g id="Clip-12"></g>
                                <path d="M43.4766129,94.6013204 C24.8786869,105.318943 9.7509843,96.7161899 9.6923256,75.3774994 C9.62992274,53.4999687 25.5307969,26.2776428 45.4298226,16.1667601 C63.0180703,7.31794679 76.9850796,16.0633526 77.0437383,36.55921 C77.1042691,58.0922568 61.8692335,84.0338253 43.4766129,94.6013204 M66.365984,0.648788387 C55.4018005,-1.08858157 43.2257534,4.50912601 32.3345813,14.1858219 C12.7325932,31.6006353 -2.72646866,62.1936708 0.405531162,86.7859588 C0.407403248,86.8108763 0.526592721,87.8063288 0.537201208,87.8287546 C3.64923211,111.239332 23.3385842,118.147075 45.0934712,104.689154 C68.2673993,90.375942 86.7386475,57.8387216 86.6643881,31.0163209 C86.6051054,10.2806329 75.9860097,2.00242945 66.365984,0.648788387" id="Fill-11" fill="#FFCC57" mask="url(#mask-2)"></path>
                            </g>
                            <path d="M49.9956782,13.890114 C46.2577465,16.0429826 42.6352602,18.6742665 39.1781414,21.6923939 C38.5765778,22.2187753 37.9787583,22.7545007 37.3871792,23.31016 C34.5834184,25.9021989 31.8988472,28.7496418 29.3702831,31.7870802 C27.9250327,33.5269419 26.5278325,35.3253597 25.188667,37.1810876 C24.9783694,37.4751136 24.7686958,37.7691396 24.5615182,38.0625427 C24.3287556,38.3883385 24.1022332,38.7147573 23.8763348,39.0436678 C13.4825135,54.1162398 6.79479841,72.3520836 6.8403525,88.5091881 C6.87904228,102.138416 11.6971675,111.726032 19.4681964,116.232978 L12.6319624,112.26861 C4.86093361,107.75855 0.0390641938,98.1709336 0.000998445848,84.5448201 C-0.044555646,68.2718494 6.73676375,49.8970908 17.2560148,34.7634709 C17.5025061,34.4052824 17.7546137,34.0495857 18.0060972,33.6982495 C18.2070344,33.4141904 18.4110918,33.1301314 18.6176453,32.849187 C20.0891049,30.8314956 21.6248394,28.8785896 23.2229768,27.0029277 C25.4669838,24.3654145 27.8283082,21.8798978 30.2851091,19.5843767 C30.9191222,18.9938329 31.5562554,18.4126331 32.2027491,17.8476297 C35.7023018,14.7840279 39.3728384,12.1078926 43.1594442,9.92574595 L49.9956782,13.890114 Z" id="Fill-14" fill="#FFB80D"></path>
                            <path d="M19.4682588,116.232729 L12.6320249,112.268361 C4.86099601,107.758923 0.0391265967,98.1713073 0.00106084871,84.5451939 C-0.00268332322,83.9122904 0.00667710661,83.2731575 0.0266460236,82.6340246 L6.93713935,84.9226934 C6.86974425,86.1268297 6.83729476,87.3247366 6.84041491,88.5095619 C6.87910468,102.13879 11.6972299,111.726406 19.4682588,116.232729" id="Fill-16" fill="#EDA700"></path>
                            <path d="M13.9824229,56.8030896 C13.6710326,57.5088767 13.3690027,58.2171555 13.0750852,58.9266802" id="Stroke-52" stroke="#FFE3A3" stroke-width="0.899" stroke-linecap="round" stroke-linejoin="round"></path>
                            <path d="M18.6644475,47.4882575 C17.282224,49.9301687 15.9961009,52.4268983 14.8179348,54.9585123" id="Stroke-54" stroke="#FFE3A3" stroke-width="0.899" stroke-linecap="round" stroke-linejoin="round"></path>
                            <path d="M21.421406,42.8861894 C21.2978484,43.0811685 21.1749147,43.2767706 21.0526051,43.4723727" id="Stroke-56" stroke="#FFE3A3" stroke-width="0.899" stroke-linecap="round"></path>
                            <path d="M37.2469599,23.4954837 C31.6856166,28.7443468 26.5049307,35.032891 22.0493661,41.9051267" id="Stroke-58" stroke="#FFE3A3" stroke-width="0.899" stroke-linecap="round"></path>
                            <path d="M69.003591,7.92082475 C68.6716077,7.92144769 68.3390005,7.92892293 68.0045211,7.94200459" id="Stroke-60" stroke="#FFE3A3" stroke-width="0.899" stroke-linecap="round"></path>
                            <path d="M40.139832,20.8893664 C39.9682241,21.0370024 39.7959922,21.1858842 39.6250083,21.335389" id="Stroke-62" stroke="#FFE3A3" stroke-width="0.899" stroke-linecap="round"></path>
                            <path d="M64.7877158,8.24905 C56.8725363,9.4344982 48.6740479,13.7657758 41.0203364,20.1446458" id="Stroke-64" stroke="#FFE3A3" stroke-width="0.899" stroke-linecap="round"></path>
                            <path d="M10.570983,106.540397 C11.1544498,107.701551 11.8003195,108.78546 12.5048478,109.789634" id="Stroke-66" stroke="#FFE3A3" stroke-width="0.899" stroke-linecap="round"></path>
                            <path d="M13.0750228,58.9268048 C8.17202965,70.779418 5.75329459,83.19392 7.17670395,94.37127 C7.17920006,94.3961874 7.29776551,95.39164 7.30899802,95.4140657 C7.45938893,96.5459414 7.64846961,97.639195 7.87499201,98.6932036" id="Stroke-68" stroke="#FFE3A3" stroke-width="0.899" stroke-linecap="round"></path>
                            <path d="M22.7895265,27.5193421 L27.4198191,30.5218962 C28.4700593,31.2033887 28.7128065,32.6342739 27.9471233,33.6234971 L25.8653637,36.3083535 C25.4834582,36.8004734 24.7864182,36.9157166 24.2666023,36.5731015 L18.6172709,32.849187 L22.7895265,27.5193421 Z" id="Fill-70" fill="#FFFFFF"></path>
                            <path d="M39.1782038,21.6923939 C38.855581,21.9752071 38.5335822,22.260512 38.2128315,22.5495546 C37.7111125,23.0030523 36.9791268,23.0958699 36.3800593,22.7819099 L30.2851715,19.5843767 C30.9191846,18.9938329 31.5563178,18.4126331 32.2028115,17.8476297 L39.1782038,21.6923939 Z" id="Fill-72" fill="#FBCD62"></path>
                            <path d="M69.1528586,7.96953839 C67.0554983,7.98884942 64.8639097,8.25110569 62.5924454,8.76876594 C61.8049212,8.9487946 60.9762112,8.83915777 60.2641945,8.45729768 L54.1867794,5.19622499 C56.747793,4.49292966 59.2183224,4.10234846 61.5727826,4.01513735 L69.1528586,7.96953839 Z" id="Fill-74" fill="#FBCD62"></path>
                            <path d="M24.1186451,38.6929545 C24.0375214,38.8094436 23.9563977,38.9265557 23.875898,39.0436678 L17.256202,34.7634709 C17.5020693,34.4052824 17.7548009,34.0495857 18.0062844,33.6982495 L23.9152118,37.6320936 C24.267788,37.8669407 24.3601442,38.344733 24.1186451,38.6929545" id="Fill-76" fill="#FFFFFF"></path>
                            <path d="M41.5822742,44.9639942 C32.6692729,48.6717123 28.6904662,53.3431133 26.0895148,60.7435992 C25.4991837,62.423659 23.175925,62.5825078 22.4807571,60.9759545 C19.0111578,52.963122 14.1886643,48.7364977 6.61420452,45.9525944 C4.99609822,45.358313 4.97363318,43.061546 6.5854992,42.3694636 C14.5786822,38.9395751 17.9752702,34.180963 21.1553202,26.094624 C21.7937015,24.4706285 24.0595496,24.3784339 24.7384928,25.9538403 C28.2742391,34.1628978 34.0290314,38.4281442 41.6159718,41.3846009 C43.2147332,42.0075374 43.1947643,44.2930915 41.5822742,44.9639942" id="Fill-78" fill="#FFFFFF"></path>
                            <g id="Group-82" transform="translate(26.209204, 0.110260)">
                                <mask id="mask-4" fill="white">
                                    <use xlink:href="#path-3"></use>
                                </mask>
                                <g id="Clip-81"></g>
                                <path d="M16.2463364,9.49261818 C12.2725219,11.1452688 10.4984085,13.2283685 9.33896324,16.5280633 C9.07562314,17.276833 8.04035961,17.3478477 7.73021736,16.6314707 C6.1826263,13.0589298 4.03284758,11.1745468 0.655604505,9.93365724 C-0.0663966489,9.66828628 -0.0757570787,8.64417864 0.642499903,8.33582506 C4.20632755,6.8065159 5.7208451,4.68479411 7.1386382,1.07986046 C7.42319527,0.355385285 8.43349766,0.314271475 8.73615156,1.01694387 C10.3124479,4.67669593 12.8790778,6.57852113 16.2613131,7.89665481 C16.9745779,8.1744845 16.9652174,9.19360865 16.2463364,9.49261818" id="Fill-80" fill="#FFFFFF" mask="url(#mask-4)"></path>
                            </g>
                        </g>
                    </g>
                    <g id="Group-43-Copy" transform="translate(36.000000, 39.000000)" fill-rule="nonzero">
                        <polygon id="Rectangle-10-Copy-4" fill="#EDA700" points="0.537037037 12.352587 8.59259259 11.6734694 4.56481481 51.4693878 0.537037037 49.1069405"></polygon>
                        <polygon id="Rectangle-10-Copy-5" fill="#EDA700" transform="translate(13.157407, 7.959184) rotate(63.000000) translate(-13.157407, -7.959184) " points="11.3232859 -3.3164808 14.5663043 -4.7755102 15.037037 18.5676589 11.2777778 20.6938776"></polygon>
                        <polygon id="Rectangle-10-Copy-6" fill="#EDA700" transform="translate(12.888889, 22.020408) rotate(63.000000) translate(-12.888889, -22.020408) " points="11.2777778 9.93169821 13.8566569 9.02040816 14.5 32.5342315 11.6554166 35.0204082"></polygon>
                        <polygon id="Rectangle-10-Copy-7" fill="#EDA700" transform="translate(13.157407, 37.938776) rotate(63.000000) translate(-13.157407, -37.938776) " points="11.2777778 25.9780993 13.9633579 24.9387755 15.037037 46.9716639 11.6757281 50.9387755"></polygon>
                        <polygon id="Rectangle-10" fill="#FFD167" points="3.75925926 14.1084722 11.8148148 10.0816327 11.8148148 47.0707609 3.75925926 51.4693878"></polygon>
                        <polygon id="Rectangle-10-Copy" fill="#FFD167" transform="translate(16.379630, 25.204082) rotate(60.000000) translate(-16.379630, -25.204082) " points="13.3864245 13.7959184 19.8703704 17.3925262 19.2489616 36.6122449 12.8888889 34.0634417"></polygon>
                        <polygon id="Rectangle-10-Copy-2" fill="#FFD167" transform="translate(15.842593, 11.142857) rotate(60.000000) translate(-15.842593, -11.142857) " points="13.513881 -0.530612245 19.3333333 2.9671611 18.4520497 22.8163265 12.3518519 22.6496328"></polygon>
                        <polygon id="Rectangle-10-Copy-3" fill="#FFD167" transform="translate(15.305556, 42.183673) rotate(60.000000) translate(-15.305556, -42.183673) " points="12.019261 28.6530612 18.7962963 32.2963044 18.2294863 55.7142857 11.8148148 49.1269572"></polygon>
                    </g>
                </g>
            </g>
        </g>
    </g>
</svg>