<?xml version="1.0" encoding="UTF-8"?>
<svg width="472px" height="356px" viewBox="0 0 472 356" version="1.1" xmlns="http://www.w3.org/2000/svg" xmlns:xlink="http://www.w3.org/1999/xlink">
    <!-- Generator: sketchtool 51.2 (57519) - http://www.bohemiancoding.com/sketch -->
    <title>287AC153-AAC6-4EA8-BF74-E4E5791A1481</title>
    <desc>Created with sketchtool.</desc>
    <defs>
        <polygon id="path-1" points="0.206788952 0.247290473 11.2693969 0.247290473 11.2693969 13.199283 0.206788952 13.199283"></polygon>
        <filter x="-88.4%" y="-148.0%" width="276.8%" height="396.0%" filterUnits="objectBoundingBox" id="filter-3">
            <feGaussianBlur stdDeviation="15" in="SourceGraphic"></feGaussianBlur>
        </filter>
        <polygon id="path-4" points="0 0.149148214 50.9061543 0.149148214 50.9061543 30.5588885 0 30.5588885"></polygon>
        <polygon id="path-6" points="0.150188392 0.392238142 17.8741342 0.392238142 17.8741342 23.3787866 0.150188392 23.3787866"></polygon>
        <polygon id="path-8" points="0.522274142 0.457819258 84.2230964 0.457819258 84.2230964 65.8946761 0.522274142 65.8946761"></polygon>
        <polygon id="path-10" points="0.233523995 0.00706800525 23.6671997 0.00706800525 23.6671997 14.684977 0.233523995 14.684977"></polygon>
        <path d="M0.108743669,106.020234 C26.1759626,141.068784 69.7677788,170.804463 124.573264,191.634823 L124.573264,85.8805133 C69.7677788,65.050153 26.1759626,35.3133509 0.108743669,0.264801281 L0.108743669,106.020234 Z" id="path-12"></path>
        <path d="M0.0838363735,0 L0.0838363735,105.755433 C26.1510553,140.803982 69.7428715,170.539662 124.548357,191.370022 L124.548357,85.615712 C69.7428715,64.7853517 26.1510553,35.0485496 0.0838363735,0" id="path-14"></path>
        <path d="M0.207531461,0.273644836 L0.207531461,94.7677238 C35.1880066,101.786418 72.7854552,105.61694 111.949934,105.61694 C130.908628,105.61694 149.494434,104.707317 167.601458,102.989141 L167.601458,8.49393907 C149.494434,10.2132383 130.908628,11.121738 111.949934,11.121738 C72.7854552,11.121738 35.1880066,7.29346167 0.207531461,0.273644836 Z" id="path-16"></path>
        <filter x="-134.0%" y="-230.5%" width="368.1%" height="561.1%" filterUnits="objectBoundingBox" id="filter-18">
            <feGaussianBlur stdDeviation="15" in="SourceGraphic"></feGaussianBlur>
        </filter>
        <polygon id="path-19" points="0 0.0957380214 33.5695181 0.0957380214 33.5695181 19.615706 0 19.615706"></polygon>
        <filter x="-95.4%" y="-164.1%" width="290.8%" height="428.1%" filterUnits="objectBoundingBox" id="filter-21">
            <feGaussianBlur stdDeviation="15" in="SourceGraphic"></feGaussianBlur>
        </filter>
        <polygon id="path-22" points="0 0.134517299 47.1670588 0.134517299 47.1670588 27.561169 0 27.561169"></polygon>
        <filter x="-134.0%" y="-230.5%" width="368.1%" height="561.1%" filterUnits="objectBoundingBox" id="filter-24">
            <feGaussianBlur stdDeviation="15" in="SourceGraphic"></feGaussianBlur>
        </filter>
        <polygon id="path-25" points="0 0.0957380214 33.5695181 0.0957380214 33.5695181 19.615706 0 19.615706"></polygon>
        <filter x="-95.4%" y="-164.1%" width="290.8%" height="428.1%" filterUnits="objectBoundingBox" id="filter-27">
            <feGaussianBlur stdDeviation="15" in="SourceGraphic"></feGaussianBlur>
        </filter>
        <polygon id="path-28" points="0 0.134517299 47.1670588 0.134517299 47.1670588 27.561169 0 27.561169"></polygon>
    </defs>
    <g id="Page-1" stroke="none" stroke-width="1" fill="none" fill-rule="evenodd">
        <g id="Landing-page-5" transform="translate(-111.000000, -5784.000000)">
            <g id="benefits" transform="translate(111.000000, 5617.000000)">
                <g id="Group-37">
                    <g id="investing-graphic" transform="translate(0.000000, 185.000000)">
                        <g id="Page-1" transform="translate(288.000000, 96.000000)">
                            <polygon id="Fill-1" fill="#FFFFFF" points="0 82.4490175 19.4461049 93.1553045 42.019651 86.0814256 35.9607399 70.4043807 14.4619006 67.918874"></polygon>
                            <polygon id="Fill-2" fill="#916867" points="5.3744224 82.4490686 19.1525137 90.4786561 38.7945899 85.0301717 34.6904276 73.5588578 16.2213051 71.8381224"></polygon>
                            <polygon id="Fill-3" fill="#B1AEB9" points="5.3744224 82.4490686 3.2247475 81.158517 14.7554395 70.4044318 34.2995301 71.8381224 34.6904276 73.5588578 16.2213051 71.8381224"></polygon>
                            <polygon id="Fill-4" fill="#DDE0E6" points="6.44918146 106.538163 19.4460004 113.994428 19.4460004 93.1554323 -0.000104518045 82.4491453"></polygon>
                            <polygon id="Fill-5" fill="#D5D6E0" points="19.4460788 93.1553045 19.4460788 113.9943 38.7944593 108.354623 42.0196248 86.0814256"></polygon>
                            <g id="Group-51" transform="translate(5.487197, 0.249982)">
                                <g id="Group-8" transform="translate(30.048938, 54.188341)">
                                    <mask id="mask-2" fill="white">
                                        <use xlink:href="#path-1"></use>
                                    </mask>
                                    <g id="Clip-7"></g>
                                    <path d="M10.7641567,1.8391574 C11.6400179,3.30888834 11.2642755,5.28727399 10.495284,6.75726054 C9.13576555,9.52316637 6.25472563,11.6932561 3.33814958,13.199283 C4.8931168,9.13796906 3.85525261,3.99212152 0.206788952,2.10166413 C2.08523952,1.31439955 4.05462078,0.753601345 5.96808489,0.49160583 C7.98946389,0.228843498 9.74406057,-0.261918834 10.7641567,1.8391574" id="Fill-6" fill="#5EBB53" mask="url(#mask-2)"></path>
                                </g>
                                <path d="M32.5098153,30.0695704 C35.3895488,27.2341399 40.8129901,25.0290323 40.0429534,31.2949426 C39.6669498,34.7428036 37.7866701,38.3136108 36.1407722,41.37653 C35.3717807,42.8996825 34.5144714,44.1076735 33.512666,45.1045345 L33.4933301,45.087409 C33.4933301,44.0373821 33.0462542,33.4131444 30.629797,32.1353731 C31.2569053,31.3649785 31.8840135,30.6646197 32.5098153,30.0695704" id="Fill-9" fill="#5EBB53"></path>
                                <path d="M30.2556485,56.2901072 C33.9041122,58.1805646 34.9422377,63.3261565 33.3870092,67.387726 C32.5270869,67.8419368 31.6872845,68.2455377 30.8639436,68.5773135 C26.3362218,70.4169054 22.1865942,70.5380623 17.5329282,70.4169054 L17.4265811,70.397735 C17.8002331,68.594439 18.3212556,66.7758067 18.9470573,64.8490534 L19.2859571,64.9543628 C20.2166903,62.2937664 23.7585456,59.7732417 25.8345352,58.477578 C27.1940537,57.6374031 28.698591,56.8856677 30.2556485,56.2901072" id="Fill-11" fill="#77C269"></path>
                                <path d="M33.4932518,45.0873834 L33.5125876,45.104509 C31.5800489,47.0652578 29.2001731,48.2379753 26.2122634,49.3766973 C25.46104,49.7440022 24.8331478,50.1113072 24.2065622,50.4957377 L23.7236888,50.3738139 C24.6363926,47.0483879 25.3701093,43.7577242 25.9086385,40.4146614 L25.9086385,40.3793879 C26.7291052,37.7008991 28.6271529,34.5855807 30.6297186,32.1353475 C33.0461758,33.4131188 33.4932518,44.0376121 33.4932518,45.0873834" id="Fill-13" fill="#77C269"></path>
                                <path d="M31.3829802,10.6757677 C31.6497625,15.6820547 29.467687,19.8297632 27.1766514,24.6083058 C27.159406,26.8491982 27.0880724,29.0192879 26.9634346,31.1374897 C26.0324401,31.5574493 25.1011844,31.9768978 24.1712351,32.4328978 C24.3494383,30.2620413 24.4581371,28.0390413 24.4928893,25.7467722 L24.4928893,25.6936063 C24.5657907,25.1512117 24.5469774,24.5911803 24.5101348,24.04853 L24.5101348,24.0316601 C24.1712351,20.7404852 21.9891596,17.5024762 21.1485732,14.1241399 C22.8469914,10.2031534 29.1635395,7.59572287 31.3829802,10.6757677" id="Fill-15" fill="#5EBB53"></path>
                                <path d="M30.6123686,6.31774709 C31.0962872,7.85776951 31.345824,9.29273812 31.3829279,10.6758188 C29.1634872,7.59577399 22.8469392,10.2032045 21.1485209,14.124191 C20.931646,13.2840161 20.8077921,12.4440969 20.8077921,11.603922 C20.8077921,8.29536592 22.4361832,3.8672583 24.5837678,1.15426278 C25.9432863,-0.578486099 27.1768605,-0.140889686 28.1794498,1.0837157 C29.3610263,2.48468879 30.2188582,4.88226726 30.6123686,6.31774709" id="Fill-17" fill="#52A348"></path>
                                <path d="M30.6123686,73.4967969 C31.0962872,74.2147924 31.0594446,74.9667834 30.6492112,75.71903 C29.6999261,77.5031556 26.729262,79.2532857 23.7784562,80.2010704 C24.0104863,78.0982049 23.9198169,75.2985592 22.8469392,73.8454426 C26.1039827,72.6558552 29.6824193,72.1305861 30.6123686,73.4967969" id="Fill-19" fill="#5EBB53"></path>
                                <path d="M26.9634346,31.1374386 C26.7470823,34.323304 26.4081825,37.3864789 25.9085863,40.3793623 L25.9085863,40.4146359 C25.370057,43.7576987 24.6363404,47.0483623 23.7238978,50.3737883 C22.8122392,53.7339767 21.7022575,57.1296942 20.3973497,60.6836314 C19.8590818,62.136748 19.376731,63.5185507 18.9469006,64.8492323 C18.3213601,66.7759857 17.8003376,68.5943623 17.4266856,70.3979139 C16.8881564,72.8660395 16.6015156,75.2812547 16.6576941,77.8196717 C16.6576941,78.5900664 16.6927076,79.3768197 16.7627347,80.1817211 C16.8881564,81.8449453 17.1397836,83.578461 17.5521073,85.432878 L14.9383722,85.432878 C14.5994725,83.8588601 14.3478453,82.3888735 14.2043943,80.9702637 L14.1871488,80.9702637 C13.9911775,79.2707435 13.9368281,77.6604296 14.0089455,76.0864117 C14.0436978,75.0351067 14.1343672,74.0198422 14.2772956,72.987452 C14.4732669,71.3773937 14.8121667,69.7670798 15.2597652,68.1225148 C15.7068412,66.3552592 16.2978907,64.5164341 16.9963326,62.5740888 C17.2291465,61.8913668 17.4614379,61.2083892 17.7308331,60.4903937 C18.3213601,58.8632099 18.8750444,57.2700215 19.3939765,55.7121067 C19.8935728,54.1718287 20.3602458,52.6491874 20.7882472,51.1439274 C21.4349526,48.9206717 21.9891596,46.7160753 22.453481,44.4928197 C22.9379221,42.1647659 23.348678,39.8195865 23.652303,37.4217525 C23.8670875,35.776165 24.0452908,34.1310888 24.1712351,32.4328466 C25.1011844,31.9768466 26.0324401,31.5576538 26.9634346,31.1374386" id="Fill-21" fill="#5EBB53"></path>
                                <path d="M22.8469914,73.8454937 C23.9196079,75.2986103 24.0105386,78.0982561 23.7782472,80.2008659 C21.0398744,81.0755475 18.3033307,81.2503816 17.1578129,80.1456552 L16.7627347,80.1816955 C16.6927076,79.3767942 16.6576941,78.5900408 16.6576941,77.8196462 L17.0310848,77.8007314 C17.3179868,76.5237269 19.9497512,74.9136686 22.8469914,73.8454937" id="Fill-23" fill="#77C269"></path>
                                <path d="M22.3106309,44.4581085 L22.4535594,44.4928709 C21.989238,46.7161265 21.4347697,48.9207229 20.7883256,51.1439785 C19.5022311,50.4086018 18.0345364,49.9178395 16.7816264,49.1310861 C14.2956647,47.9236063 12.2016456,45.525261 10.5905,43.4594583 C10.3584699,42.0595076 10.3757154,40.5194852 10.5905,39.0840054 C13.5266731,37.5618753 16.4947243,36.0906108 19.4834178,34.6730233 C19.6809569,35.1282565 19.8764057,35.5661085 20.056438,35.9684314 C21.1834038,38.6811713 22.4360526,41.4997318 22.3106309,44.4581085" id="Fill-25" fill="#77C269"></path>
                                <path d="M20.0331981,34.7013654 C19.8716417,34.7777946 19.7108619,34.8921595 19.5524123,35.0450178 C19.4968773,34.8174039 19.4195943,34.5881163 19.3415346,34.3582709 C19.580374,34.4347 19.8192135,34.5479491 20.0331981,34.7013654" id="Fill-27" fill="#98995F"></path>
                                <path d="M19.3414562,34.3581942 C19.3939765,34.4635036 19.4459742,34.5685574 19.4833394,34.6728444 C16.4946459,36.0904318 13.5265948,37.5616964 10.5906829,39.0838265 C10.7341339,37.9108534 11.0207746,36.808683 11.3419063,35.8982166 C12.916732,31.9601045 14.3478453,30.436952 17.2832346,30.0696471 C18.0869784,31.5051269 18.768436,33.0106426 19.3414562,34.3581942" id="Fill-29" fill="#77C269"></path>
                                <path d="M16.9056109,62.538943 L16.9965416,62.5742166 C16.2978385,64.5163063 15.7067889,66.355387 15.259713,68.1226426 C11.9676558,68.9978354 8.30011765,66.1790193 5.7417772,63.4141359 C3.3621626,58.3725753 7.4417632,51.4594722 12.4149931,51.7033197 C13.3271743,52.683822 14.1345762,53.7169789 14.7773622,54.6798444 C16.6576418,57.3749475 17.0310325,59.352822 16.9056109,62.538943" id="Fill-31" fill="#77C269"></path>
                                <path d="M14.1870181,80.9702381 L13.8828706,81.003978 C12.128274,81.7390991 8.97940655,81.1271798 7.22690023,80.3918031 C7.13805989,80.3406821 7.02936112,80.2859825 6.90393947,80.2008659 C5.6350904,77.8896821 5.75920558,74.4576686 7.45971417,72.707283 C8.33635928,72.9529197 9.23103374,73.2846955 10.0721427,73.6537897 C11.9155797,74.4231619 13.4530402,75.3683906 13.8828706,76.0863861 L14.0088149,76.0863861 C13.9369587,77.660404 13.9910468,79.2707179 14.1870181,80.9702381" id="Fill-33" fill="#77C269"></path>
                                <path d="M17.2832607,30.0695704 C14.3478714,30.4368753 12.9167581,31.9600278 11.3419324,35.8983955 C11.0208007,36.8086063 10.73416,37.9110323 10.590709,39.0840054 C9.83948554,39.4341848 9.10550757,39.8196377 8.3717909,40.2040682 C6.58244196,37.2111848 5.43770807,33.9557946 5.70501297,30.4368753 C6.10009118,26.2541489 8.22833988,22.6835973 12.755539,25.0290323 C14.5819918,25.9213507 16.0671933,27.8997363 17.2832607,30.0695704" id="Fill-35" fill="#5EBB53"></path>
                                <path d="M12.4150976,51.703422 C7.44186772,51.4595744 3.36226712,58.3726776 5.74188171,63.4139825 C4.81036464,62.3989735 4.02412764,61.4005789 3.45084617,60.578552 C1.17940775,57.253126 -0.323561738,53.559117 0.176557108,49.4988256 C0.554128546,45.6823816 2.44799552,45.9280184 5.83072205,47.0483368 C7.69192714,47.6262605 9.53536416,48.9035206 11.1465098,50.4259063 C11.5938471,50.8287404 12.0221098,51.2658256 12.4150976,51.703422" id="Fill-37" fill="#5EBB53"></path>
                                <path d="M10.5906306,43.4594072 C10.5553558,43.4246448 10.5365425,43.3896269 10.4996999,43.354609 C9.73070839,42.3398556 8.99725301,41.2895731 8.37171251,40.2042726 C9.10542918,39.8195865 9.83940716,39.4341336 10.5906306,39.0839543 C10.375846,40.5194341 10.3583392,42.0594565 10.5906306,43.4594072" id="Fill-39" fill="#5EBB53"></path>
                                <path d="M7.45968805,72.7072574 C5.75917945,74.457643 5.63532557,77.8896565 6.90391334,80.2008404 C4.97137469,78.9920825 0.176609367,74.8264816 2.32367131,72.6384996 C3.09475319,71.8146834 5.22274058,72.0268359 7.45968805,72.7072574" id="Fill-41" fill="#5EBB53"></path>
                                <path d="M14.1170956,85.1098439 C14.1170956,83.7694493 15.2270772,82.6836377 16.5973088,82.6836377 C17.9664952,82.6836377 19.0769994,83.7694493 19.0769994,85.1098439 C19.0769994,86.4492161 17.9664952,87.5350278 16.5973088,87.5350278 C15.2270772,87.5350278 14.1170956,86.4492161 14.1170956,85.1098439" id="Fill-43" fill="#E6AFA5"></path>
                                <path d="M4.58032042,82.8074018 C4.58032042,81.7221013 5.47891431,80.8425632 6.58811207,80.8425632 C7.69757112,80.8425632 8.5966876,81.7221013 8.5966876,82.8074018 C8.5966876,83.8927022 7.69757112,84.7722404 6.58811207,84.7722404 C5.47891431,84.7722404 4.58032042,83.8927022 4.58032042,82.8074018" id="Fill-45" fill="#ECB1AA"></path>
                                <path d="M26.9348489,82.8074018 C26.9348489,81.5822852 27.950503,80.5887471 29.2034131,80.5887471 C30.4563232,80.5887471 31.4711934,81.5822852 31.4711934,82.8074018 C31.4711934,84.0325184 30.4563232,85.0260565 29.2034131,85.0260565 C27.950503,85.0260565 26.9348489,84.0325184 26.9348489,82.8074018" id="Fill-47" fill="#EA9895"></path>
                                <path d="M21.8957204,82.8074018 C21.8957204,81.9618592 22.5965139,81.2768368 23.4603556,81.2768368 C24.3244585,81.2768368 25.0257746,81.9618592 25.0257746,82.8074018 C25.0257746,83.6529444 24.3244585,84.3382224 23.4603556,84.3382224 C22.5965139,84.3382224 21.8957204,83.6529444 21.8957204,82.8074018" id="Fill-49" fill="#ECB1AA"></path>
                            </g>
                        </g>
                        <g id="Item" transform="translate(151.000000, 148.000000)">
                            <g id="Base" transform="translate(0.000000, 22.995179)">
                                <path d="M4.49223498,9.65903692 L0.137070293,23.1529364 C-0.258102206,24.3769658 0.223049246,25.7184547 1.29861289,26.3911004 L14.5877349,34.2004671 C15.8212022,34.9715592 17.2725104,35.2977417 18.709351,35.1266226 L43.9181322,32.1238001 C44.9498796,32.0008478 45.8228967,31.2867955 46.1663991,30.2850096 L50.7530456,16.9064571 C51.1850072,15.6469363 50.6786407,14.2522104 49.5481002,13.5850573 L36.0969409,5.64640069 C34.8969558,4.93826356 33.5059982,4.64292475 32.1290949,4.80390342 L6.76199668,7.77165711 C5.70999458,7.89503184 4.8245767,8.63147755 4.49223498,9.65903692" id="Fill-1" fill-opacity="0.39" fill="#61E8FF" filter="url(#filter-3)"></path>
                                <path d="M50.7527976,13.9557097 L46.1661511,27.3342622 C45.8226487,28.3360481 44.9496316,29.0501004 43.9178841,29.1730526 L18.7086896,32.1758752 C17.2722624,32.3469942 15.8209542,32.0208117 14.5874869,31.2497197 L1.29836487,23.440353 C0.569197207,22.984458 0.114914178,22.2218163 0.0194279366,21.3962197 L0,19.3039195 C0.0723380619,20.1730353 0.534474937,18.0304558 1.29836487,18.507899 L14.5874869,26.3172657 C15.8209542,27.0883578 17.2722624,27.4145403 18.7086896,27.2434212 L43.9178841,24.2405987 C44.9496316,24.1176465 45.8226487,23.4035941 46.1661511,22.4018082 L50.7527976,11.1991477 C50.7955115,11.0740829 50.8464926,11.5661955 50.9057409,12.6754856 C50.8710187,13.3326391 50.8200375,13.7593805 50.7527976,13.9557097 Z" id="Fill-4" fill="#B1BAC9"></path>
                                <g id="Group-3" transform="translate(0.000000, 0.273452)">
                                    <mask id="mask-5" fill="white">
                                        <use xlink:href="#path-4"></use>
                                    </mask>
                                    <g id="Clip-2"></g>
                                    <path d="M4.49223498,5.04687135 L0.137070293,18.5407708 C-0.258102206,19.7648002 0.223049246,21.1062891 1.29861289,21.7789349 L14.5877349,29.5883015 C15.8212022,30.3593936 17.2725104,30.6855761 18.709351,30.514457 L43.9181322,27.5116345 C44.9498796,27.3886823 45.8228967,26.6746299 46.1663991,25.672844 L50.7530456,12.2942915 C51.1850072,11.0347707 50.6786407,9.64004482 49.5481002,8.97289176 L36.0969409,1.03423512 C34.8969558,0.326097993 33.5059982,0.0307591784 32.1290949,0.191737846 L6.76199668,3.15949154 C5.70999458,3.28286627 4.8245767,4.01931198 4.49223498,5.04687135" id="Fill-1" fill="#FFFFFF" mask="url(#mask-5)"></path>
                                </g>
                            </g>
                            <g id="Bitcoin-Symbol" transform="translate(10.887640, 0.000000)">
                                <path d="M15.9294239,30.0867413 L15.930847,22.3470814 C17.7712672,23.660238 23.5444157,27.0967736 23.5451273,31.6519105 C23.5469062,36.0197653 17.7719787,31.3995342 15.9301355,30.087105 L15.9294239,30.0867413 Z M15.9312028,11.7821893 C17.4631667,12.8760622 22.2814172,15.6842027 22.281773,19.8280463 C22.2814172,23.800245 17.4645898,19.8971407 15.9312028,18.8029042 L15.9312028,11.7829167 L15.9312028,11.7821893 Z M25.0151864,26.1229067 C26.590199,26.2083655 27.5749821,25.082491 27.3451519,21.870694 C27.0352726,17.4850201 24.2577431,14.1055783 20.7522995,11.2050696 L20.751588,5.42768967 L18.0348959,3.48831994 L18.0341843,9.11260127 C17.3194339,8.60275758 16.5908082,8.10055064 15.8657403,7.6016166 L15.8664519,1.94169712 L13.152606,0.00378200736 L13.1518944,5.77897997 C12.5637996,5.37459611 11.986378,4.97712168 11.4224759,4.57455609 L11.4224759,4.55746433 L7.67581735,1.88060316 L7.67617312,5.63570008 C7.67617312,5.63570008 9.68202829,7.01867835 9.64929706,7.04267955 C10.7486395,7.82890069 11.1079714,8.91222761 11.211146,9.69953971 L11.2122133,16.2813235 L11.2122133,25.5254222 C11.1634722,25.9388975 10.9599694,26.5091078 10.1907854,25.9610804 C10.2260071,26.0261746 8.21481532,24.5501007 8.21481532,24.5501007 L7.67617312,28.3644733 L11.2104344,30.8875086 C11.8689725,31.3588049 12.5161259,31.8341014 13.1508271,32.2937608 L13.1533175,38.1376895 L15.8664519,40.0756046 L15.8657403,34.2938608 C16.6121547,34.8469794 17.3325975,35.369551 18.0366747,35.870667 L18.0359632,41.6244093 L20.7522995,43.5634154 L20.7537226,37.731851 C25.3197292,40.6523607 28.516005,41.444764 28.9134048,36.1768641 C29.2346689,31.9362884 27.6094922,28.7812215 25.0173211,26.1243613 L25.0151864,26.1229067 Z" id="Fill-1" fill="#FBB03B"></path>
                                <polygon id="Fill-3" fill="#FBB03B" points="0.0258885055 6.31711598 7.6757462 1.88053043 13.1521791 5.7792709 5.50267714 10.2158565"></polygon>
                                <polygon id="Fill-5" fill="#FBB03B" points="10.384718 13.5496959 8.216274 12.0387113 15.8657759 7.60176206 18.0342199 9.11274673"></polygon>
                                <polygon id="Fill-7" fill="#E79A1B" points="8.2816653 23.2394533 15.9311672 18.8028678 15.9311672 11.782153 8.2816653 16.2187385"></polygon>
                                <polygon id="Fill-9" fill="#E79A1B" points="15.8665586 1.94187895 15.8658471 7.60143477 8.21634515 12.0387476 8.2170567 6.3784645"></polygon>
                                <polygon id="Fill-11" fill="#FFD400" points="13.1527127 0.00392746918 15.8665586 1.94184259 8.2170567 6.37842814 5.5032108 4.44087668"></polygon>
                                <polygon id="Fill-13" fill="#FFD400" points="18.0348959 3.4884654 20.751588 5.42783514 13.102086 9.86442069 10.385394 7.92541461"></polygon>
                                <polygon id="Fill-15" fill="#E79A1B" points="20.7514812 5.42783514 20.7521928 11.205215 13.1026909 15.6418006 13.1019793 9.86442069"></polygon>
                                <path d="M20.7521928,11.2051423 L13.1026909,15.6417279 L17.3655778,30.5599286 L26.0350845,25.9746083 C26.0350845,25.9746083 25.9667758,25.804418 25.0150797,26.1226157 C26.3599063,26.3037157 28.1526527,25.1462033 27.0280504,19.9477614 C27.0280504,19.9477614 26.5897365,16.056294 20.7521928,11.2051423" id="Fill-17" fill="#E99C24"></path>
                                <path d="M25.015222,26.1227612 C25.015222,26.1227612 28.3580768,29.2931016 28.8266314,33.3427587 C28.8266314,33.3427587 29.5677092,38.4582873 27.382188,39.7412606 L19.7810714,44.1509357 C19.7810714,44.1509357 22.3903197,42.7661392 20.7523351,35.9276153 C20.7523351,35.9276153 20.2122698,33.4373089 17.3657201,30.5597104 L25.015222,26.1227612 Z" id="Fill-19" fill="#E99C24"></path>
                                <polygon id="Fill-21" fill="#FBB03B" points="0.565455717 28.9869045 8.21495763 24.5503189 7.67595966 28.3643279 0.0264577443 32.8009134"></polygon>
                                <polygon id="Fill-23" fill="#E99C24" points="8.2170567 43.3406043 15.8665586 38.9040187 15.8658471 34.2939699 8.21634515 38.7309191"></polygon>
                                <polygon id="Fill-25" fill="#E99C24" points="13.1026909 46.8283423 13.104114 42.1688366 20.7536159 37.7318873 20.7521928 42.3917568"></polygon>
                                <polygon id="Fill-27" fill="#E79A1B" points="8.27992201 34.5233996 15.9301355 30.0871777 15.930847 22.3471542 8.28098933 26.7837397"></polygon>
                                <polygon id="Fill-29" fill="#FBB03B" points="8.27992201 34.5233996 15.9301355 30.0871777 19.5846485 35.5492691 13.9335304 39.67493"></polygon>
                                <polygon id="Fill-31" fill="#FBB03B" points="8.2816653 23.2394533 12.6847273 27.5513054 17.365649 25.0035416 15.9311672 18.8028678"></polygon>
                                <path d="M8.27992201,34.5233996 L8.28098933,26.7837397 C10.1217652,28.0968963 15.8949138,31.5334318 15.8956254,36.0885688 C15.8974042,40.4564236 10.1224768,35.8361925 8.28063356,34.5237632 L8.27992201,34.5233996 Z M8.28170088,16.2188476 C9.81366475,17.3127205 14.6319153,20.120861 14.632271,24.2647046 C14.6319153,28.2369033 9.81508785,24.3341626 8.28170088,23.2395624 L8.28170088,16.2195749 L8.28170088,16.2188476 Z M17.3656845,30.5599286 C18.9403413,30.6450238 19.9254802,29.5191493 19.69565,26.3073523 C19.3857707,21.9216783 16.6082412,18.5426002 13.1027976,15.6417279 L13.102086,9.86434796 L10.385394,7.92534188 L10.3846824,13.5496232 C9.66993196,13.0394159 8.94130632,12.5375726 8.21623842,12.0386385 L8.21694997,6.37835541 L5.50310407,4.44080395 L5.50239252,10.2156383 C4.91429771,9.81125439 4.33687612,9.41377997 3.77261817,9.01121438 L3.77261817,8.99412261 L0.0259596603,6.31726144 L0.0266712088,10.072722 C0.0266712088,10.072722 2.03252637,11.4557003 1.99943936,11.4797015 C3.09913754,12.2659226 3.45846952,13.3488859 3.56164405,14.1365617 L3.5623556,20.7179818 L3.5623556,29.9620805 C3.5139703,30.3755557 3.31046744,30.9457661 2.54128353,30.3981023 C2.57650518,30.4628328 0.565313407,28.986759 0.565313407,28.986759 L0.0266712088,32.8011316 L3.5609325,35.3241669 C4.21947062,35.7954632 4.86662396,36.2707597 5.5013252,36.7304191 L5.50381562,41.4026528 L8.21694997,43.3405679 L8.21623842,38.7308828 C8.96265277,39.2836377 9.68309561,39.8062093 10.3871728,40.3076889 L10.3864613,44.8893726 L13.1027976,46.8283787 L13.1042207,42.1688729 C17.6702273,45.089019 20.866503,45.8817859 21.2639029,40.6135224 C21.585167,36.3729466 19.9599903,33.2182434 17.3678192,30.5613832 L17.3656845,30.5599286 Z" id="Fill-33" fill="#FAC113"></path>
                            </g>
                        </g>
                        <g id="Page-1" transform="translate(201.000000, 0.000000)">
                            <g id="Group-3" transform="translate(63.094981, 208.227241)">
                                <mask id="mask-7" fill="white">
                                    <use xlink:href="#path-6"></use>
                                </mask>
                                <g id="Clip-2"></g>
                                <path d="M1.61093452,0.914056187 C1.61093452,0.914056187 0.387109463,0.778133009 0.183138621,4.5160204 C-0.0208322221,8.2539078 0.727060867,9.20537004 2.29083733,10.3607171 C3.85461379,11.5160641 6.37025418,20.622917 10.3136905,22.2539951 C14.2571268,23.8850733 18.1325728,24.4967276 17.8606116,18.7199925 C17.5886505,12.9432574 11.0615836,9.27496271 10.5176613,5.84154323 C9.97373907,2.40921114 10.5176613,-0.920906715 1.61093452,0.914056187" id="Fill-1" fill="#3062FF" mask="url(#mask-7)"></path>
                            </g>
                            <path d="M71.6863413,205.562168 L71.6863413,209.50394 C71.6863413,209.50394 70.0997201,211.587914 65.2501094,210.273809 L64.434226,204.610705 L71.6863413,205.562168 Z" id="Fill-4" fill="#A4A4AD"></path>
                            <path d="M35.6740652,203.228639 C35.6740652,203.228639 33.0904346,202.820869 34.1102888,208.937412 C32.2065609,211.927722 28.3311149,214.985993 28.4670955,222.665653 C28.603076,230.345313 39.3683851,222.688488 39.7534821,219.607382 C41.0452974,215.302966 42.1657772,211.995684 43.356967,211.180144 C45.0795687,210.409732 44.8913716,202.158108 42.6090739,202.4131 C39.4586762,201.529599 35.6740652,203.228639 35.6740652,203.228639" id="Fill-6" fill="#3062FF"></path>
                            <path d="M35.5155119,199.807724 L35.5155119,204.293189 C35.5155119,204.293189 39.1418415,206.241784 42.223705,203.568447 C42.4505205,199.807724 42.4505205,197.225184 42.4505205,197.225184 L35.5155119,199.807724 Z" id="Fill-8" fill="#A4A4AD"></path>
                            <path d="M56.7284795,103.030421 C64.6153521,102.169756 64.9781482,100.764854 64.9781482,100.764854 C64.9781482,100.764854 69.5264261,102.848828 70.2438595,108.557601 C69.9631956,102.060474 69.6847075,97.3765608 69.4274322,95.5600835 C57.2724018,96.6871585 28.9884449,92.209849 28.9884449,92.209849 C28.9884449,92.209849 29.0063944,94.2606579 29.0635062,97.875127 C32.0817308,100.754524 39.4681949,104.743597 56.7284795,103.030421" id="Fill-10" fill="#242B3D"></path>
                            <path d="M70.2436963,108.55733 C69.5262629,102.848556 64.9779851,100.765126 64.9779851,100.765126 C64.9779851,100.765126 64.6151889,102.169484 56.7283164,103.030149 C39.4680317,104.743869 32.0821115,100.754795 29.063887,97.8748552 C29.3255136,114.341676 30.413358,163.445284 34.4275042,200.894838 C39.6856006,202.707509 42.0424157,201.710377 44.3992308,199.626403 L44.3992308,117.528803 L52.7397345,117.891446 C52.7397345,117.891446 62.530335,192.92104 63.0742572,206.150715 C65.7938684,208.144436 69.147693,208.529371 72.5167474,206.150715 C72.505325,188.638373 71.3560173,134.320752 70.2436963,108.55733" id="Fill-12" fill="#555591"></path>
                            <path d="M70.0428802,59.3979938 C69.6539758,60.2950868 67.6887848,64.5331715 64.6150801,66.1501136 C66.7200592,66.2599395 65.9683587,76.8951127 65.8851386,86.7332323 C65.9085273,86.4880269 66.8353708,85.265262 68.0814966,83.5841641 C68.5884322,82.9012861 69.1606384,82.142291 69.7763583,81.3349073 C69.4913431,76.073593 69.0491343,62.08003 70.0428802,59.3979938" id="Fill-14" fill="#D9DBE6"></path>
                            <path d="M29.2604061,61.5287256 C30.0762894,73.3061971 24.629452,85.2685241 24.6267324,85.2734174 C27.0961394,80.8058943 29.0792799,77.0239678 29.0792799,77.0239678 C29.0792799,77.0239678 30.1671244,74.6681473 29.2604061,61.5287256" id="Fill-16" fill="#9AA2B8"></path>
                            <path d="M12.3079814,92.5192101 C10.8970471,91.979867 9.37569655,92.335442 8.1371856,92.8769599 C7.68573013,94.1850846 7.50569187,95.1724306 7.72978784,95.6454432 C8.95361289,98.2279836 13.2146998,101.230798 15.8886215,99.315369 C16.060501,99.1604166 16.2601204,98.9402211 16.4814968,98.6700058 C16.5309937,95.8302987 14.696344,93.4320702 12.3079814,92.5192101" id="Fill-18" fill="#D9DBE6"></path>
                            <g id="Group-22" transform="translate(7.614911, 35.332958)">
                                <mask id="mask-9" fill="white">
                                    <use xlink:href="#path-8"></use>
                                </mask>
                                <g id="Clip-21"></g>
                                <path d="M68.694769,11.9689601 C63.4366726,5.35385087 58.9041685,1.27615553 42.1785594,0.506286653 C35.6074348,0.203449813 18.4727961,1.18590254 16.7050488,7.30244555 C14.9373015,13.4189886 13.4415154,34.4870811 11.5377875,37.2055447 C9.98271378,39.4259857 2.53315469,51.7096352 0.522274142,57.5440017 C1.7607851,57.0024837 3.28213562,56.6469087 4.69306993,57.1862519 C7.08143252,58.0991119 8.91608226,60.4973405 8.86658533,63.3365038 C10.7186406,61.0752858 14.1834253,55.059326 17.011821,49.9404591 C17.0145406,49.9355659 22.461378,37.9732388 21.6454946,26.1957673 C22.552213,39.3346454 21.4643685,41.6910096 21.4643685,41.6910096 C21.4643685,41.6910096 20.9204462,51.8852479 19.6966212,53.6522492 C18.4727961,55.4192505 18.7447573,60.9921008 26.903591,63.8464876 C33.4290262,66.1294533 50.2101153,67.3625483 58.8274755,62.8297822 C58.3243474,59.7878215 58.2346002,55.673155 58.2699552,51.4089731 C58.2704991,51.4067983 58.2699552,51.4029925 58.2699552,51.4013614 L58.2704991,51.400274 C58.3531753,41.5621544 59.1054197,30.9269813 57.0004407,30.8171553 C60.0741453,29.2002132 62.0393363,24.9621285 62.4282408,24.0650355 C62.4434706,24.0226275 62.4603322,23.9878312 62.4766498,23.9514038 C62.5729241,23.7377325 62.6800768,23.6132269 62.8024593,23.6132269 C64.1002577,24.2156384 69.0575651,29.7297699 72.0491375,33.3996957 C72.0491375,33.3996957 66.2128517,40.6922461 62.1617189,46.0019491 C61.5454549,46.8093328 60.9732487,47.5683278 60.4668571,48.2512058 C60.467945,48.2550117 61.22998,50.4265204 63.0880184,52.1005502 C64.2025151,53.1047507 65.7102676,53.9300762 67.6847053,54.0023873 C73.6042112,47.8521354 83.6618774,36.5938904 84.196553,34.5322076 C84.8313103,32.0855904 73.9528653,18.5840693 68.694769,11.9689601" id="Fill-20" fill="#FFFFFF" mask="url(#mask-9)"></path>
                            </g>
                            <path d="M8.13696803,95.5774816 C8.13696803,95.5774816 12.4214436,95.1017505 13.8492395,99.1114843 C12.4894338,102.985295 10.8576671,105.36395 9.90580318,109.509607 C8.95393924,113.655264 1.06706666,111.820301 1.74696947,108.014452 C2.42687228,104.208603 4.19461958,100.334793 4.19461958,100.334793 C4.19461958,100.334793 1.61098891,100.69363 0.455154136,101.227536 C-0.700680638,101.761986 -0.158390158,98.9075995 8.13696803,95.5774816" id="Fill-23" fill="#EBB3B5"></path>
                            <path d="M66.5509538,86.5611535 C66.5509538,86.5611535 59.6610907,92.1340038 63.1062942,96.4835455 C66.5509538,100.833087 67.3293066,100.198598 68.4998272,100.198598 C70.131594,99.8364985 73.621943,100.425318 72.1713024,92.2248005 C69.7693418,89.6422601 66.5509538,86.5611535 66.5509538,86.5611535" id="Fill-25" fill="#EBB3B5"></path>
                            <path d="M70.7031475,87.4337803 C68.8445651,85.7592068 68.083074,83.5882418 68.0814422,83.5844359 C66.8347724,85.2660775 65.9971322,86.4752501 65.9753753,86.7199118 C65.8926991,87.6284223 67.3922927,91.9219637 71.2960227,92.1954411 C71.6756804,92.2226258 72.0765511,92.2128393 72.5024423,92.1568389 C73.2302102,91.4571064 74.1929526,90.4855275 75.2998344,89.3356175 C73.3253966,89.2627626 71.8171002,88.4379808 70.7031475,87.4337803" id="Fill-27" fill="#D9DBE6"></path>
                            <path d="M50.5639367,33.0868006 C48.0151171,33.0275381 43.4586804,32.2712615 42.881035,34.4460323 C42.3028457,36.6208032 41.9628943,39.8149979 49.5440825,40.2227674 C57.1252708,40.6305369 57.158994,36.8926495 56.8870329,35.3632419 C56.6150717,33.834378 55.4837135,33.2015197 50.5639367,33.0868006" id="Fill-29" fill="#E6E6ED"></path>
                            <path d="M45.4872385,28.1821486 C45.4872385,28.1821486 45.4872385,31.6253546 44.9433162,34.8875108 C45.8500346,36.881232 51.9234704,38.3312605 54.6430816,35.4312035 C54.3629617,32.3968545 54.6430816,29.1787374 54.6430816,29.1787374 L45.4872385,28.1821486 Z" id="Fill-31" fill="#EBB3B5"></path>
                            <path d="M41.2633559,15.9952221 C41.2633559,15.9952221 39.4134763,14.3179301 38.4164668,16.5834976 C37.4194573,18.8490651 41.6125539,20.7074068 41.6125539,20.7074068 C41.6125539,20.7074068 42.297352,18.3972565 41.2633559,15.9952221" id="Fill-33" fill="#EBB3B5"></path>
                            <path d="M41.1669728,14.9912391 C41.1669728,14.9912391 41.8610176,21.8156701 41.5890565,23.2156788 C41.3170954,24.6156875 40.977144,28.9483747 50.1558319,31.0818249 C61.5781991,30.0819741 59.4025101,25.1490501 60.0144226,22.5491115 C60.6263351,19.949173 61.9861408,14.8161701 61.9861408,14.8161701 L61.9861408,7.79220395 L51.6565134,3.14961188 L41.5890565,5.94962935 L41.1669728,14.9912391 Z" id="Fill-35" fill="#EBB3B5"></path>
                            <g id="Group-39" transform="translate(39.706324, 0.536625)">
                                <mask id="mask-11" fill="white">
                                    <use xlink:href="#path-10"></use>
                                </mask>
                                <g id="Clip-38"></g>
                                <path d="M15.934311,11.0628962 C13.1238648,11.8784353 8.50052566,11.2439459 6.77846783,9.34102137 C5.05586607,7.43809688 3.69606045,7.80073992 3.33326431,8.34443263 C2.9710121,8.88812535 2.73005454,13.3257453 1.46054002,14.684977 C-0.0205602609,11.0177697 -2.6498804,0.098245273 11.1298458,0.00799228286 C20.4668151,-0.0828044 26.5407948,6.44150814 22.2802519,14.5061021 C21.8723102,12.3313313 20.9655918,9.83958759 21.0107373,8.79732866 C21.0564268,7.75561343 18.8807378,7.61969025 18.2911261,9.1599717 C17.7020583,10.7002532 15.934311,11.0628962 15.934311,11.0628962" id="Fill-37" fill="#655257" mask="url(#mask-11)"></path>
                            </g>
                            <path d="M61.3154302,16.590185 C61.3154302,16.590185 63.3779834,15.1820209 64.0551666,17.5628513 C64.7328937,19.943138 60.32386,21.2104857 60.32386,21.2104857 C60.32386,21.2104857 59.9621517,18.8280242 61.3154302,16.590185" id="Fill-40" fill="#EBB3B5"></path>
                        </g>
                        <g id="Page-1" transform="translate(0.000000, 128.000000)">
                            <g id="Path-4">
                                <mask id="mask-13" fill="white">
                                    <use xlink:href="#path-12"></use>
                                </mask>
                                <use id="Mask" fill="#DDE8F8" opacity="0.200000003" xlink:href="#path-12"></use>
                                <polyline stroke="#3AB4E5" stroke-linecap="round" stroke-linejoin="round" mask="url(#mask-13)" points="-7.05318717 81.0194519 7.00135863 98.01943 15.3727932 98.01943 21.6553127 105.115483 34.9887659 100.971065 44.4598667 100.971065 55.9590405 105.115483 66.9647166 100.971065 76.895514 114.192771 90.7472525 109.920313 100.930432 100.971065 115.931412 100.971065 131.011262 90.5819396"></polyline>
                            </g>
                            <g id="Path-3" transform="translate(346.701331, 3.450313)">
                                <mask id="mask-15" fill="white">
                                    <use xlink:href="#path-14"></use>
                                </mask>
                                <use id="Mask" fill="#DDE8F8" opacity="0.200000003" transform="translate(62.316097, 95.685011) scale(-1, 1) translate(-62.316097, -95.685011) " xlink:href="#path-14"></use>
                                <polyline stroke="#00FFC3" stroke-linecap="round" stroke-linejoin="round" mask="url(#mask-15)" points="-1.71259497 147.936649 18.2774444 152.121501 30.8176957 135.393325 38.4139558 137.71375 52.4910357 117.831772 74.7682908 137.71375 78.738807 125.293972 84.9199228 121.542656 90.2041796 109.113892 101.574909 109.113892 101.574909 90.9840268 111.480919 79.6649346 114.921883 64.5248906 130.684516 35.7318515"></polyline>
                            </g>
                            <g id="Path-2" transform="translate(151.717887, 104.084433)">
                                <mask id="mask-17" fill="white">
                                    <use xlink:href="#path-16"></use>
                                </mask>
                                <use id="Mask" fill="#DDE8F8" opacity="0.200000003" xlink:href="#path-16"></use>
                                <polyline stroke="#2097D4" mask="url(#mask-17)" points="-5.26397611 37.7782284 17.3873457 51.9905516 42.3078559 37.7782284 56.3736688 69.6127541 68.0779033 61.7080338 93.7285198 74.2311414 119.246185 48.6750167 144.168948 48.6750167 172.163116 21.5105432"></polyline>
                            </g>
                        </g>
                        <g id="Group-8" transform="translate(53.000000, 12.000000)">
                            <g id="Group-5" transform="translate(289.084291, 0.000000)">
                                <path d="M29.2388698,18.307355 L62.2990257,35.8457547 C66.2020892,37.9163284 67.6876158,42.7589182 65.6170421,46.6619817 C64.9050885,48.0040254 63.8257231,49.1156068 62.5051926,49.8667115 L24.7556428,71.3382797 C20.9151457,73.5227162 19.5726434,78.4068898 21.7570799,82.2473869 C22.4504653,83.4664404 23.4521372,84.4817942 24.6616721,85.1916533 L69.0981868,111.270823" id="Path-5" stroke="#B1BAC9" opacity="0.340000004"></path>
                                <path d="M29.9749627,68.3289438 L58.6578236,51.9701329" id="Path-7" stroke="#4AC1B4"></path>
                                <g id="Item">
                                    <g id="Base" transform="translate(0.000000, 0.097475)">
                                        <path d="M2.96235623,6.20012174 L0.0903895352,14.8618362 C-0.170202735,15.6475388 0.147087435,16.5086386 0.856356355,16.940409 L9.6197255,21.9532301 C10.4331223,22.4481929 11.3901719,22.657569 12.3376811,22.5477279 L28.9613418,20.6202205 C29.6417166,20.5412977 30.2174183,20.0829485 30.4439373,19.4399036 L33.4685522,10.8522302 C33.7534046,10.0437456 33.4194867,9.1484731 32.6739639,8.72022852 L23.803741,3.62441639 C23.0124237,3.16986419 22.0951716,2.98028664 21.1871874,3.08361861 L4.45912627,4.98861539 C3.76539476,5.06780945 3.18151542,5.54053288 2.96235623,6.20012174" id="Fill-1" fill-opacity="0.39" fill="#61E8FF" filter="url(#filter-18)"></path>
                                        <path d="M33.4683887,8.95814971 L30.4437738,17.5458231 C30.2172548,18.188868 29.641553,18.6472172 28.9611782,18.72614 L12.3372449,20.6536474 C11.3900084,20.7634885 10.4329587,20.5541124 9.61956195,20.0591496 L0.856192805,15.0463285 C0.375351,14.7536902 0.0757789238,14.2641516 0.0128115447,13.7342023 L0,12.3911579 C0.04770256,12.949042 0.352453772,11.5737233 0.856192805,11.8801935 L9.61956195,16.8930146 C10.4329587,17.3879774 11.3900084,17.5973535 12.3372449,17.4875124 L28.9611782,15.560005 C29.641553,15.4810822 30.2172548,15.022733 30.4437738,14.3796881 L33.4683887,7.18871659 C33.4965559,7.10843769 33.5301748,7.42432408 33.5692455,8.13637576 C33.5463483,8.55820164 33.5127293,8.83212629 33.4683887,8.95814971 Z" id="Fill-4" fill="#B1BAC9"></path>
                                        <g id="Group-3" transform="translate(0.000000, 0.175529)">
                                            <mask id="mask-20" fill="white">
                                                <use xlink:href="#path-19"></use>
                                            </mask>
                                            <g id="Clip-2"></g>
                                            <path d="M2.96235623,3.23957937 L0.0903895352,11.9012938 C-0.170202735,12.6869965 0.147087435,13.5480962 0.856356355,13.9798666 L9.6197255,18.9926877 C10.4331223,19.4876506 11.3901719,19.6970266 12.3376811,19.5871856 L28.9613418,17.6596781 C29.6417166,17.5807553 30.2174183,17.1224061 30.4439373,16.4793612 L33.4685522,7.89168782 C33.7534046,7.08320328 33.4194867,6.18793074 32.6739639,5.75968616 L23.803741,0.66387402 C23.0124237,0.209321827 22.0951716,0.0197442718 21.1871874,0.123076244 L4.45912627,2.02807302 C3.76539476,2.10726708 3.18151542,2.57999051 2.96235623,3.23957937" id="Fill-1" fill="#FFFFFF" mask="url(#mask-20)"></path>
                                        </g>
                                    </g>
                                </g>
                                <g id="Item" transform="translate(49.559085, 98.618725)">
                                    <g id="Base" transform="translate(0.000000, 0.136959)">
                                        <path d="M4.16227693,8.71151936 L0.127002376,20.8817147 C-0.239144404,21.9856712 0.20666611,23.1955647 1.20322879,23.8022263 L13.5162548,30.8455216 C14.659123,31.5409722 16.0038315,31.8351573 17.335135,31.6808244 L40.6923122,28.9725682 C41.648277,28.8616772 42.4571703,28.2176709 42.7754423,27.3141567 L47.0251961,15.2479931 C47.4254298,14.1120269 46.9562563,12.8541187 45.9087548,12.252411 L33.4455934,5.09250864 C32.3337481,4.45383727 31.0449574,4.18747016 29.7691886,4.33265738 L6.26532292,7.00928488 C5.29059117,7.12055698 4.4702079,7.78475996 4.16227693,8.71151936" id="Fill-1" fill-opacity="0.39" fill="#61E8FF" filter="url(#filter-21)"></path>
                                        <path d="M47.0249663,12.5867036 L42.7752125,24.6528672 C42.4569405,25.5563814 41.6480472,26.2003877 40.6920824,26.3112788 L17.3345222,29.019535 C16.0036017,29.1738679 14.6588932,28.8796827 13.516025,28.1842321 L1.20299899,21.1409368 C0.527389243,20.7297635 0.106473645,20.0419343 0.01800094,19.2973258 L0,17.4102729 C0.0670247767,18.1941315 0.49521735,16.2617315 1.20299899,16.6923392 L13.516025,23.7356345 C14.6588932,24.4310851 16.0036017,24.7252703 17.3345222,24.5709374 L40.6920824,21.8626812 C41.6480472,21.7517902 42.4569405,21.1077838 42.7752125,20.2042696 L47.0249663,10.1005507 C47.0645428,9.9877543 47.1117794,10.4315924 47.1666758,11.432065 C47.1345039,12.0247541 47.0872674,12.4096336 47.0249663,12.5867036 Z" id="Fill-4" fill="#B1BAC9"></path>
                                        <g id="Group-3" transform="translate(0.000000, 0.246628)">
                                            <mask id="mask-23" fill="white">
                                                <use xlink:href="#path-22"></use>
                                            </mask>
                                            <g id="Clip-2"></g>
                                            <path d="M4.16227693,4.55179102 L0.127002376,16.7219864 C-0.239144404,17.8259428 0.20666611,19.0358364 1.20322879,19.6424979 L13.5162548,26.6857932 C14.659123,27.3812438 16.0038315,27.675429 17.335135,27.5210961 L40.6923122,24.8128399 C41.648277,24.7019489 42.4571703,24.0579425 42.7754423,23.1544283 L47.0251961,11.0882647 C47.4254298,9.95229854 46.9562563,8.69439032 45.9087548,8.09268263 L33.4455934,0.932780294 C32.3337481,0.294108927 31.0449574,0.0277418112 29.7691886,0.172929037 L6.26532292,2.84955653 C5.29059117,2.96082863 4.4702079,3.62503161 4.16227693,4.55179102" id="Fill-1" fill="#FFFFFF" mask="url(#mask-23)"></path>
                                        </g>
                                    </g>
                                </g>
                            </g>
                            <g id="Group-5" transform="translate(49.915709, 66.000000) scale(-1, 1) translate(-49.915709, -66.000000) translate(0.915709, 0.000000)">
                                <path d="M29.2388698,18.307355 L62.2990257,35.8457547 C66.2020892,37.9163284 67.6876158,42.7589182 65.6170421,46.6619817 C64.9050885,48.0040254 63.8257231,49.1156068 62.5051926,49.8667115 L24.7556428,71.3382797 C20.9151457,73.5227162 19.5726434,78.4068898 21.7570799,82.2473869 C22.4504653,83.4664404 23.4521372,84.4817942 24.6616721,85.1916533 L69.0981868,111.270823" id="Path-5" stroke="#B1BAC9" opacity="0.340000004"></path>
                                <path d="M29.9749627,68.3289438 L58.6578236,51.9701329" id="Path-7" stroke="#4AC1B4"></path>
                                <g id="Item">
                                    <g id="Base" transform="translate(0.000000, 0.097475)">
                                        <path d="M2.96235623,6.20012174 L0.0903895352,14.8618362 C-0.170202735,15.6475388 0.147087435,16.5086386 0.856356355,16.940409 L9.6197255,21.9532301 C10.4331223,22.4481929 11.3901719,22.657569 12.3376811,22.5477279 L28.9613418,20.6202205 C29.6417166,20.5412977 30.2174183,20.0829485 30.4439373,19.4399036 L33.4685522,10.8522302 C33.7534046,10.0437456 33.4194867,9.1484731 32.6739639,8.72022852 L23.803741,3.62441639 C23.0124237,3.16986419 22.0951716,2.98028664 21.1871874,3.08361861 L4.45912627,4.98861539 C3.76539476,5.06780945 3.18151542,5.54053288 2.96235623,6.20012174" id="Fill-1" fill-opacity="0.39" fill="#61E8FF" filter="url(#filter-24)"></path>
                                        <path d="M33.4683887,8.95814971 L30.4437738,17.5458231 C30.2172548,18.188868 29.641553,18.6472172 28.9611782,18.72614 L12.3372449,20.6536474 C11.3900084,20.7634885 10.4329587,20.5541124 9.61956195,20.0591496 L0.856192805,15.0463285 C0.375351,14.7536902 0.0757789238,14.2641516 0.0128115447,13.7342023 L0,12.3911579 C0.04770256,12.949042 0.352453772,11.5737233 0.856192805,11.8801935 L9.61956195,16.8930146 C10.4329587,17.3879774 11.3900084,17.5973535 12.3372449,17.4875124 L28.9611782,15.560005 C29.641553,15.4810822 30.2172548,15.022733 30.4437738,14.3796881 L33.4683887,7.18871659 C33.4965559,7.10843769 33.5301748,7.42432408 33.5692455,8.13637576 C33.5463483,8.55820164 33.5127293,8.83212629 33.4683887,8.95814971 Z" id="Fill-4" fill="#B1BAC9"></path>
                                        <g id="Group-3" transform="translate(0.000000, 0.175529)">
                                            <mask id="mask-26" fill="white">
                                                <use xlink:href="#path-25"></use>
                                            </mask>
                                            <g id="Clip-2"></g>
                                            <path d="M2.96235623,3.23957937 L0.0903895352,11.9012938 C-0.170202735,12.6869965 0.147087435,13.5480962 0.856356355,13.9798666 L9.6197255,18.9926877 C10.4331223,19.4876506 11.3901719,19.6970266 12.3376811,19.5871856 L28.9613418,17.6596781 C29.6417166,17.5807553 30.2174183,17.1224061 30.4439373,16.4793612 L33.4685522,7.89168782 C33.7534046,7.08320328 33.4194867,6.18793074 32.6739639,5.75968616 L23.803741,0.66387402 C23.0124237,0.209321827 22.0951716,0.0197442718 21.1871874,0.123076244 L4.45912627,2.02807302 C3.76539476,2.10726708 3.18151542,2.57999051 2.96235623,3.23957937" id="Fill-1" fill="#FFFFFF" mask="url(#mask-26)"></path>
                                        </g>
                                    </g>
                                </g>
                                <g id="Item" transform="translate(49.559085, 98.618725)">
                                    <g id="Base" transform="translate(0.000000, 0.136959)">
                                        <path d="M4.16227693,8.71151936 L0.127002376,20.8817147 C-0.239144404,21.9856712 0.20666611,23.1955647 1.20322879,23.8022263 L13.5162548,30.8455216 C14.659123,31.5409722 16.0038315,31.8351573 17.335135,31.6808244 L40.6923122,28.9725682 C41.648277,28.8616772 42.4571703,28.2176709 42.7754423,27.3141567 L47.0251961,15.2479931 C47.4254298,14.1120269 46.9562563,12.8541187 45.9087548,12.252411 L33.4455934,5.09250864 C32.3337481,4.45383727 31.0449574,4.18747016 29.7691886,4.33265738 L6.26532292,7.00928488 C5.29059117,7.12055698 4.4702079,7.78475996 4.16227693,8.71151936" id="Fill-1" fill-opacity="0.39" fill="#61E8FF" filter="url(#filter-27)"></path>
                                        <path d="M47.0249663,12.5867036 L42.7752125,24.6528672 C42.4569405,25.5563814 41.6480472,26.2003877 40.6920824,26.3112788 L17.3345222,29.019535 C16.0036017,29.1738679 14.6588932,28.8796827 13.516025,28.1842321 L1.20299899,21.1409368 C0.527389243,20.7297635 0.106473645,20.0419343 0.01800094,19.2973258 L0,17.4102729 C0.0670247767,18.1941315 0.49521735,16.2617315 1.20299899,16.6923392 L13.516025,23.7356345 C14.6588932,24.4310851 16.0036017,24.7252703 17.3345222,24.5709374 L40.6920824,21.8626812 C41.6480472,21.7517902 42.4569405,21.1077838 42.7752125,20.2042696 L47.0249663,10.1005507 C47.0645428,9.9877543 47.1117794,10.4315924 47.1666758,11.432065 C47.1345039,12.0247541 47.0872674,12.4096336 47.0249663,12.5867036 Z" id="Fill-4" fill="#B1BAC9"></path>
                                        <g id="Group-3" transform="translate(0.000000, 0.246628)">
                                            <mask id="mask-29" fill="white">
                                                <use xlink:href="#path-28"></use>
                                            </mask>
                                            <g id="Clip-2"></g>
                                            <path d="M4.16227693,4.55179102 L0.127002376,16.7219864 C-0.239144404,17.8259428 0.20666611,19.0358364 1.20322879,19.6424979 L13.5162548,26.6857932 C14.659123,27.3812438 16.0038315,27.675429 17.335135,27.5210961 L40.6923122,24.8128399 C41.648277,24.7019489 42.4571703,24.0579425 42.7754423,23.1544283 L47.0251961,11.0882647 C47.4254298,9.95229854 46.9562563,8.69439032 45.9087548,8.09268263 L33.4455934,0.932780294 C32.3337481,0.294108927 31.0449574,0.0277418112 29.7691886,0.172929037 L6.26532292,2.84955653 C5.29059117,2.96082863 4.4702079,3.62503161 4.16227693,4.55179102" id="Fill-1" fill="#FFFFFF" mask="url(#mask-29)"></path>
                                        </g>
                                    </g>
                                </g>
                            </g>
                        </g>
                    </g>
                </g>
            </g>
        </g>
    </g>
</svg>