<?xml version="1.0" encoding="UTF-8"?>
<svg width="60px" height="76px" viewBox="0 0 60 76" version="1.1" xmlns="http://www.w3.org/2000/svg" xmlns:xlink="http://www.w3.org/1999/xlink">
    <!-- Generator: sketchtool 51.2 (57519) - http://www.bohemiancoding.com/sketch -->
    <title>D0DEFA6F-8755-49E4-B434-882F7F6F5516</title>
    <desc>Created with sketchtool.</desc>
    <defs>
        <polygon id="path-1" points="0.336617662 0.213291368 55.19335 0.213291368 55.19335 71.0825379 0.336617662 71.0825379"></polygon>
        <polygon id="path-3" points="0.06911292 0.326821436 10.6282994 0.326821436 10.6282994 10.920749 0.06911292 10.920749"></polygon>
    </defs>
    <g id="Page-1" stroke="none" stroke-width="1" fill="none" fill-rule="evenodd">
        <g id="Landing-page-5" transform="translate(-310.000000, -471.000000)">
            <g id="monero-coin" transform="translate(340.000000, 509.500000) scale(-1, 1) translate(-340.000000, -509.500000) translate(310.000000, 471.000000)">
                <g id="Group-55">
                    <path d="M53.0535165,28.143257 C53.0926215,41.7438735 43.5782565,58.3077239 31.8060715,65.1419851 C24.0972515,69.6162221 17.3316915,68.8092949 13.5697115,63.8994282 C11.5844415,61.3122573 10.4338065,57.5833955 10.4211665,52.8875711 C10.3828515,39.2889402 19.8948465,22.7246926 31.6666365,15.8908286 C38.4523415,11.9518956 44.5072965,12.1059743 48.4272765,15.548917 C51.3095915,18.0761243 53.0373215,22.3811926 53.0535165,28.143257" id="Fill-1" fill="#EDA700"></path>
                    <path d="M51.5695805,26.5503698 C51.6086855,40.1529719 42.0943205,56.7172194 30.3221355,63.549495 C23.5423555,67.4860453 17.4897705,67.3339522 13.5697905,63.8993488 C11.5841255,61.312575 10.4334905,57.5833161 10.4212455,52.8874917 C10.3825355,39.2888608 19.8949255,22.7250103 31.6667155,15.8907492 C38.4524205,11.9518162 44.5073755,12.1058949 48.4273555,15.5488376 C50.4090705,18.1356114 51.5573355,21.8605021 51.5695805,26.5503698" id="Fill-3" fill="#FFB80D"></path>
                    <path d="M46.8357425,14.3975763 L42.5077275,11.8691777 C38.6311975,9.60445998 33.2635425,9.92373633 27.3389375,13.3627079 L31.6669525,15.8911066 C37.5915575,12.4525321 42.9596075,12.1328586 46.8357425,14.3975763" id="Fill-5" fill="#FFCC57"></path>
                    <path d="M51.149893,6.93453138 C51.137648,6.92817762 51.127378,6.92222097 51.115133,6.91626432 C51.006903,6.85232963 50.894328,6.79038049 50.783333,6.73081401 C50.679053,6.67323307 50.574773,6.61763769 50.468123,6.56641051 C50.460223,6.56005676 50.449953,6.55410011 50.439683,6.5497319 C50.343303,6.50049027 50.247318,6.4532342 50.150938,6.40994922 C50.128423,6.3972417 50.105908,6.38731396 50.083393,6.37897465 C49.974768,6.32536481 49.864168,6.27612319 49.753963,6.23085266 C49.637043,6.17724283 49.520518,6.1280012 49.401623,6.08233356 C49.282728,6.03507749 49.164623,5.98782141 49.043753,5.94453643 C48.793718,5.85399538 48.541708,5.76980808 48.286143,5.69356299 C48.200033,5.66695662 48.116293,5.64233581 48.030578,5.61930344 C47.983178,5.60500748 47.936173,5.59071152 47.889168,5.58038667 C47.782913,5.54980921 47.676263,5.52280573 47.567638,5.49818492 C47.561713,5.49619937 47.555393,5.49421382 47.547098,5.49421382 C47.432548,5.4652248 47.316023,5.43861844 47.199103,5.41360052 C46.902458,5.34807738 46.599098,5.292482 46.294553,5.24919702 C46.165783,5.22854731 46.036618,5.20988314 45.907848,5.19558719 C45.774733,5.17930568 45.641618,5.16262707 45.506528,5.15031666 C45.418443,5.14197735 45.330358,5.13403516 45.240298,5.1276814 C45.205538,5.1237103 45.172753,5.12172475 45.137993,5.1197392 C45.041613,5.11139989 44.943258,5.10504613 44.845298,5.10107504 C44.746943,5.09472128 44.648588,5.09075018 44.548258,5.08876463 C44.292693,5.07843977 44.032388,5.07645422 43.772478,5.08042532 C42.213018,5.09472128 40.571398,5.32305946 38.862233,5.77814739 C36.921598,6.29240469 34.897223,7.09933198 32.811228,8.20845989 C32.424523,8.41217726 32.037423,8.62820504 31.646373,8.85455767 L27.319148,6.32735036 C27.640283,6.14031161 27.961813,5.96121505 28.280973,5.78847225 C30.352748,4.66862237 32.368828,3.84779624 34.299193,3.31249211 C35.920273,2.86415505 37.484078,2.61516715 38.974808,2.55957177 C41.909658,2.45036655 44.562478,3.08812503 46.820693,4.40732407 L51.149893,6.93453138 Z" id="Fill-7" fill="#FFB80D"></path>
                    <path d="M12.310649,64.1061239 L16.638664,66.6349197 C12.812299,64.399191 10.439929,59.6449915 10.420574,52.8877697 C10.382259,39.2879474 19.894254,22.7244941 31.666834,15.8910272 L27.338819,13.3626285 C15.566239,20.1956983 6.054244,36.7591516 6.092559,50.359371 C6.111519,57.1165928 8.483889,61.8703953 12.310649,64.1061239" id="Fill-9" fill="#FFCC57"></path>
                    <g id="Group-13" transform="translate(3.950000, 4.835607)">
                        <mask id="mask-2" fill="white">
                            <use xlink:href="#path-1"></use>
                        </mask>
                        <g id="Clip-12"></g>
                        <path d="M27.8560715,60.3065368 C16.0838865,67.1388124 6.5082965,61.6547249 6.4711665,48.0517258 C6.4316665,34.1048295 16.4966615,16.7515246 29.0924215,10.3056369 C40.2254965,4.66508809 49.0667815,10.2401138 49.1035165,23.3054261 C49.1418315,37.0327206 39.4983015,53.5699647 27.8560715,60.3065368 M42.3446715,0.413629657 C35.4045215,-0.693909814 27.6976765,2.87451962 20.8033465,9.04322458 C8.3956065,20.1444314 -1.3893335,39.646895 0.5927765,55.3243962 C0.5939615,55.3402806 0.6698015,55.9748622 0.6765165,55.9891581 C2.6459865,70.9129448 15.1090265,75.3164963 28.8795165,66.7373343 C43.5482365,57.6129405 55.2402365,36.8710969 55.1932315,19.7723395 C55.1557065,6.55374271 48.4339915,1.27654944 42.3446715,0.413629657" id="Fill-11" fill="#FFCC57" mask="url(#mask-2)"></path>
                    </g>
                    <path d="M31.646373,8.85455767 C29.280323,10.2273665 26.987348,11.9043616 24.799443,13.828359 C24.418663,14.1639168 24.039858,14.5054313 23.665398,14.8596534 C21.890663,16.5120276 20.191768,18.3272169 18.590833,20.2635247 C17.676013,21.3726526 16.791608,22.5191088 15.943938,23.7024963 C15.811218,23.8895351 15.678103,24.0769709 15.546963,24.2640097 C15.399628,24.4720953 15.256638,24.6797837 15.113253,24.8898549 C8.534133,34.4979285 4.300918,46.1233204 4.329753,56.4227624 C4.354243,65.1115267 7.404433,71.223445 12.322973,74.0961379 L7.995748,71.5689306 C3.077208,68.693855 0.024648,62.5823339 0.000553,53.8955551 C-0.028282,43.5218536 4.264183,31.8083033 10.922698,22.1609157 C11.078723,21.9325775 11.238303,21.7062249 11.397883,21.4818578 C11.525073,21.3007757 11.653843,21.1196936 11.784983,20.940597 C12.715998,19.6543581 13.688488,18.4094186 14.699688,17.2137208 C16.120108,15.5323575 17.614788,13.9478891 19.170298,12.4849362 C19.571618,12.108079 19.974518,11.7375754 20.383738,11.3777939 C22.598898,9.42480747 24.922288,7.7188234 27.319148,6.32735036 L31.646373,8.85455767 Z" id="Fill-14" fill="#FFB80D"></path>
                    <path d="M12.3230125,74.0961379 L7.9957875,71.5689306 C3.0772475,68.693855 0.0246875,62.5823339 0.0005925,53.8955551 C-0.0017775,53.4924886 0.0041475,53.0850538 0.0167875,52.6776191 L4.3910175,54.1366008 C4.3483575,54.9042142 4.3278175,55.6674594 4.3297925,56.4227624 C4.3542825,65.1115267 7.4044725,71.223445 12.3230125,74.0961379" id="Fill-16" fill="#EDA700"></path>
                    <path d="M8.8505675,36.2109017 C8.6538575,36.6608272 8.4622825,37.1123412 8.2762375,37.5646493" id="Stroke-18" stroke="#FFE3A3" stroke-width="0.899" stroke-linecap="round" stroke-linejoin="round"></path>
                    <path d="M11.814213,30.2728779 C10.939288,31.8295487 10.125193,33.4211651 9.379828,35.0350197" id="Stroke-20" stroke="#FFE3A3" stroke-width="0.899" stroke-linecap="round" stroke-linejoin="round"></path>
                    <path d="M13.559323,27.3391492 C13.481508,27.4634446 13.403298,27.5881371 13.325878,27.7128296" id="Stroke-22" stroke="#FFE3A3" stroke-width="0.899" stroke-linecap="round"></path>
                    <path d="M23.5770365,14.9779524 C20.0564015,18.3240003 16.7771115,22.3328246 13.9572065,26.7137408" id="Stroke-24" stroke="#FFE3A3" stroke-width="0.899" stroke-linecap="round"></path>
                    <path d="M43.678468,5.04941104 C43.468328,5.04980815 43.257398,5.05457347 43.046073,5.06291278" id="Stroke-26" stroke="#FFE3A3" stroke-width="0.899" stroke-linecap="round"></path>
                    <path d="M25.408138,13.3166035 C25.299118,13.4107185 25.190098,13.5056278 25.081868,13.6009342" id="Stroke-28" stroke="#FFE3A3" stroke-width="0.899" stroke-linecap="round"></path>
                    <path d="M41.0094925,5.25864824 C35.9993125,6.01434835 30.8098025,8.77545339 25.9651275,12.8418586" id="Stroke-30" stroke="#FFE3A3" stroke-width="0.899" stroke-linecap="round"></path>
                    <path d="M6.6911815,67.9172669 C7.0605065,68.6574797 7.4693315,69.3484509 7.9152865,69.9885921" id="Stroke-32" stroke="#FFE3A3" stroke-width="0.899" stroke-linecap="round"></path>
                    <path d="M8.276198,37.5647288 C5.173078,45.1205386 3.641663,53.0345415 4.542658,60.1598841 C4.544238,60.1757685 4.619683,60.8103501 4.626793,60.8246461 C4.721593,61.5461948 4.841673,62.2431226 4.984663,62.9150325" id="Stroke-34" stroke="#FFE3A3" stroke-width="0.899" stroke-linecap="round"></path>
                    <path d="M14.425321,17.543044 L17.356221,19.4571136 C18.021006,19.8915519 18.175056,20.8037133 17.689996,21.4343238 L16.372671,23.1458674 C16.130536,23.4595842 15.689716,23.5330495 15.360286,23.3146391 L11.784746,20.9407162 L14.425321,17.543044 Z" id="Fill-36" fill="#FFFFFF"></path>
                    <path d="M24.799443,13.8284781 C24.594833,14.008766 24.391013,14.1906423 24.187983,14.3749013 C23.870403,14.6639973 23.407068,14.7231667 23.027868,14.5230233 L19.170298,12.4846583 C19.571618,12.1081981 19.974518,11.7376946 20.383738,11.3775159 L24.799443,13.8284781 Z" id="Fill-38" fill="#FFFFFF"></path>
                    <path d="M43.772557,5.08042532 C42.444962,5.09273573 41.057722,5.25991899 39.620317,5.5899173 C39.121432,5.70468206 38.596872,5.63479072 38.146177,5.39136236 L34.299272,3.31249211 C35.920352,2.86415505 37.484157,2.61516715 38.974887,2.55957177 L43.772557,5.08042532 Z" id="Fill-40" fill="#FFFFFF"></path>
                    <path d="M15.266592,24.6658452 C15.215242,24.7401047 15.163892,24.8147614 15.112937,24.8898151 L10.922777,22.160876 C11.078407,21.9325378 11.238382,21.7061852 11.397962,21.4818181 L15.138217,23.9899641 C15.360997,24.1396746 15.419457,24.4442579 15.266592,24.6658452" id="Fill-42" fill="#FFFFFF"></path>
                    <path d="M22.930935,57.0570661 C23.07985,57.1813614 23.23469,57.2977146 23.39269,57.4077141 C23.23469,57.2977146 23.07985,57.1813614 22.930935,57.0570661 Z M42.284355,23.8928311 C42.312005,23.9039501 42.338865,23.9162605 42.36612,23.9277767 C42.334915,23.9146721 42.304105,23.9011704 42.272505,23.8884629 C42.276455,23.8900513 42.280405,23.8912426 42.284355,23.8928311 Z M41.638135,23.6644929 C41.649195,23.6672727 41.65907,23.6716409 41.66934,23.6748177 C41.687905,23.6799802 41.705285,23.6883195 41.723455,23.693879 C41.685535,23.6823628 41.649195,23.6680669 41.61088,23.6569478 C41.61957,23.6597276 41.629445,23.6617131 41.638135,23.6644929 Z M41.157815,23.5449628 C41.21667,23.5576703 41.273945,23.5743489 41.3328,23.5882478 C41.263675,23.5715692 41.19534,23.5533021 41.125425,23.538609 C41.13609,23.5405946 41.146755,23.5425801 41.157815,23.5449628 Z M40.61785,23.4508478 C40.67473,23.4583929 40.73003,23.4691148 40.785725,23.4782483 C40.705935,23.4655408 40.626935,23.4504507 40.54596,23.4401258 C40.570055,23.4433027 40.59415,23.4472738 40.61785,23.4508478 Z M40.003625,23.39009 C40.077095,23.394061 40.14859,23.4031946 40.22127,23.4095483 C40.14069,23.4024004 40.061295,23.3936639 39.979925,23.3892957 C39.987825,23.3896928 39.99533,23.3896928 40.003625,23.39009 Z M39.46287,23.3789709 C39.52212,23.3781767 39.57979,23.3809564 39.63904,23.3817506 C39.571495,23.3809564 39.504345,23.3785738 39.436405,23.379368 C39.445095,23.379368 39.45418,23.3789709 39.46287,23.3789709 Z M38.89802,23.4031946 C38.945025,23.4000177 38.991635,23.3984293 39.03864,23.3956495 C38.97939,23.3992235 38.92093,23.4016061 38.861285,23.4059743 C38.87353,23.4051801 38.885775,23.4039888 38.89802,23.4031946 Z M38.165295,23.4838079 C38.25101,23.4707033 38.33475,23.4631582 38.42007,23.4524362 C38.3229,23.4647466 38.22731,23.4738801 38.128955,23.4889703 C38.132905,23.4885732 38.136855,23.4873819 38.1412,23.4865877 C38.1491,23.4853963 38.157,23.4849992 38.165295,23.4838079 Z M37.524605,23.6017495 C37.61269,23.5826882 37.6988,23.5695836 37.7857,23.552905 C37.694455,23.5703778 37.604,23.5846738 37.51157,23.6049264 C37.515915,23.6041322 37.520655,23.6025437 37.524605,23.6017495 Z M36.901295,23.7566224 C36.980295,23.7343842 37.058505,23.7173085 37.137505,23.697453 C37.05574,23.7181027 36.97437,23.7363698 36.89221,23.7594021 C36.894975,23.7582108 36.898135,23.7574166 36.901295,23.7566224 Z M39.02837,34.4416581 L39.03864,38.1586066 L37.380035,37.1892614 L39.02837,34.4416581 Z M34.84295,24.5174849 C34.929455,24.4773768 35.014775,24.4440196 35.10049,24.4062941 C35.0128,24.4444167 34.9259,24.4793624 34.837815,24.5198676 C34.839395,24.5190734 34.84137,24.5182791 34.84295,24.5174849 Z M34.218455,24.8240537 C34.26783,24.7986387 34.316415,24.7760035 34.365395,24.7517797 C34.31523,24.7767977 34.26546,24.79983 34.215295,24.8252451 C34.21648,24.824848 34.217665,24.8244509 34.218455,24.8240537 Z M24.006915,43.577171 L23.992695,38.5021066 L31.872155,42.9151888 L29.59814,46.7063969 L24.006915,43.577171 Z M42.823925,41.8267106 L45.9938,39.9872976 C46.707565,37.6491146 47.103355,35.3057692 47.09743,33.0815567 C47.08479,28.7514705 45.558115,25.7100059 43.098845,24.2871612 C43.106745,24.2919265 43.11583,24.2955005 43.12373,24.3002658 L39.34279,22.0915406 C39.31751,22.0768476 39.29302,22.0625516 39.26774,22.0482556 C39.2393,22.0323713 39.208095,22.020458 39.179655,22.0049707 C39.016125,21.9156209 38.848645,21.8334192 38.67682,21.7579683 C38.64522,21.7440695 38.61599,21.7258024 38.5836,21.7123007 C38.557925,21.7011816 38.529485,21.6944307 38.503415,21.6837088 C38.302755,21.6023012 38.09854,21.5280417 37.888795,21.4656954 C37.8805,21.4633128 37.872205,21.4593417 37.864305,21.456959 C37.861935,21.4565619 37.859565,21.4557677 37.857195,21.4549735 C37.84732,21.4521937 37.836655,21.449811 37.82678,21.4474284 C37.67905,21.4049376 37.528555,21.3684035 37.37648,21.3358405 C37.331055,21.3263099 37.286025,21.3171763 37.2406,21.3084399 C37.192805,21.2993064 37.146195,21.2877902 37.098795,21.2794509 C37.01229,21.2647578 36.9246,21.2536388 36.83691,21.2417255 C36.80136,21.236563 36.7666,21.2302093 36.73105,21.2262382 C36.58095,21.207574 36.42927,21.1924838 36.27522,21.1829532 C36.25784,21.1817619 36.23967,21.1817619 36.221895,21.1809677 C36.17568,21.1781879 36.128675,21.1777908 36.082065,21.1762023 C35.94974,21.1706428 35.81623,21.1682601 35.681535,21.1698486 C35.623865,21.1702457 35.5658,21.171437 35.507735,21.1730255 C35.4631,21.1742168 35.418465,21.1734226 35.373435,21.1754081 C35.28851,21.1793792 35.202005,21.1881156 35.116685,21.1940723 C35.055855,21.1988376 34.99542,21.2016174 34.93459,21.207574 C34.75289,21.2246497 34.56961,21.2464908 34.38396,21.2746856 C34.37606,21.2758769 34.367765,21.276274 34.359865,21.2774654 C34.359865,21.2774654 34.358285,21.2778625 34.357495,21.2778625 C34.15486,21.3092342 33.949855,21.3477538 33.743665,21.3926272 C33.677305,21.4069232 33.60976,21.4255873 33.543005,21.4414717 C33.415025,21.4716521 33.287835,21.4998469 33.158275,21.5355868 C33.145635,21.5387637 33.1326,21.5439261 33.11996,21.5475001 C32.877825,21.6146117 32.632925,21.6896654 32.38526,21.775044 C32.335885,21.7921198 32.28572,21.8131666 32.23595,21.8306394 C32.036475,21.9021192 31.835815,21.9779672 31.63318,22.0613603 C31.606715,22.0720822 31.58025,22.0804215 31.553785,22.0915406 C31.39065,22.1598435 31.226725,22.2325146 31.06201,22.3083626 C31.039495,22.3182904 31.017375,22.3298066 30.995255,22.3405285 C30.810395,22.4267014 30.62435,22.5184338 30.437515,22.6149315 C30.38261,22.6427291 30.328495,22.6709239 30.273985,22.6995159 C30.065425,22.8095153 29.856075,22.9234858 29.64554,23.0457957 C29.426315,23.1728708 29.209065,23.3066969 28.992605,23.4440969 C28.922295,23.4889703 28.85238,23.5358293 28.782465,23.5814969 C28.63592,23.6772004 28.48977,23.7740952 28.344805,23.8741669 C28.26383,23.9301594 28.18325,23.9877403 28.10267,24.0453213 C27.96837,24.1406276 27.834465,24.2375224 27.70135,24.3367999 C27.619585,24.3979548 27.538215,24.4591098 27.45724,24.521456 C27.322545,24.6247046 27.189035,24.7303358 27.05592,24.8371584 C26.980475,24.8983133 26.904635,24.9578798 26.82919,25.020226 C26.678695,25.1441243 26.529385,25.2715966 26.38047,25.4002602 C26.32596,25.4479134 26.26987,25.4943752 26.214965,25.5424255 C26.01312,25.7207279 25.81246,25.9026042 25.61417,26.0892458 C25.5723,26.1285597 25.53122,26.169462 25.489745,26.209173 C25.357815,26.3346598 25.225885,26.4601465 25.09514,26.5888101 C25.076575,26.6082685 25.05801,26.6285211 25.038655,26.6475823 C24.804025,26.8814801 24.571765,27.119746 24.343455,27.3643657 C24.332395,27.376279 24.32173,27.3885894 24.31067,27.4005027 C24.093025,27.6340033 23.878935,27.8730634 23.66761,28.1160947 C23.64786,28.13873 23.62732,28.1601739 23.60757,28.1832063 C23.525015,28.2781155 23.44483,28.3765988 23.36346,28.4734936 C23.276955,28.5755508 23.190055,28.677211 23.104735,28.7808566 C22.999665,28.908726 22.89657,29.0393752 22.79308,29.1692301 C22.71092,29.2728758 22.62797,29.3753301 22.546995,29.47977 C22.531985,29.4988313 22.51658,29.5170984 22.501965,29.5361597 C22.47708,29.5687227 22.45417,29.6028741 22.429285,29.6354371 C22.17056,29.9733776 21.918155,30.318069 21.671675,30.6683199 C21.64679,30.7036627 21.61993,30.7370199 21.595045,30.7723627 C21.583985,30.7890413 21.572925,30.8061171 21.561865,30.8227957 C21.32605,31.1623246 21.09616,31.5078102 20.87259,31.8572669 C20.850865,31.8902271 20.827955,31.9227901 20.806625,31.9561473 C20.77463,32.0061831 20.745795,32.0582045 20.714195,32.1086375 C20.53368,32.3957479 20.35672,32.6860353 20.18529,32.9791024 C20.158035,33.0243729 20.1292,33.0688492 20.102735,33.1145168 C20.092465,33.1315926 20.083775,33.1494625 20.0739,33.1669353 C19.879165,33.5032874 19.69154,33.8432135 19.50905,34.1859193 C19.494435,34.2133199 19.477845,34.2403234 19.46323,34.268121 C19.433605,34.3241135 19.40714,34.3816945 19.37791,34.4380841 C19.235315,34.7112957 19.096275,34.9864928 18.96158,35.2632784 C18.93393,35.3200651 18.903515,35.3760576 18.87626,35.4328443 C18.85967,35.4669958 18.84545,35.5015444 18.829255,35.5356958 C18.663355,35.8847554 18.50259,36.2354034 18.349725,36.5888312 C18.34538,36.5999503 18.33985,36.6106723 18.334715,36.6217913 C18.31852,36.6591197 18.304695,36.6972422 18.288895,36.7349677 C18.15262,37.0538469 18.02306,37.3739175 17.898635,37.6947823 C17.878095,37.7472008 17.85479,37.7984279 17.835435,37.8504493 C17.818845,37.8937343 17.804625,37.9374164 17.78843,37.9807014 C17.64544,38.3599413 17.50798,38.7399755 17.38158,39.121201 C17.37921,39.128746 17.37605,39.135894 17.374075,39.143042 C17.36657,39.1656773 17.360645,39.1883125 17.353535,39.2109478 C17.22437,39.6040866 17.10587,39.9980196 16.994875,40.3915555 C16.98105,40.4407971 16.96367,40.4896416 16.949845,40.5384861 C16.937205,40.5845509 16.926935,40.6302185 16.91469,40.6758862 C16.8823,40.7938278 16.852675,40.9113723 16.822655,41.0297111 C16.782365,41.1865695 16.742865,41.3434279 16.705735,41.5002863 C16.67769,41.6198164 16.65083,41.7389493 16.62397,41.8584794 C16.605405,41.9422696 16.584865,42.0260598 16.56709,42.10985 C16.554055,42.1694164 16.54497,42.2281887 16.53312,42.2877552 C16.496385,42.4660575 16.46281,42.644757 16.43042,42.8226622 C16.407905,42.9473547 16.38539,43.0720472 16.364455,43.1963426 C16.33404,43.3809987 16.307575,43.5644635 16.2819,43.7479282 C16.269655,43.8348953 16.253855,43.9218624 16.2424,44.0088294 C16.238055,44.0449664 16.234895,44.0811034 16.230155,44.1172404 C16.219885,44.2018248 16.2108,44.2864092 16.201715,44.3709936 C16.181965,44.5465162 16.163795,44.7216417 16.148785,44.8959729 C16.140885,44.9869111 16.13338,45.0774521 16.12627,45.1683903 C16.113235,45.3451042 16.102965,45.5210239 16.094275,45.6965464 C16.09072,45.7763655 16.085585,45.8565817 16.08282,45.9360037 C16.073735,46.1877714 16.06781,46.4387448 16.0686,46.6881298 C16.07492,48.9119452 16.48019,50.7902749 17.205015,52.2933359 L20.36778,54.1410882 L19.1496,54.8479438 C19.43084,55.0826357 19.72867,55.2915155 20.04151,55.474186 L23.82245,57.6833083 C23.73002,57.6293014 23.64154,57.5685436 23.551875,57.5097713 C26.04709,59.138319 29.58866,59.0108467 33.51575,56.7318331 C37.778985,54.2570443 41.58402,49.7788361 44.07015,44.7875619 L40.28842,42.5780425 L39.63904,42.9552969 L39.63035,39.9610884 L42.823925,41.8267106 Z" id="Fill-44" fill="#EDA700"></path>
                    <path d="M27.196066,45.4547859 L33.379001,48.9155986 L39.626321,38.5013919 L39.651206,47.352177 L44.070071,44.7872442 C41.583941,49.7789155 37.778906,54.2571237 33.515671,56.7315154 C29.252041,59.2063042 25.439106,59.1499146 22.930856,57.0571455 L27.221346,54.5664723 L27.196066,45.4547859 Z" id="Fill-46" fill="#FFCC57"></path>
                    <path d="M33.426954,25.254918 C40.951309,20.8875035 47.072624,24.3919982 47.097114,33.0815567 C47.103434,35.3057692 46.707644,37.6491146 45.993484,39.9872976 L42.824004,41.8267106 L42.785294,28.1780438 L33.424189,43.7844623 L23.992379,38.5021066 L24.032669,52.7341278 L20.986429,54.5024582 C20.261604,52.9993972 19.856334,51.1210675 19.849619,48.8972521 C19.825129,40.2072965 25.904574,29.6211412 33.426954,25.254918" id="Fill-48" fill="#FFCC57"></path>
                    <path d="M26.320825,28.6637092 C20.67904,31.0273073 18.16052,34.0052343 16.51416,38.7228997 C16.140885,39.7939051 14.669905,39.8951681 14.229875,38.8710217 C12.033675,33.7629973 8.981115,31.0686067 4.186605,29.2939226 C3.16237,28.9150798 3.14815,27.4509356 4.168435,27.0097466 C9.22799,24.8232595 11.377975,21.7897371 13.390895,16.6348537 C13.79498,15.5995882 15.229225,15.540816 15.658985,16.5451069 C17.897055,21.7778238 21.54014,24.4972323 26.342155,26.3819158 C27.354145,26.7790257 27.341505,28.2360219 26.320825,28.6637092" id="Fill-50" fill="#FFFFFF"></path>
                    <g id="Group-54" transform="translate(16.590000, 0.070288)">
                        <mask id="mask-4" fill="white">
                            <use xlink:href="#path-3"></use>
                        </mask>
                        <g id="Clip-53"></g>
                        <path d="M10.283588,6.05120015 C7.768228,7.10512978 6.645243,8.43266813 5.911333,10.5361592 C5.744643,11.0138824 5.089338,11.0587558 4.893023,10.6020794 C3.913818,8.32465424 2.552648,7.12339684 0.415303,6.33235395 C-0.041712,6.16318514 -0.048032,5.51073359 0.407008,5.3141642 C2.662458,4.33886232 3.621518,2.98670316 4.518563,0.688231143 C4.699078,0.226392346 5.338188,0.200580203 5.530158,0.648123044 C6.527928,2.98114362 8.152168,4.1935201 10.293068,5.03380462 C10.744553,5.21091563 10.738628,5.8605874 10.283588,6.05120015" id="Fill-52" fill="#FFFFFF" mask="url(#mask-4)"></path>
                    </g>
                </g>
            </g>
        </g>
    </g>
</svg>